<?xml version="1.0" encoding="UTF-8" standalone="no"?>
<svg
   xmlns:osb="http://www.openswatchbook.org/uri/2009/osb"
   xmlns:dc="http://purl.org/dc/elements/1.1/"
   xmlns:cc="http://creativecommons.org/ns#"
   xmlns:rdf="http://www.w3.org/1999/02/22-rdf-syntax-ns#"
   xmlns:svg="http://www.w3.org/2000/svg"
   xmlns="http://www.w3.org/2000/svg"
   xmlns:xlink="http://www.w3.org/1999/xlink"
   xmlns:sodipodi="http://sodipodi.sourceforge.net/DTD/sodipodi-0.dtd"
   xmlns:inkscape="http://www.inkscape.org/namespaces/inkscape"
   width="1280"
   height="720"
   viewBox="0 0 338.66666 190.50001"
   version="1.1"
   id="svg8"
   inkscape:version="1.0.1 (3bc2e813f5, 2020-09-07)"
   sodipodi:docname="goblyn.svg"
   inkscape:export-filename="C:\Users\Kamyk\Desktop\Assets\Enemy\goblyn.png"
   inkscape:export-xdpi="96"
   inkscape:export-ydpi="96">
  <defs
     id="defs2">
    <linearGradient
       inkscape:collect="always"
       id="linearGradient3721">
      <stop
         style="stop-color:#3e3e3e;stop-opacity:1"
         offset="0"
         id="stop3717" />
      <stop
         style="stop-color:#929292;stop-opacity:1"
         offset="1"
         id="stop3719" />
    </linearGradient>
    <linearGradient
       inkscape:collect="always"
       id="linearGradient3681-4">
      <stop
         style="stop-color:#318f58;stop-opacity:1;"
         offset="0"
         id="stop3677" />
      <stop
         style="stop-color:#ff2121;stop-opacity:0"
         offset="1"
         id="stop3679" />
    </linearGradient>
    <linearGradient
       id="linearGradient1361"
       osb:paint="solid">
      <stop
         style="stop-color:#ed6e40;stop-opacity:1;"
         offset="0"
         id="stop1359" />
    </linearGradient>
    <inkscape:perspective
       sodipodi:type="inkscape:persp3d"
       inkscape:vp_x="0 : 95.250005 : 1"
       inkscape:vp_y="0 : 1000 : 0"
       inkscape:vp_z="338.66666 : 95.250005 : 1"
       inkscape:persp3d-origin="169.33333 : 63.500003 : 1"
       id="perspective835" />
    <filter
       inkscape:collect="always"
       style="color-interpolation-filters:sRGB"
       id="filter3441"
       x="-2.9437187e-06"
       width="1.0000059"
       y="-1.2993715e-05"
       height="1.000026">
      <feGaussianBlur
         inkscape:collect="always"
         stdDeviation="0.00011055613"
         id="feGaussianBlur3443" />
    </filter>
    <linearGradient
       inkscape:collect="always"
       xlink:href="#linearGradient3681-4"
       id="linearGradient3683"
       x1="73.717081"
       y1="95.694216"
       x2="81.568077"
       y2="100.57047"
       gradientUnits="userSpaceOnUse"
       gradientTransform="matrix(1.4255066,0,0,1.4612339,-30.972989,-43.480502)" />
    <linearGradient
       inkscape:collect="always"
       xlink:href="#linearGradient3721"
       id="linearGradient3715"
       x1="97.885033"
       y1="91.467537"
       x2="124.51012"
       y2="91.063606"
       gradientUnits="userSpaceOnUse"
       gradientTransform="translate(0.79990111,0.33862854)" />
    <linearGradient
       inkscape:collect="always"
       xlink:href="#linearGradient3721"
       id="linearGradient3727"
       gradientUnits="userSpaceOnUse"
       gradientTransform="translate(0.79990111,0.33862854)"
       x1="97.885033"
       y1="91.467537"
       x2="124.51012"
       y2="91.063606" />
  </defs>
  <sodipodi:namedview
     id="base"
     pagecolor="#ffffff"
     bordercolor="#666666"
     borderopacity="1.0"
     inkscape:pageopacity="0.0"
     inkscape:pageshadow="2"
     inkscape:zoom="0.7"
     inkscape:cx="384.72777"
     inkscape:cy="476.9784"
     inkscape:document-units="mm"
     inkscape:current-layer="layer4"
     inkscape:document-rotation="0"
     showgrid="false"
     units="px"
     inkscape:window-width="1920"
     inkscape:window-height="1017"
     inkscape:window-x="-8"
     inkscape:window-y="-8"
     inkscape:window-maximized="1" />
  <metadata
     id="metadata5">
    <rdf:RDF>
      <cc:Work
         rdf:about="">
        <dc:format>image/svg+xml</dc:format>
        <dc:type
           rdf:resource="http://purl.org/dc/dcmitype/StillImage" />
        <dc:title></dc:title>
      </cc:Work>
    </rdf:RDF>
  </metadata>
  <g
     inkscape:groupmode="layer"
     id="layer4"
     inkscape:label="Warstwa 4">
    <path
       style="fill:#318f58;fill-opacity:1;stroke:#000000;stroke-width:0.989945;stroke-linecap:round;stroke-linejoin:round;stroke-miterlimit:4;stroke-dasharray:none;stroke-opacity:1"
       d="m 141.09135,155.87849 -4.17427,19.61754 c -0.52037,2.52184 -0.74874,3.54613 -1.51869,3.82889 -1.0771,1.06598 -1.97558,1.09976 -3.06379,-0.13199 -1.25433,-0.2483 -1.24306,-2.59611 -1.55039,-3.96812 l -2.03928,-21.09256 1.0139,-5.18708 c 0.58003,-1.28521 1.54092,-2.35016 3.10213,-3.06794 3.20404,-1.24597 4.0993,-0.43638 5.4545,-0.0363 1.28636,1.14964 2.06065,2.50331 2.61656,3.94403 z"
       id="path3595"
       sodipodi:nodetypes="ccccccccccc" />
    <path
       style="fill:#318f58;fill-opacity:1;stroke:#000000;stroke-width:0.922304;stroke-linecap:round;stroke-linejoin:round;stroke-miterlimit:4;stroke-dasharray:none;stroke-opacity:1"
       d="m 192.38452,153.36512 -3.63933,19.53109 c -0.45369,2.51074 -0.6528,3.53051 -1.32407,3.81202 -0.9391,1.06128 -1.72241,1.09493 -2.67119,-0.13142 -1.09358,-0.2472 -1.08376,-2.58467 -1.3517,-3.95062 l -1.77795,-20.99961 0.88396,-5.16425 c 0.50571,-1.27951 1.34347,-2.33978 2.70461,-3.05441 2.79343,-1.24046 3.57399,-0.43445 4.75552,-0.0362 1.1215,1.14458 1.79656,2.49229 2.28123,3.92666 z"
       id="path3599"
       sodipodi:nodetypes="ccccccccccc" />
  </g>
  <g
     inkscape:groupmode="layer"
     id="layer3"
     inkscape:label="Warstwa 3">
    <g
       id="g3622"
       transform="matrix(1.340164,0,0,1.3935359,-96.480513,-41.659122)">
      <path
         style="fill:#8f5d31;fill-opacity:1;stroke:#000000;stroke-width:0.665;stroke-linecap:round;stroke-linejoin:round;stroke-miterlimit:4;stroke-dasharray:none;stroke-opacity:1"
         d="m 94.88012,102.92123 c 0.809647,-3.869722 1.973176,-6.126602 4.201576,-9.190402 2.565134,-2.703768 5.233444,-2.796841 7.898114,-3.570126 3.77828,-0.674884 7.20631,-1.030864 11.66285,0.476547 1.80107,1.187701 4.11091,2.140138 5.68059,4.700009 1.73425,3.16962 2.12925,6.013662 2.38711,8.708052 -0.61397,10.01857 -4.36256,17.80048 -1.16253,24.30836 -2.12792,-3.42367 -0.73261,3.06815 -0.91336,6.35568 -1.37744,0.54526 -2.49155,0.31519 -2.84959,-2.14092 1.06104,-3.2323 0.0381,-3.23049 -0.59105,-3.83968 -0.27356,2.60328 -1.58102,5.83775 -2.76457,2.38978 -0.53678,0.56634 0.0666,-3.78637 -2.08107,3.73004 -1.07298,-1.7684 -1.53319,-0.37991 -1.87995,1.59298 l -0.31714,-4.02991 c 0.0165,-1.59571 0.26216,-3.68052 -1.18944,-2.14215 l -0.58001,-2.92709 c -0.77939,1.04437 -1.13754,9.75937 -2.34683,2.97535 l -1.24887,4.09143 -0.82222,-3.99803 c -0.95393,0.69844 -2.56887,-0.25969 -2.78408,1.68594 -0.17176,-4.06177 0.94408,-5.23382 0.25765,-5.59589 -1.85679,1.43349 -2.32612,3.10632 -2.69993,4.79562 l -2.858004,2.20026 -0.97383,-2.5027 c 0,0 0.40434,-4.53071 -0.1438,-5.60013 -1.22912,0.23954 -1.94648,2.30946 -2.69691,4.26109 -0.11942,1.60881 0.127459,2.6793 -1.481953,3.78206 2.044991,-10.71991 -0.229208,-20.13844 0.297247,-30.51617 z"
         id="path3473"
         sodipodi:nodetypes="cccccccccccccccccccccccccccc" />
      <g
         id="g3571"
         transform="translate(-4.156442,2.3819)">
        <path
           style="fill:#318f58;fill-opacity:1;stroke:#000000;stroke-width:0.665;stroke-linecap:round;stroke-linejoin:round;stroke-miterlimit:4;stroke-dasharray:none;stroke-opacity:1"
           d="m 99.121554,100.7898 c 0.521944,-3.136064 2.044376,-6.189458 4.201576,-9.1904 2.14463,-2.263484 2.37518,-2.119479 5.24776,-2.781939 0.50157,4.64577 0.0664,7.516267 -0.002,12.341519 -0.97804,3.37849 -2.06201,2.70934 -3.70289,3.09735 -1.23516,0.0488 -2.42939,0.35218 -3.77809,-0.30491 -2.357964,-1.68165 -2.120695,-1.83553 -1.966166,-3.16162 z"
           id="path3481"
           sodipodi:nodetypes="cccccccc" />
        <path
           style="fill:#318f58;fill-opacity:1;stroke:#000000;stroke-width:0.665;stroke-linecap:round;stroke-linejoin:round;stroke-miterlimit:4;stroke-dasharray:none;stroke-opacity:1"
           d="m 122.88409,88.505825 3.74439,2.361057 c 2.29978,2.453365 2.8145,3.889265 3.13602,5.215041 0.79431,1.777636 0.91679,3.685679 1.1023,5.581487 -0.0675,0.52509 0.48577,0.12409 -0.61983,0.9887 -0.65301,0.55579 -1.41471,-0.48051 -1.41471,-0.48051 -5.08905,-7.389587 -4.06721,-7.56166 -5.94817,-13.665775"
           id="path3483"
           sodipodi:nodetypes="ccccccc" />
        <path
           style="fill:#318f58;fill-opacity:1;stroke:#000000;stroke-width:0.665;stroke-linecap:round;stroke-linejoin:round;stroke-miterlimit:4;stroke-dasharray:none;stroke-opacity:1"
           d="m 111.22124,88.029279 c 3.52465,-0.834036 6.91524,-0.766301 10.17791,0.162073 -1.57347,1.366632 -1.75818,4.217633 -4.75169,4.74508 -2.41414,-1.450469 -5.29329,-3.589724 -5.42622,-4.907153"
           id="path3485"
           sodipodi:nodetypes="cccc" />
        <path
           style="fill:#4c3931;fill-opacity:1;stroke:#000000;stroke-width:0.264583px;stroke-linecap:butt;stroke-linejoin:miter;stroke-opacity:1"
           d="m 113.08974,105.13031 c -0.15338,-0.29531 -0.12998,-0.58968 -0.23115,-0.89902 -0.11201,-0.34252 0.28031,-0.8879 0.43111,-1.03701 0.032,-0.0316 0.23549,-0.0139 0.28375,-0.0456 0.10181,-0.067 0.24044,-0.18128 0.33072,0.002 0.0574,0.11648 -0.003,0.53788 -0.004,0.7087 -0.002,0.28864 0.13169,0.62796 -0.005,0.89768 -0.0144,0.0284 0.0212,0.12002 -7.9e-4,0.14174 -0.025,0.0248 -0.0751,0.0175 -0.0948,0.0467 -0.0176,0.0261 0.0137,0.0664 -5.3e-4,0.0945 -0.008,0.0166 -0.24302,0.0523 -0.28402,0.0929 -0.24012,0.23743 -0.008,0.31407 -0.42521,-0.002 z"
           id="path3499" />
        <path
           style="fill:#000000;fill-opacity:1;stroke:#000000;stroke-width:0.264583px;stroke-linecap:butt;stroke-linejoin:miter;stroke-opacity:1"
           d="m 111.4945,126.78388 c 0.12352,-0.15414 -0.16152,-0.59201 -0.0432,-0.70897 0.15898,-0.15719 0.9354,0.25721 1.13204,0.33716 0.0602,0.0244 0.14306,0.002 0.18871,0.0483 0.0756,0.0764 -0.15591,0.53 -0.1922,0.56588 -0.0624,0.0617 -0.84924,0.13893 -0.85123,0.13691 -0.0613,-0.062 0.0896,-0.13367 -0.23409,-0.3793 z"
           id="path3503" />
        <path
           style="fill:none;stroke:#000000;stroke-width:0.264583px;stroke-linecap:butt;stroke-linejoin:miter;stroke-opacity:1"
           d="m 114.10696,124.3418 c 0.004,-0.6457 -0.0626,-0.0791 0.0483,-0.18872 0.11901,-0.11766 0.11554,-0.24541 0.28535,-0.32911 0.27958,-0.13781 0.19978,0.22633 0.23436,0.33206 0.0218,0.0667 0.1789,0.24595 0.0926,0.33126 -0.0241,0.0239 -0.2091,-0.008 -0.23624,-0.001 -0.25569,0.0624 -0.15604,0.21794 -0.42441,-0.14415 z"
           id="path3505" />
        <path
           style="fill:#464443;fill-opacity:1;stroke:#000000;stroke-width:0.264583px;stroke-linecap:butt;stroke-linejoin:miter;stroke-opacity:1"
           d="m 101.79847,120.25595 c 0.12554,0.19667 0.16495,0.36016 0.23302,0.56829 0.0232,0.071 -0.0475,0.047 -8e-4,0.14174 0.0363,0.0736 0.40072,-0.16128 0.42629,-0.18657 0.0948,-0.0937 0.0525,-0.26148 0.19086,-0.32966 0.0418,-0.0206 0.39715,0.0215 0.42495,0.0497 0.0221,0.0224 -0.0227,0.0721 -5.3e-4,0.0945 0.0102,0.0103 0.0897,0.0386 0.0942,0.0478 0.0183,0.0371 0.37839,-0.18608 0.52132,-0.28054 0.11808,-0.0778 -0.22812,0.0846 -0.14174,-8e-4 0.0238,-0.0235 0.11798,0.0243 0.14174,8e-4 0.0348,-0.0344 0.0164,-0.4047 -0.0448,-0.42549 -0.0298,-0.0101 -0.0684,0.0171 -0.0945,-5.3e-4 -0.25103,-0.16941 0.17344,-0.0358 -0.14094,-0.14254 -0.0798,-0.0271 -0.15567,-0.0213 -0.23596,-0.0486 -0.0422,-0.0143 -0.0518,-0.0807 -0.094,-0.095 -0.21639,-0.0735 -0.6174,0.008 -0.85016,-0.0521 -0.0629,-0.0161 -0.12723,-0.0274 -0.18872,-0.0483 -0.0859,-0.0292 -0.15569,-0.20594 -0.28267,-0.14335 -0.0681,0.0336 -0.0735,0.13416 -0.0956,0.18845 -0.14822,0.36456 -0.15938,0.43658 0.13799,0.66225 z"
           id="path3507"
           sodipodi:nodetypes="csscsssccssscscccssccc" />
        <path
           style="fill:none;stroke:#000000;stroke-width:0.264583px;stroke-linecap:butt;stroke-linejoin:miter;stroke-opacity:1"
           d="m 122.78983,126.2337 c 0.36082,0.0622 0.18741,0.0483 0.51945,0.0502 0.0734,5.3e-4 0.67013,0.0701 0.70843,0.0513 0.10476,-0.0516 0.0148,-0.0292 0.0478,-0.0942 0.12457,-0.24565 -0.0772,-0.20808 -0.2816,-0.33234 -0.11113,-0.0675 -0.18906,-0.33083 -0.37664,-0.23837 -0.0698,0.0344 -0.063,0.0623 -0.095,0.094 -0.0317,0.0313 -0.11033,0.0151 -0.14201,0.0464 -0.0224,0.0221 0.0137,0.0664 -5.3e-4,0.0945 -0.0201,0.0397 -0.0749,0.0542 -0.095,0.094 -0.0855,0.16867 0.0493,0.1531 -0.28482,0.23462 z"
           id="path3509" />
        <path
           style="fill:#7b7673;fill-opacity:1;stroke:#000000;stroke-width:0.264583px;stroke-linecap:butt;stroke-linejoin:miter;stroke-opacity:1"
           d="m 120.4099,101.31314 c 0.14904,0.006 0.40397,-0.0995 0.56723,-0.044 0.0692,0.0235 0.27528,0.20114 0.3777,0.0494 0.15097,-0.2237 -0.18169,0.0387 0.0483,-0.18872 0.0251,-0.0248 0.0697,-0.022 0.0948,-0.0467 0.0223,-0.022 -0.0296,-0.29167 0.0491,-0.33046 0.11754,-0.0579 0.30991,0.0122 0.42548,-0.0448 0.0351,-0.0173 0.0297,-0.11257 0.0948,-0.0467 0.0515,0.0521 0.0824,0.24658 0.0929,0.28401 0.0848,0.30318 0.22872,0.52781 0.0427,0.80346 -0.1495,0.22151 -0.47748,0.028 -0.66145,-0.004 -0.19367,-0.0334 -0.51857,-0.004 -0.66225,0.13799 -0.0539,0.0532 -0.0643,0.14947 -0.14281,0.18818 -0.06,0.0296 -0.31352,-0.49674 -0.32751,-0.56883 -0.012,-0.0618 7.9e-4,-0.12599 0.001,-0.18899 z"
           id="path3513" />
        <path
           style="fill:none;stroke:#000000;stroke-width:0.264583px;stroke-linecap:butt;stroke-linejoin:miter;stroke-opacity:1"
           d="m 105.01738,127.41007 c 0.14362,-0.947 0.46418,-1.88414 1.10461,-2.5936 0.0831,-0.092 0.44366,-0.60211 0.47731,-0.61952"
           id="path3515" />
        <path
           style="fill:none;stroke:#000000;stroke-width:0.264583px;stroke-linecap:butt;stroke-linejoin:miter;stroke-opacity:1"
           d="m 104.41213,126.44654 c 0.28278,0.0651 1.19086,0.0394 1.31407,0.27736"
           id="path3517" />
        <path
           style="fill:none;stroke:#000000;stroke-width:0.264583px;stroke-linecap:butt;stroke-linejoin:miter;stroke-opacity:1"
           d="m 104.84154,125.42618 c 0.62132,0.10397 -0.14859,-0.0472 0.44576,0.14165 0.0961,0.0305 0.19584,0.0606 0.29667,0.0592 0.0315,-4.9e-4 0.0524,-0.043 0.0839,-0.0435 0.012,-6.4e-4 0.4033,0.16243 0.4038,0.16337"
           id="path3519" />
        <path
           style="fill:none;stroke:#000000;stroke-width:0.264583px;stroke-linecap:butt;stroke-linejoin:miter;stroke-opacity:1"
           d="m 105.54887,124.63436 c 0.16585,0.01 0.24781,0.16669 0.38356,0.22705 0.0645,0.0287 0.21998,-2.1e-4 0.27496,0.0173 0.13175,0.0419 -0.13457,0.065 0.0854,0.0622 0.0315,-4.9e-4 0.0585,-0.062 0.0839,-0.0435 0.0255,0.0186 0.0179,0.0653 0.0434,0.0839 0.0316,0.0229 0.15516,-0.009 0.19104,0.0607"
           id="path3523" />
        <path
           style="fill:none;stroke:#000000;stroke-width:0.264583px;stroke-linecap:butt;stroke-linejoin:miter;stroke-opacity:1"
           d="m 115.88241,112.63412 c 1.17238,0.47892 2.85769,0.97096 3.72554,1.95507 0.0943,0.10697 0.15335,0.24072 0.23743,0.35592 0.19796,0.27128 0.0848,0.061 0.15055,0.18806"
           id="path3525" />
        <path
           style="fill:none;stroke:#000000;stroke-width:0.264583px;stroke-linecap:butt;stroke-linejoin:miter;stroke-opacity:1"
           d="m 116.6772,113.55272 c 0.19667,-0.62996 0.54057,-1.34393 1.15995,-1.66459"
           id="path3527" />
        <path
           style="fill:none;stroke:#000000;stroke-width:0.264583px;stroke-linecap:butt;stroke-linejoin:miter;stroke-opacity:1"
           d="m 117.65858,114.21513 c 0.0197,-0.0989 0.0395,-0.1978 0.0592,-0.29668 -0.008,-0.0492 -0.0315,-0.0985 -0.0232,-0.14762 0.0524,-0.31338 0.59911,-0.52299 0.83617,-0.64572"
           id="path3531" />
        <path
           style="fill:none;stroke:#000000;stroke-width:0.264583px;stroke-linecap:butt;stroke-linejoin:miter;stroke-opacity:1"
           d="m 118.98008,115.02066 c -0.17659,-0.45602 0.17522,-0.779 0.42791,-1.126 0.18575,-0.25507 0.35336,-0.55537 0.64514,-0.70641"
           id="path3533" />
        <path
           style="fill:#382212;fill-opacity:1;stroke:#000000;stroke-width:0.264583px;stroke-linecap:butt;stroke-linejoin:miter;stroke-opacity:1"
           d="m 127.3478,130.6536 c -0.0298,-0.34745 -0.15054,-0.7182 -0.0414,-1.03969 0.0309,-0.091 0.14417,-0.19085 0.19059,-0.2824 0.0502,-0.099 0.0118,-0.34314 0.1906,-0.28241 0.0905,0.0307 0.15707,0.10335 0.23543,0.14308 0.05,0.0254 0.14683,0.006 0.18871,0.0483 0.0298,0.0301 -0.0205,0.14954 -0.001,0.18898 0.05,0.10149 0.0688,0.22368 0.13987,0.33153 0.0467,0.0709 0.20924,0.0144 0.18845,0.0956 -0.0211,0.0825 -0.0931,0.31023 -0.14389,0.37716 -0.11901,0.15682 -0.0862,-0.0792 -0.14254,0.14094 -0.0479,0.18694 -0.0493,0.36794 -0.0505,0.56668 -0.001,0.19386 0.0935,0.1695 0.0937,0.14228 5.3e-4,-0.0718 -0.11185,0.0636 -0.14228,0.0937 -0.008,0.008 -0.33687,0.0718 -0.3785,0.0924 -0.0552,0.0272 -0.0871,0.0665 -0.14228,0.0937 -0.10093,0.0498 -0.449,-0.62672 -0.37421,-0.66359 0.0582,-0.0287 0.12616,-0.0308 0.18925,-0.0462 z"
           id="path3501" />
      </g>
    </g>
    <g
       id="g3725"
       transform="matrix(2.6016792,0,0,2.0808539,-237.75304,-163.18572)">
      <path
         style="fill:#66402d;fill-opacity:1;stroke:#000000;stroke-width:0.582083;stroke-linecap:butt;stroke-linejoin:miter;stroke-miterlimit:4;stroke-dasharray:none;stroke-opacity:1"
         d="m 105.32756,106.14886 9.09254,-20.359475 c 0.88987,-0.275329 0.80248,0.17366 1.03727,0.383863 l -9.18757,20.453442 c -0.47196,0.15205 -0.7388,-0.10038 -0.94224,-0.47783 z"
         id="path3705"
         sodipodi:nodetypes="ccccc" />
      <path
         style="fill:url(#linearGradient3727);fill-opacity:1;stroke:#000000;stroke-width:0.582083;stroke-linecap:butt;stroke-linejoin:miter;stroke-miterlimit:4;stroke-dasharray:none;stroke-opacity:1"
         d="m 101.32523,89.242703 c 17.89737,-4.942934 21.49485,-1.899547 22.41541,6.274426 -8.08483,-6.979593 -13.47472,-6.045136 -22.41541,-6.274426 z"
         id="path3707"
         sodipodi:nodetypes="ccc" />
    </g>
  </g>
  <g
     inkscape:groupmode="layer"
     id="layer2"
     inkscape:label="Warstwa 2">
    <path
       style="fill:#318f58;fill-opacity:1;stroke:#000000;stroke-width:1.16107;stroke-linecap:round;stroke-linejoin:round;stroke-miterlimit:4;stroke-dasharray:none;stroke-opacity:1"
       d="m 143.38195,97.017428 -3.79114,27.377522 c -0.55833,3.23313 -1.49119,2.31954 -2.3173,2.68205 -1.15574,1.36666 -2.11978,1.40995 -3.2874,-0.16938 -1.3459,-0.31835 -1.73043,-0.88828 -2.06019,-2.64728 l -1.79151,-29.481842 1.08793,-6.650123 c 0.62236,-1.64767 1.65339,-3.013013 3.32853,-3.933251 3.43789,-1.597376 4.3985,-0.559448 5.85263,-0.04633 1.38022,1.473923 2.21103,3.209409 2.80748,5.056493 z"
       id="path3479"
       sodipodi:nodetypes="ccccccccccc" />
    <path
       style="fill:#318f58;fill-opacity:1;stroke:#000000;stroke-width:1.11343;stroke-linecap:round;stroke-linejoin:round;stroke-miterlimit:4;stroke-dasharray:none;stroke-opacity:1"
       d="m 177.44403,95.854078 3.48637,27.377522 c 0.51345,3.23313 1.37129,2.31953 2.13099,2.68205 1.06287,1.36664 1.9494,1.40994 3.02313,-0.1694 1.23771,-0.31834 1.59137,-0.88826 1.8946,-2.64726 l 1.64749,-29.481846 -1.00046,-6.650123 c -0.57233,-1.647684 -1.5205,-3.013013 -3.06098,-3.933252 -3.1615,-1.597376 -4.04489,-0.559447 -5.38213,-0.04633 -1.26926,1.473924 -2.03329,3.209396 -2.58178,5.05648 z"
       id="path3703"
       sodipodi:nodetypes="ccccccccccc" />
  </g>
  <g
     inkscape:label="Warstwa 1"
     inkscape:groupmode="layer"
     id="layer1">
    <g
       sodipodi:type="inkscape:box3d"
       id="g837"
       style="fill:#000000;fill-opacity:0;stroke:#606c68;stroke-width:1.00157;stroke-linecap:round;stroke-linejoin:round"
       inkscape:perspectiveID="#perspective835"
       inkscape:corner0="3.3997756 : -0.019705726 : 0 : 1"
       inkscape:corner7="-0.35743643 : -0.21944917 : 0.25 : 1">
      <path
         sodipodi:type="inkscape:box3dside"
         id="path849"
         style="fill:#e9e9ff;fill-rule:evenodd;stroke:none;stroke-linejoin:round"
         inkscape:box3dsidetype="11"
         d="M 54.626292,106.31628 284.57357,152.89937 V 376.68559 L 54.626292,149.27393 Z"
         points="284.57357,152.89937 284.57357,376.68559 54.626292,149.27393 54.626292,106.31628 " />
      <path
         sodipodi:type="inkscape:box3dside"
         id="path839"
         style="fill:#353564;fill-rule:evenodd;stroke:none;stroke-linejoin:round"
         inkscape:box3dsidetype="6"
         d="m 38.486811,106.94508 v 45.39855 l 16.139481,-3.0697 v -42.95765 z"
         points="38.486811,152.34363 54.626292,149.27393 54.626292,106.31628 38.486811,106.94508 " />
      <path
         sodipodi:type="inkscape:box3dside"
         id="path847"
         style="fill:#afafde;fill-rule:evenodd;stroke:none;stroke-linejoin:round"
         inkscape:box3dsidetype="13"
         d="M 38.486811,152.34363 263.52775,486.18277 284.57357,376.68559 54.626292,149.27393 Z"
         points="263.52775,486.18277 284.57357,376.68559 54.626292,149.27393 38.486811,152.34363 " />
      <path
         sodipodi:type="inkscape:box3dside"
         id="path841"
         style="fill:#4d4d9f;fill-rule:evenodd;stroke:none;stroke-linejoin:round"
         inkscape:box3dsidetype="5"
         d="M 38.486811,106.94508 263.52775,175.32881 284.57357,152.89937 54.626292,106.31628 Z"
         points="263.52775,175.32881 284.57357,152.89937 54.626292,106.31628 38.486811,106.94508 " />
      <path
         sodipodi:type="inkscape:box3dside"
         id="path845"
         style="fill:#d7d7ff;fill-rule:evenodd;stroke:none;stroke-linejoin:round"
         inkscape:box3dsidetype="14"
         d="M 263.52775,175.32881 V 486.18277 L 284.57357,376.68559 V 152.89937 Z"
         points="263.52775,486.18277 284.57357,376.68559 284.57357,152.89937 263.52775,175.32881 " />
      <path
         sodipodi:type="inkscape:box3dside"
         id="path843"
         style="fill:#8686bf;fill-rule:evenodd;stroke:none;stroke-linejoin:round"
         inkscape:box3dsidetype="3"
         d="M 38.486811,106.94508 263.52775,175.32881 V 486.18277 L 38.486811,152.34363 Z"
         points="263.52775,175.32881 263.52775,486.18277 38.486811,152.34363 38.486811,106.94508 " />
    </g>
    <g
       id="g3695"
       transform="matrix(2.0352912,0,0,1.8697288,19.310559,-142.7684)">
      <path
         style="fill:#318f58;fill-opacity:1;stroke:#000000;stroke-width:0.665;stroke-linecap:butt;stroke-linejoin:miter;stroke-miterlimit:4;stroke-dasharray:none;stroke-opacity:1"
         d="m 77.819196,105.08034 c 2.22634,-2.07149 3.46131,-3.49363 5.22335,-4.60067 3.05031,-1.630514 1.61077,-3.694883 2.20494,-5.562734 6.31002,-0.0044 13.845468,-6.342075 16.304424,-9.026358 l -11.684614,2.290442 -0.54594,2.624743 -2.14758,-2.303602 c -2.24733,0.02002 -3.11209,0.958157 -3.60357,2.24746 -5.50424,-6.684426 -16.386873,-8.529404 -20.029211,-0.680559 -0.502203,-0.947804 0.520186,0.191941 -0.940638,-0.761299 l -15.990762,-4.62647 c 1.247071,3.418438 9.909762,9.558304 14.445659,10.476434 1.11821,6.460933 14.032122,17.653643 16.763942,9.922613 z"
         id="path3647"
         sodipodi:nodetypes="ccccccccccccc" />
      <path
         style="fill:url(#linearGradient3683);fill-opacity:1;stroke:#000000;stroke-width:0.610979;stroke-linecap:butt;stroke-linejoin:miter;stroke-miterlimit:4;stroke-dasharray:none;stroke-opacity:1"
         d="m 74.129211,94.471369 c 4.979194,2.364627 8.081727,6.854551 8.081727,6.854551 l -8.977549,-3.520624"
         id="path3661"
         sodipodi:nodetypes="ccc" />
      <path
         style="fill:#9cb9a9;fill-opacity:1;stroke:#000000;stroke-width:0.423333;stroke-linecap:butt;stroke-linejoin:miter;stroke-miterlimit:4;stroke-dasharray:none;stroke-opacity:1"
         d="m 67.099874,93.833142 4.531894,0.687171 c -0.95814,-1.88039 -0.77775,-1.890083 -3.058149,-2.285238 0,0 -1.2343,1.032451 -1.282618,1.221168 -0.04832,0.188719 -0.191127,0.376899 -0.191127,0.376899 z"
         id="path3663"
         sodipodi:nodetypes="cccsc" />
      <path
         style="fill:#9cb9a9;fill-opacity:1;stroke:#000000;stroke-width:0.423333;stroke-linecap:butt;stroke-linejoin:miter;stroke-miterlimit:4;stroke-dasharray:none;stroke-opacity:1"
         d="m 82.155788,93.682648 -4.84857,0.683413 c 1.02509,-1.870106 0.8321,-1.879746 3.27184,-2.27274 0,0 1.32054,1.026805 1.37224,1.21449 0.0517,0.187687 0.20449,0.374837 0.20449,0.374837 z"
         id="path3665"
         sodipodi:nodetypes="cccsc" />
      <path
         style="fill:none;stroke:#000000;stroke-width:0.37944;stroke-linecap:butt;stroke-linejoin:miter;stroke-miterlimit:4;stroke-dasharray:none;stroke-opacity:1"
         d="m 70.081414,102.4102 c 5.177566,0.55661 5.177566,0.55661 5.177566,0.55661"
         id="path3667" />
    </g>
  </g>
</svg>
