<?xml version="1.0" encoding="UTF-8" standalone="no"?>
<svg
   xmlns:dc="http://purl.org/dc/elements/1.1/"
   xmlns:cc="http://creativecommons.org/ns#"
   xmlns:rdf="http://www.w3.org/1999/02/22-rdf-syntax-ns#"
   xmlns:svg="http://www.w3.org/2000/svg"
   xmlns="http://www.w3.org/2000/svg"
   xmlns:sodipodi="http://sodipodi.sourceforge.net/DTD/sodipodi-0.dtd"
   xmlns:inkscape="http://www.inkscape.org/namespaces/inkscape"
   width="1920"
   height="1080"
   viewBox="0 0 507.99999 285.75001"
   version="1.1"
   id="svg8"
   inkscape:version="1.0.1 (3bc2e813f5, 2020-09-07)"
   sodipodi:docname="grund_1.svg"
   inkscape:export-filename="C:\Users\Kamyk\Desktop\Assets\Ground\grund_1.png"
   inkscape:export-xdpi="96"
   inkscape:export-ydpi="96">
  <defs
     id="defs2" />
  <sodipodi:namedview
     id="base"
     pagecolor="#ffffff"
     bordercolor="#666666"
     borderopacity="1.0"
     inkscape:pageopacity="0.0"
     inkscape:pageshadow="2"
     inkscape:zoom="0.49497475"
     inkscape:cx="859.5158"
     inkscape:cy="343.47893"
     inkscape:document-units="mm"
     inkscape:current-layer="layer2"
     inkscape:document-rotation="0"
     showgrid="false"
     units="px"
     inkscape:window-width="1920"
     inkscape:window-height="1017"
     inkscape:window-x="-8"
     inkscape:window-y="-8"
     inkscape:window-maximized="1" />
  <metadata
     id="metadata5">
    <rdf:RDF>
      <cc:Work
         rdf:about="">
        <dc:format>image/svg+xml</dc:format>
        <dc:type
           rdf:resource="http://purl.org/dc/dcmitype/StillImage" />
        <dc:title />
      </cc:Work>
    </rdf:RDF>
  </metadata>
  <g
     inkscape:label="Warstwa 1"
     inkscape:groupmode="layer"
     id="layer1">
    <path
       style="fill:#7e7676;stroke:none;stroke-width:0.264583px;stroke-linecap:round;stroke-linejoin:round;stroke-opacity:1;fill-opacity:1"
       d="M 25.657874,60.937451 H 491.24139 V 176.93242 l -465.713218,0 z"
       id="path833"
       sodipodi:nodetypes="ccccc" />
    <g
       id="g861"
       transform="translate(1.603617,-146.99824)"
       style="stroke-linecap:round;stroke-linejoin:round">
      <path
         style="opacity:1;fill:#684338;fill-opacity:1;stroke:none;stroke-width:0.264583px;stroke-linecap:round;stroke-linejoin:round;stroke-opacity:1"
         d="M 24.054257,207.93569 H 489.63777 v 19.57148 l -17.52328,-0.72583 -12.96513,12.06511 -29.10417,-3.40178 -47.5825,-8.55263 -9.11392,8.55263 -51.40479,-4.15774 -26.12678,-7.4431 -25.07707,13.94091 -36.72186,-7.08281 -32.33592,13.38949 -38.63627,0.45261 -33.94591,-9.97389 -47.549027,4.27631 -12.851188,-11.33928 -30.616072,1.13393 c -6.136273,-5.73033 -14.029626,-1.13394 -14.029626,-1.13394 z"
         id="path835"
         sodipodi:nodetypes="cccccccccccccccccccc" />
      <path
         style="fill:#996353;fill-opacity:1;stroke:none;stroke-width:0.264583px;stroke-linecap:round;stroke-linejoin:round;stroke-opacity:1"
         d="M 24.054257,207.93569 H 489.63775 v 15.10073 h -7.48353 l -4.67722,1.20271 -3.34087,-0.53454 -2.40543,-0.53454 -4.6772,2.27179 -2.40543,4.14268 -6.01356,5.7463 -2.40543,0.4009 -6.01356,-2.00452 -7.34991,0.93544 -8.68627,-1.73725 -5.87992,-2.67269 -9.35444,-1.87089 -5.47902,1.46998 -5.07812,-2.13815 -2.93997,-1.06908 -11.8935,-3.47451 -4.81084,2.40543 -4.27633,-1.06908 -3.74176,-0.66817 -4.40995,3.0736 -1.87089,2.40542 -2.93997,1.73725 -5.86957,1.85051 -8.817,-2.43439 -3.5247,-1.42889 -14.42051,-0.64765 -10.67138,1.465 -7.97449,-3.05042 c 0,0 -4.93244,-2.45558 -5.73265,-2.50638 -0.80021,-0.0508 -10.73703,0.38961 -10.73703,0.38961 l -6.09888,-3.06526 -5.05947,-0.45509 -1.58554,1.774 c 0,0 -9.08368,5.98462 -9.63409,6.21749 -0.55039,0.23286 -8.72808,0.38324 -8.72808,0.38324 l -6.14539,1.88623 c 0,0 0.54829,1.90946 -0.76843,1.55806 -1.31674,-0.35139 -10.28405,-2.52751 -11.30865,-3.26208 -1.02459,-0.73456 -9.5918,-2.88528 -9.5918,-2.88528 l -6.93715,1.70207 c 0,0 -11.1181,-2.04485 -11.8188,-1.55372 -0.7007,0.49113 -7.61454,3.93543 -7.61454,3.93543 l -10.36653,5.09976 -25.94289,1.56675 -8.51425,3.3427 c 0,0 -5.99938,-2.52332 -7.40714,-3.55002 -1.40777,-1.02669 -6.05656,-3.73208 -6.05656,-3.73208 l -7.36054,-0.0656 -5.74532,1.91163 c 0,0 -4.05815,-1.46276 -5.86602,-2.51485 -1.80786,-1.0521 -11.20913,-2.72015 -11.20913,-2.72015 0,0 -13.93146,2.19537 -15.01532,2.39437 -1.08387,0.199 -16.51622,2.83471 -17.449784,2.77544 -0.933564,-0.0593 -6.143316,-0.25609 -7.125581,-1.65749 -0.982266,-1.40139 -2.622897,-2.97849 -4.964224,-4.06445 -2.341327,-1.08596 -7.25048,-1.79932 -7.25048,-1.79932 l -3.420922,3.26433 -2.455662,-3.50349 -13.834131,-3.55631 -5.436248,1.26173 -8.404174,1.60894 -5.26692,-1.40559 -8.016812,-2.38359 -3.734258,-0.23706 -1.613132,-4.11952 -1.966628,-0.66046 z"
         id="path857" />
    </g>
  </g>
  <g
     inkscape:groupmode="layer"
     id="layer2"
     inkscape:label="Warstwa 2">
    <path
       style="fill:#928a8a;fill-opacity:1;stroke:none;stroke-width:0.264583px;stroke-linecap:round;stroke-linejoin:round;stroke-opacity:1"
       d="m 93.770336,113.01527 25.123334,-11.75986 12.02713,0.26727 1.60362,6.94901 -2.6727,13.36348 -11.75985,-2.13816 -18.708874,0.26727 z"
       id="path2853" />
    <path
       style="fill:#afaaaa;fill-opacity:1;stroke:#636363;stroke-width:0.264583px;stroke-linecap:round;stroke-linejoin:round;stroke-opacity:1"
       d="m 207.64285,126.43131 -29.39965,-10.42351 -0.53453,-11.22532 12.82893,-1.87089 9.6217,6.41447 11.22533,-0.26727 5.87993,6.94901 z"
       id="path2855" />
    <path
       style="fill:#cf74e5;fill-opacity:1;stroke:#f0a7a7;stroke-width:0.264583px;stroke-linecap:round;stroke-linejoin:round;stroke-opacity:1"
       d="m 61.880375,104.74699 10.42351,-5.612659 3.20723,4.009039 -2.13815,4.81085 z"
       id="path2857" />
    <path
       style="fill:#979191;fill-opacity:1;stroke:none;stroke-width:0.264583px;stroke-linecap:round;stroke-linejoin:round;stroke-opacity:1"
       d="m 286.99484,118.63931 15.50165,8.8199 7.21627,-14.43256 -20.04521,-0.8018 z"
       id="path2859" />
    <path
       style="fill:#b7b3b3;fill-opacity:1;stroke:none;stroke-width:0.264583px;stroke-linecap:round;stroke-linejoin:round;stroke-opacity:1"
       d="m 293.42357,94.084611 4.81087,-5.61266 4.2763,3.4745 -0.26728,3.74177 -7.48353,1.33635 -6.68174,-2.13815 z"
       id="path2861" />
    <path
       style="fill:#676262;fill-opacity:1;stroke:none;stroke-width:0.264583px;stroke-linecap:round;stroke-linejoin:round;stroke-opacity:1"
       d="m 237.04534,95.159355 10.42351,2.67269 3.20724,4.276305 -3.47451,3.47451 -7.75081,-3.74178 -6.68174,-1.60361 z"
       id="path2863" />
    <path
       style="fill:#5b535d;fill-opacity:1;stroke:#646464;stroke-width:0.264583px;stroke-linecap:round;stroke-linejoin:round;stroke-opacity:1"
       d="m 370.13277,122.93835 17.37251,1.33634 1.60361,-9.08716 -6.41447,-5.34539 -10.69078,4.27631 z"
       id="path2865" />
    <path
       style="fill:#d9d9d9;fill-opacity:1;stroke:#9d9d9d;stroke-width:0.264583px;stroke-linecap:round;stroke-linejoin:round;stroke-opacity:1"
       d="m 334.02898,103.1646 11.4926,-5.879928 0.80182,-4.54358 h 3.20722 l 0.26726,4.54358 4.54358,-1.33635 0.80182,3.74178 -7.48355,1.336338 -11.49257,5.61266 -1.8709,4.54358 h -4.00905 l 1.06908,-5.07812 -7.21627,0.26727 1.33636,-4.27631 z"
       id="path2867" />
    <path
       style="fill:#594e59;fill-opacity:1;stroke:none;stroke-width:0.264583px;stroke-linecap:round;stroke-linejoin:round;stroke-opacity:1"
       d="m 381.91828,103.22716 6.41448,-5.612661 c 0,0 0.80179,3.474501 0.53453,5.879931 -0.26728,2.40542 -6.94901,-0.26727 -6.94901,-0.26727 z"
       id="path2869" />
    <path
       style="fill:#e899f3;fill-opacity:1;stroke:#ea3ee8;stroke-width:0.264583px;stroke-linecap:round;stroke-linejoin:round;stroke-opacity:1"
       d="m 406.36914,105.83466 17.63979,-8.819888 2.40541,7.216268 -5.34538,5.3454 z"
       id="path2871" />
    <path
       style="fill:#928492;stroke:#999999;stroke-width:0.264583px;stroke-linecap:round;stroke-linejoin:round;stroke-opacity:1;fill-opacity:1"
       d="m 60.937451,67.35192 8.018087,-2.405425 -0.267271,1.870887 -5.879928,0.801807 z"
       id="path2877" />
    <path
       style="fill:#a59aa5;stroke:#a8a8a8;stroke-width:0.264583px;stroke-linecap:round;stroke-linejoin:round;stroke-opacity:1;fill-opacity:1"
       d="m 97.018836,74.300928 4.543584,-1.069078 2.67269,2.138156 -5.345386,2.405425 z"
       id="path2879" />
    <path
       style="fill:#2d262d;stroke:none;stroke-width:0.264583px;stroke-linecap:round;stroke-linejoin:round;stroke-opacity:1;fill-opacity:1"
       d="m 154.74905,78.0427 2.6727,-1.870884 3.20723,2.405425 z"
       id="path2881" />
    <path
       style="fill:#df7adf;stroke:#f3aef6;stroke-width:0.264583px;stroke-linecap:round;stroke-linejoin:round;stroke-opacity:1;fill-opacity:1"
       d="m 195.90856,84.72444 6.41447,-4.276312 -4.27631,-0.801809 z"
       id="path2883" />
    <path
       style="fill:#aea7ae;stroke:#d4d4d4;stroke-width:0.264583px;stroke-linecap:round;stroke-linejoin:round;stroke-opacity:1;fill-opacity:1"
       d="m 245.88796,74.300928 1.60362,3.207235 4.54358,-1.870888 -4.00904,-3.474503 -3.74177,2.138156 z"
       id="path2885" />
    <path
       style="fill:#110f11;stroke:#0e0909;stroke-width:0.264583px;stroke-linecap:round;stroke-linejoin:round;stroke-opacity:1;fill-opacity:1"
       d="m 269.94223,82.319012 2.13815,1.603619 1.33636,-1.603619 z"
       id="path2887" />
    <path
       style="fill:#665d66;stroke:none;stroke-width:0.264583px;stroke-linecap:round;stroke-linejoin:round;stroke-opacity:1;fill-opacity:1"
       d="m 216.48831,66.550111 2.6727,1.870887 -1.06908,1.336347 -2.93996,0.267271 z"
       id="path2889" />
    <path
       style="fill:#514b4a;stroke:none;stroke-width:0.264583px;stroke-linecap:round;stroke-linejoin:round;stroke-opacity:1;fill-opacity:1"
       d="m 343.17408,72.162772 1.33633,4.009044 2.40543,-4.276315 z"
       id="path2891" />
    <path
       style="fill:#c3bfbf;stroke:#bbbbbb;stroke-width:0.264583px;stroke-linecap:round;stroke-linejoin:round;stroke-opacity:1;fill-opacity:1"
       d="m 319.65434,70.291885 c 0,0 0.26728,-4.810853 1.33636,-3.741774 1.06907,1.069078 2.67269,2.405427 2.67269,2.405427 l -2.13816,3.207234 z"
       id="path2893" />
    <path
       style="fill:#e3dfe3;stroke:none;stroke-width:0.264583px;stroke-linecap:round;stroke-linejoin:round;stroke-opacity:1;fill-opacity:1"
       d="m 437.78749,74.300928 4.2763,-5.612661 h -8.55263 l 3.74179,2.672696 z"
       id="path2895" />
    <path
       style="fill:#a79f9d;stroke:none;stroke-width:0.264583px;stroke-linecap:round;stroke-linejoin:round;stroke-opacity:1;fill-opacity:1"
       d="m 408.65509,70.559154 1.60364,1.603618 -0.80182,2.405425 -1.87089,-1.069078 z"
       id="path2897" />
    <path
       style="fill:#975622;stroke:none;stroke-width:0.264583px;stroke-linecap:round;stroke-linejoin:round;stroke-opacity:1;fill-opacity:1"
       d="m 450.34914,86.595325 4.54358,-2.138156 -0.80179,2.405427 z"
       id="path2899" />
    <path
       style="fill:#867d7a;fill-opacity:1;stroke:none;stroke-width:0.264583px;stroke-linecap:round;stroke-linejoin:round;stroke-opacity:1"
       d="m 366.96106,78.57724 2.40543,-1.336346 -0.29403,6.39468 z"
       id="path2901" />
  </g>
</svg>
