<?xml version="1.0" encoding="UTF-8" standalone="no"?>
<svg
   xmlns:dc="http://purl.org/dc/elements/1.1/"
   xmlns:cc="http://creativecommons.org/ns#"
   xmlns:rdf="http://www.w3.org/1999/02/22-rdf-syntax-ns#"
   xmlns:svg="http://www.w3.org/2000/svg"
   xmlns="http://www.w3.org/2000/svg"
   xmlns:sodipodi="http://sodipodi.sourceforge.net/DTD/sodipodi-0.dtd"
   xmlns:inkscape="http://www.inkscape.org/namespaces/inkscape"
   width="1920"
   height="1440"
   viewBox="0 0 507.99999 381.00001"
   version="1.1"
   id="svg8"
   inkscape:version="1.0.1 (3bc2e813f5, 2020-09-07)"
   sodipodi:docname="grund_2.svg"
   inkscape:export-filename="C:\Users\Kamyk\Desktop\Assets\Ground\grund_2.png"
   inkscape:export-xdpi="96"
   inkscape:export-ydpi="96">
  <defs
     id="defs2" />
  <sodipodi:namedview
     id="base"
     pagecolor="#ffffff"
     bordercolor="#666666"
     borderopacity="1.0"
     inkscape:pageopacity="0.0"
     inkscape:pageshadow="2"
     inkscape:zoom="0.49497475"
     inkscape:cx="844.54245"
     inkscape:cy="687.08677"
     inkscape:document-units="mm"
     inkscape:current-layer="layer2"
     inkscape:document-rotation="0"
     showgrid="false"
     units="px"
     inkscape:window-width="1920"
     inkscape:window-height="1017"
     inkscape:window-x="-8"
     inkscape:window-y="-8"
     inkscape:window-maximized="1" />
  <metadata
     id="metadata5">
    <rdf:RDF>
      <cc:Work
         rdf:about="">
        <dc:format>image/svg+xml</dc:format>
        <dc:type
           rdf:resource="http://purl.org/dc/dcmitype/StillImage" />
        <dc:title></dc:title>
      </cc:Work>
    </rdf:RDF>
  </metadata>
  <g
     inkscape:label="Warstwa 1"
     inkscape:groupmode="layer"
     id="layer1">
    <path
       style="fill:#7e7676;fill-opacity:1;stroke:none;stroke-width:0.264583px;stroke-linecap:butt;stroke-linejoin:miter;stroke-opacity:1"
       d="M 22.697726,12.276181 H 488.28123 V 128.27115 H 22.568024 Z"
       id="path833"
       sodipodi:nodetypes="ccccc" />
    <path
       style="opacity:1;fill:#684338;fill-opacity:1;stroke:none;stroke-width:0.264583px;stroke-linecap:butt;stroke-linejoin:miter;stroke-opacity:1"
       d="M 22.697726,12.276201 H 488.28123 v 19.57148 96.423489 l -18.94668,10e-6 -6.71117,-20.22176 2.72848,-29.008233 6.64853,-16.26691 -11.38906,-14.948446 -25.24094,-2.16072 -54.26424,-14.43256 -9.11392,8.55263 -51.40479,-4.15774 -26.12678,-7.44311 -25.07707,13.94092 -36.72186,-7.08281 -32.33592,13.38949 -38.63627,0.45261 -33.94591,-9.97389 -61.714303,-0.26727 -13.162078,6.37536 -3.54943,17.357426 6.872346,8.42126 -2.477487,10.22784 -1.738332,7.48553 -4.889129,15.842663 -2.630579,13.04927 0.733982,10.84872 -7.959154,0.005 -14.661442,0.0147 z"
       id="path835"
       sodipodi:nodetypes="ccccccccccccccccccccccccccccccc" />
    <path
       style="fill:#8e5c4b;fill-opacity:1;stroke:none;stroke-width:0.265;stroke-linecap:butt;stroke-linejoin:miter;stroke-miterlimit:4;stroke-dasharray:none;stroke-opacity:1"
       d="M 22.568024,128.27115 V 12.276201 H 488.25509 V 128.27118 h -18.92054 l 2.10476,-4.81086 c 0,0 -0.53453,-7.48353 -1.20271,-8.15171 -0.66818,-0.66818 -3.47451,-2.80633 -3.60815,-3.60815 -0.13362,-0.80179 -0.53454,-3.20723 -0.13362,-4.54358 0.4009,-1.33634 2.53905,-4.94448 2.53905,-4.94448 l -0.93543,-2.939963 -0.13365,-2.53907 2.53908,-3.4745 -0.53454,-2.27179 -0.93546,-2.53906 1.73725,-2.27179 1.60362,-2.13816 -1.46997,-3.87541 c 0,0 1.33633,-3.07359 1.73725,-4.14267 0.4009,-1.06908 1.33633,-3.0736 1.46997,-3.60814 0.13364,-0.53454 1.06908,-3.60814 1.06908,-3.60814 l -0.93544,-1.33635 0.93544,-3.60814 1.06907,-6.5481 -3.74176,-2.6727 -1.8709,-0.8018 3.07361,-6.280836 -1.06907,-2.80633 -3.20725,0.13364 -0.13362,-3.60814 -2.27179,0.66817 -4.67722,1.33635 -10.02261,-1.20271 -1.20271,-5.07812 -9.35443,1.60361 -5.07812,0.80181 -5.7463,-2.00452 -3.07361,-2.67269 -7.88445,3.20723 c 0,0 -6.28084,-2.80633 -6.81538,-3.20723 -0.53453,-0.40091 -6.94899,-2.13816 -6.94899,-2.13816 l -5.3454,-1.20271 -8.95353,-2.93997 -6.28083,-2.67269 -7.21628,0.66817 c 0,0 -1.87089,3.74177 -2.40543,4.67722 -0.53454,0.93544 -5.34538,5.34539 -5.34538,5.34539 l -8.15173,-2.80633 c 0,0 -1.46997,-0.66818 -4.94448,-1.06908 -3.47451,-0.40091 -10.82442,2.93996 -10.82442,2.93996 0,0 -8.81989,-1.60361 -9.35442,-2.00452 -0.53454,-0.4009 -6.01356,-1.87089 -6.41448,-2.53906 -0.4009,-0.66817 -5.87992,-2.13816 -5.87992,-2.13816 l -6.14719,1.33635 -6.68174,-2.00452 -3.87543,-2.80633 h -3.60812 l -3.60815,1.87089 -4.81084,-2.27179 -2.40543,-0.53454 -5.07813,4.27631 -10.55713,5.61266 -9.22081,-2.00452 -1.60362,5.21175 -4.14268,1.06908 c 0,0 -3.74177,-2.13815 -4.40994,-3.4745 -0.66817,-1.33635 -2.00452,-3.20723 -2.00452,-3.20723 0,0 -6.94901,-1.46999 -7.61718,-1.60362 -0.66818,-0.13364 -7.08265,1.73725 -7.08265,1.73725 l -8.28535,-0.80181 -7.08264,2.53906 c 0,0 -1.06908,1.33635 -2.6727,2.00452 -1.60362,0.66818 -6.81537,1.60362 -7.48354,0.93545 -0.66818,-0.66818 -1.06908,-1.33635 -2.13816,-1.87089 -1.06908,-0.53454 -6.41447,-1.06908 -7.88445,-0.4009 -1.46998,0.66817 -6.01357,4.67721 -6.01357,4.67721 0,0 0.66818,0.80181 0,1.73725 -0.66817,0.93545 -8.68626,5.61266 -8.68626,5.61266 l -7.21627,-1.20271 -7.75082,-1.06908 -8.81989,0.40091 -8.95353,-3.20724 -7.61719,-2.00452 -15.10072,-0.4009 c 0,0 -3.60814,-3.34087 -3.74178,-4.14268 -0.13363,-0.80181 -12.02713,-1.20271 -12.02713,-1.20271 0,0 -8.81988,1.20271 -10.55713,1.20271 -1.73725,0 -11.225321,-0.66817 -11.225321,-0.66817 l -9.621699,-0.53454 -5.746294,2.53906 -4.677217,-1.20272 -5.345391,-1.60361 -8.601035,-3.305531 -7.435135,5.443681 -5.078122,3.0736 -4.009043,3.74178 -7.617182,12.160756 c 0,0 -1.737252,9.88897 -1.202714,11.89349 0.53454,2.00453 3.87541,9.35444 3.87541,9.35444 l 0.133633,12.6953 -5.078121,6.01356 -0.668173,8.686283 2.271791,7.61717 1.870888,2.80632 -1.202714,9.35443 1.989304,5.3023 z"
       id="path856"
       sodipodi:nodetypes="ccccccssscccccccccsscccccccccccccccccccscccccsccscsscccccccccccccscscccsssscscccccccscsccccccccccsccccccccc" />
    <rect
       style="fill:#8e5c4b;fill-opacity:1;stroke:none;stroke-width:0.333576;stroke-linecap:round;stroke-linejoin:round;stroke-miterlimit:4;stroke-dasharray:none"
       id="rect883"
       width="179.43828"
       height="166.52596"
       x="23.434021"
       y="174.48515"
       ry="12.531173" />
    <path
       style="fill:#684338;fill-opacity:1;stroke:none;stroke-width:0.351902px;stroke-linecap:butt;stroke-linejoin:miter;stroke-opacity:1"
       d="m 41.519277,320.59459 c 0,0 3.290584,-11.82937 4.230719,-14.51785 0.940138,-2.68846 -3.759235,-16.6691 -4.229086,-19.89536 -0.469852,-3.2263 -4.229242,-16.66916 -4.229242,-16.66916 l 9.870738,-13.97979 c 0,0 -3.759317,-15.056 -3.759162,-18.28225 1.52e-4,-3.22623 -4.699448,-12.36752 -4.699448,-12.36752 l -3.289235,-16.66911 c 0,0 1.880268,-5.37694 2.820429,-8.60312 0.94016,-3.2262 6.57e-4,-15.05578 6.57e-4,-15.05578 l 4.700217,-3.76368 12.220012,1.61389 16.450147,-0.53668 14.100105,7.6e-4 8.45976,6.453 13.630272,-3.76311 4.70012,-1.61283 6.10962,9.14142 15.51013,-0.53678 15.04047,-7.52695 11.27977,6.99088 12.69015,-1.61232 13.62967,9.14185 -1.88088,18.28191 3.75946,11.82978 6.10958,9.67911 c 0,0 1.4089,23.65917 0.46874,26.88532 -0.94015,3.22618 -5.17078,15.59319 -5.17078,15.59319 v 0 l 4.69931,15.59378 -1.41052,10.21633 -0.94022,4.83928 -14.10075,13.97953 -23.03015,-1.07686 -4.69979,-4.83965 -39.01078,10.21399 c 0,0 -10.34033,5.37643 -13.160072,-0.5385 -2.81974,-5.91496 -1.4097,-6.45257 -4.69958,-9.67903 -3.28987,-3.22646 -20.209742,-8.60455 -20.209742,-8.60455 l -14.100306,4.30078 -10.340485,8.60265 z"
       id="path891"
       sodipodi:nodetypes="cssccsccscccccccccccccccccscccccccccsscccc" />
    <path
       style="fill:#7e7676;fill-opacity:1;stroke:#7e7676;stroke-width:0.380904px;stroke-linecap:butt;stroke-linejoin:miter;stroke-opacity:1"
       d="m 52.860164,304.13568 -3.96159,-29.88716 4.954471,-17.93184 -1.484756,-29.88706 -6.43917,-13.15068 -2.475999,-18.53007 5.449108,-1.79287 c 1.981497,-0.5976 20.805263,2.99006 20.805263,2.99006 l 27.245317,-3.58464 17.832482,16.14011 c 2.47682,1.7e-4 29.22673,-2.98676 29.22673,-2.98676 l 21.7964,-5.97598 9.90669,14.3464 8.41989,29.88749 5.44863,8.96644 -7.43197,31.67953 -3.96395,23.31171 -15.3567,7.76959 -34.67568,0.59549 -15.85197,5.37859 c -3.46732,-5.37988 -25.757952,-24.50897 -25.757952,-24.50897 z"
       id="path893" />
    <rect
       style="fill:#8e5c4b;fill-opacity:1;stroke:none;stroke-width:0.333196;stroke-linecap:round;stroke-linejoin:round;stroke-miterlimit:4;stroke-dasharray:none"
       id="rect919"
       width="276.39514"
       height="107.86401"
       x="219.38676"
       y="176.40611"
       ry="8.116828" />
    <path
       style="fill:#684338;fill-opacity:1;stroke:none;stroke-width:0.361011px;stroke-linecap:butt;stroke-linejoin:miter;stroke-opacity:1"
       d="m 237.82642,274.11517 c 0,0 5.34661,-7.66225 6.87415,-9.40366 1.52756,-1.7414 -6.10806,-10.79709 -6.87148,-12.88684 -0.76344,-2.08978 -6.87177,-10.79713 -6.87177,-10.79713 l 16.03817,-9.05514 c 0,0 -6.10822,-9.75224 -6.10796,-11.84198 2.5e-4,-2.08973 -7.63575,-8.01083 -7.63575,-8.01083 l -5.3444,-10.79709 c 0,0 3.05508,-3.48282 4.58269,-5.57251 1.52758,-2.08971 0.001,-9.7521 0.001,-9.7521 l 7.63701,-2.43785 19.85528,1.04537 26.7285,-0.34762 22.9101,4.9e-4 13.74556,4.1798 22.14673,-2.43748 7.63684,-1.04468 9.92703,5.92118 25.20113,-0.34768 24.43803,-4.87544 18.32757,4.5282 20.61918,-1.04434 22.14573,5.92146 -3.05608,11.84175 6.10844,7.66252 9.92695,6.26946 c 0,0 2.28921,15.32477 0.76162,17.41445 -1.52757,2.0897 -8.40158,10.10019 -8.40158,10.10019 v 0 l 7.63552,10.10057 -2.29183,6.61744 -1.52769,3.13455 -22.91115,9.05497 -37.4198,-0.69751 -7.6363,-3.1348 -63.38542,6.61592 c 0,0 -16.80116,3.48248 -21.38274,-0.3488 -4.58155,-3.83131 -2.2905,-4.17953 -7.63596,-6.26941 -5.34543,-2.08988 -32.83715,-5.57343 -32.83715,-5.57343 l -22.91041,2.78574 -16.80142,5.57221 z"
       id="path921"
       sodipodi:nodetypes="cssccsccscccccccccccccccccscccccccccsscccc" />
    <path
       style="fill:#7e7676;fill-opacity:1;stroke:#7e7676;stroke-width:0.397397px;stroke-linecap:butt;stroke-linejoin:miter;stroke-opacity:1"
       d="m 253.57342,263.66524 -6.65722,-19.35884 8.3257,-11.615 -2.49506,-19.35878 -10.82064,-8.5181 -4.16076,-12.0025 9.15689,-1.1613 c 3.3298,-0.38708 34.96203,1.93676 34.96203,1.93676 l 45.78414,-2.32188 29.96644,10.45445 c 4.16215,1e-4 49.11379,-1.93463 49.11379,-1.93463 l 36.62757,-3.87082 16.64761,9.2926 14.14912,19.35906 9.1561,5.80784 -12.48897,20.5198 -6.6612,15.09972 -25.80602,5.03261 -58.27044,0.38571 -26.63829,3.48389 c -5.82664,-3.48472 -43.28474,-15.87522 -43.28474,-15.87522 z"
       id="path923" />
  </g>
  <g
     inkscape:groupmode="layer"
     id="layer2"
     inkscape:label="Warstwa 2">
    <path
       style="fill:#928a8a;fill-opacity:1;stroke:none;stroke-width:0.264583px;stroke-linecap:butt;stroke-linejoin:miter;stroke-opacity:1"
       d="m 306.69768,46.97191 -16.41568,22.360717 -10.68438,5.52876 -4.73745,-5.33075 -4.05787,-13.00998 11.34631,-3.75859 16.29286,-9.199797 z"
       id="path2853" />
    <path
       style="fill:#afaaaa;fill-opacity:1;stroke:none;stroke-width:0.182593px;stroke-linecap:butt;stroke-linejoin:miter;stroke-opacity:1"
       d="m 125.32438,89.861357 -16.78541,-8.69498 -0.30519,-9.36383 7.32455,-1.56064 5.49339,5.35076 6.40899,-0.22295 3.35708,5.79666 z"
       id="path2855" />
    <path
       style="fill:#cf74e5;fill-opacity:1;stroke:none;stroke-width:0.264583px;stroke-linecap:butt;stroke-linejoin:miter;stroke-opacity:1"
       d="m 114.9414,57.594817 10.4235,-5.612659 3.20723,4.009039 -2.13815,4.81085 z"
       id="path2857" />
    <path
       style="fill:#979191;fill-opacity:1;stroke:none;stroke-width:0.264583px;stroke-linecap:butt;stroke-linejoin:miter;stroke-opacity:1"
       d="m 82.029052,52.991797 15.50165,8.8199 7.216268,-14.43256 -20.045208,-0.8018 z"
       id="path2859" />
    <path
       style="fill:#b7b3b3;fill-opacity:1;stroke:none;stroke-width:0.264583px;stroke-linecap:butt;stroke-linejoin:miter;stroke-opacity:1"
       d="m 328.53067,61.228677 4.81087,-5.61266 4.2763,3.4745 -0.26728,3.74178 -7.48353,1.33635 -6.68174,-2.13816 z"
       id="path2861" />
    <path
       style="fill:#676262;fill-opacity:1;stroke:none;stroke-width:0.264583px;stroke-linecap:butt;stroke-linejoin:miter;stroke-opacity:1"
       d="m 162.29378,63.336487 10.42351,2.67269 3.20724,4.27631 -3.47451,3.47451 -7.75081,-3.74178 -6.68174,-1.60361 z"
       id="path2863" />
    <path
       style="fill:#5b535d;fill-opacity:1;stroke:none;stroke-width:0.264583px;stroke-linecap:butt;stroke-linejoin:miter;stroke-opacity:1"
       d="m 356.69292,67.298267 17.37251,1.33634 1.60361,-9.08716 -6.41447,-5.34539 -10.69078,4.27631 z"
       id="path2865" />
    <path
       style="fill:#594e59;fill-opacity:1;stroke:none;stroke-width:0.264583px;stroke-linecap:butt;stroke-linejoin:miter;stroke-opacity:1"
       d="m 396.17227,52.938067 6.41448,-5.612656 c 0,0 0.80179,3.4745 0.53453,5.879926 -0.26728,2.40542 -6.94901,-0.26727 -6.94901,-0.26727 z"
       id="path2869" />
    <path
       style="fill:#e899f3;fill-opacity:1;stroke:none;stroke-width:0.264583px;stroke-linecap:butt;stroke-linejoin:miter;stroke-opacity:1"
       d="m 433.77306,65.906577 17.63979,-8.81989 2.40541,7.21627 -5.34538,5.3454 z"
       id="path2871" />
    <path
       style="fill:#4a3b3b;fill-opacity:1;stroke:none;stroke-width:0.264583px;stroke-linecap:butt;stroke-linejoin:miter;stroke-opacity:1"
       d="m 227.62451,67.582837 17.63978,-12.82894 -6.68172,-11.492589 -11.4926,5.07812 z"
       id="path2873" />
    <path
       style="fill:#562f2f;fill-opacity:1;stroke:none;stroke-width:0.185469px;stroke-linecap:butt;stroke-linejoin:miter;stroke-opacity:1"
       d="m 470.39044,19.589115 c 0,0 8.77912,-1.671255 9.70324,-1.215458 0.92412,0.455797 3.9275,3.950232 3.9275,3.950232 l -2.31029,5.317616 -8.5481,1.215457 -2.77235,-4.102164 0.23103,-3.798299 z"
       id="path2875" />
    <path
       style="fill:#928492;fill-opacity:1;stroke:none;stroke-width:0.264583px;stroke-linecap:butt;stroke-linejoin:miter;stroke-opacity:1"
       d="m 59.59718,19.769797 8.018087,-2.405425 -0.267271,1.870887 -5.879928,0.801807 z"
       id="path2877" />
    <path
       style="fill:#a59aa5;fill-opacity:1;stroke:none;stroke-width:0.264583px;stroke-linecap:butt;stroke-linejoin:miter;stroke-opacity:1"
       d="m 32.602956,24.313379 4.543584,-1.069078 2.67269,2.138156 -5.345386,2.405426 z"
       id="path2879" />
    <path
       style="fill:#2d262d;fill-opacity:1;stroke:none;stroke-width:0.264583px;stroke-linecap:butt;stroke-linejoin:miter;stroke-opacity:1"
       d="m 153.40877,30.460577 2.6727,-1.870884 3.20723,2.405425 z"
       id="path2881" />
    <path
       style="fill:#df7adf;fill-opacity:1;stroke:none;stroke-width:0.333053px;stroke-linecap:butt;stroke-linejoin:miter;stroke-opacity:1"
       d="m 31.300054,256.90926 7.782381,-5.58496 -5.18825,-1.04717 z"
       id="path2883" />
    <path
       style="fill:#aea7ae;fill-opacity:1;stroke:none;stroke-width:0.264583px;stroke-linecap:butt;stroke-linejoin:miter;stroke-opacity:1"
       d="m 244.54768,26.718805 1.60362,3.207235 4.54358,-1.870888 -4.00904,-3.474503 -3.74177,2.138156 z"
       id="path2885" />
    <path
       style="fill:#110f11;fill-opacity:1;stroke:none;stroke-width:0.264583px;stroke-linecap:butt;stroke-linejoin:miter;stroke-opacity:1"
       d="m 268.60195,34.736889 2.13815,1.603619 1.33636,-1.603619 z"
       id="path2887" />
    <path
       style="fill:#665d66;fill-opacity:1;stroke:none;stroke-width:0.264583px;stroke-linecap:butt;stroke-linejoin:miter;stroke-opacity:1"
       d="m 215.14803,18.967988 2.6727,1.870887 -1.06908,1.336347 -2.93996,0.267271 z"
       id="path2889" />
    <path
       style="fill:#514b4a;fill-opacity:1;stroke:none;stroke-width:0.264583px;stroke-linecap:butt;stroke-linejoin:miter;stroke-opacity:1"
       d="m 341.8338,24.580649 1.33633,4.009044 2.40543,-4.276315 z"
       id="path2891" />
    <path
       style="fill:#c3bfbf;fill-opacity:1;stroke:none;stroke-width:0.264583px;stroke-linecap:butt;stroke-linejoin:miter;stroke-opacity:1"
       d="m 318.31406,22.709762 c 0,0 0.26728,-4.810853 1.33636,-3.741774 1.06907,1.069078 2.67269,2.405427 2.67269,2.405427 l -2.13816,3.207234 z"
       id="path2893" />
    <path
       style="fill:#e3dfe3;fill-opacity:1;stroke:none;stroke-width:0.264583px;stroke-linecap:butt;stroke-linejoin:miter;stroke-opacity:1"
       d="m 436.44721,26.718805 4.2763,-5.612661 h -8.55263 l 3.74179,2.672696 z"
       id="path2895" />
    <path
       style="fill:#a79f9d;fill-opacity:1;stroke:none;stroke-width:0.264583px;stroke-linecap:butt;stroke-linejoin:miter;stroke-opacity:1"
       d="m 407.31481,22.977031 1.60364,1.603618 -0.80182,2.405425 -1.87089,-1.069078 z"
       id="path2897" />
    <path
       style="fill:#975622;fill-opacity:1;stroke:none;stroke-width:0.264583px;stroke-linecap:butt;stroke-linejoin:miter;stroke-opacity:1"
       d="m 449.00886,39.013202 4.54358,-2.138156 -0.80179,2.405427 z"
       id="path2899" />
    <path
       style="fill:#867d7a;fill-opacity:1;stroke:none;stroke-width:0.264583px;stroke-linecap:butt;stroke-linejoin:miter;stroke-opacity:1"
       d="m 371.50071,35.805969 2.40543,-1.336346 -0.29403,6.39468 z"
       id="path2901" />
    <path
       style="fill:#4a3b3b;fill-opacity:1;stroke:none;stroke-width:0.333053px;stroke-linecap:butt;stroke-linejoin:miter;stroke-opacity:1"
       d="m 84.377938,259.6542 21.401542,-16.75486 -8.106632,-15.00956 -13.94345,6.63213 z"
       id="path895" />
    <path
       style="fill:#5b535d;fill-opacity:1;stroke:none;stroke-width:0.333053px;stroke-linecap:butt;stroke-linejoin:miter;stroke-opacity:1"
       d="m 121.64176,241.8226 21.07727,1.74529 1.94559,-11.86803 -7.78238,-6.98119 -12.97063,5.58495 z"
       id="path897" />
    <path
       style="fill:#e899f3;fill-opacity:1;stroke:none;stroke-width:0.333053px;stroke-linecap:butt;stroke-linejoin:miter;stroke-opacity:1"
       d="m 99.070448,278.39481 21.401542,-11.51896 2.91838,9.4246 -6.48531,6.98121 z"
       id="path899" />
    <path
       style="fill:#676262;fill-opacity:1;stroke:none;stroke-width:0.333053px;stroke-linecap:butt;stroke-linejoin:miter;stroke-opacity:1"
       d="m 151.68189,282.73985 12.64636,3.49059 3.8912,5.58495 -4.21547,4.53779 -9.4037,-4.88685 -8.10664,-2.09434 z"
       id="path901" />
    <path
       style="fill:#594e59;fill-opacity:1;stroke:none;stroke-width:0.333053px;stroke-linecap:butt;stroke-linejoin:miter;stroke-opacity:1"
       d="m 153.32519,257.9729 7.78239,-7.33024 c 0,0 0.97278,4.53777 0.64852,7.6793 -0.32427,3.14153 -8.43091,-0.34906 -8.43091,-0.34906 z"
       id="path903" />
    <path
       style="fill:#a59aa5;fill-opacity:1;stroke:none;stroke-width:0.264583px;stroke-linecap:butt;stroke-linejoin:miter;stroke-opacity:1"
       d="m 32.602956,24.313379 4.543584,-1.069078 2.67269,2.138156 -5.345386,2.405426 z"
       id="path905" />
    <path
       style="fill:#a59aa5;fill-opacity:1;stroke:none;stroke-width:0.333053px;stroke-linecap:butt;stroke-linejoin:miter;stroke-opacity:1"
       d="m 181.76208,182.91742 5.51252,-1.39622 3.24265,2.79247 -6.4853,3.14154 z"
       id="path907" />
    <path
       style="fill:#aea7ae;fill-opacity:1;stroke:none;stroke-width:0.333053px;stroke-linecap:butt;stroke-linejoin:miter;stroke-opacity:1"
       d="m 191.16444,212.57303 1.94559,4.18872 5.51252,-2.44342 -4.86398,-4.53777 -4.53972,2.79247 z"
       id="path909" />
    <path
       style="fill:#e3dfe3;fill-opacity:1;stroke:none;stroke-width:0.333053px;stroke-linecap:butt;stroke-linejoin:miter;stroke-opacity:1"
       d="m 66.64042,330.53433 5.188238,-7.33026 H 61.452145 l 4.539742,3.49061 z"
       id="path911" />
    <path
       style="fill:#514b4a;fill-opacity:1;stroke:none;stroke-width:0.333053px;stroke-linecap:butt;stroke-linejoin:miter;stroke-opacity:1"
       d="m 81.556862,323.56071 1.621308,5.2359 2.918398,-5.58496 z"
       id="path913" />
    <path
       style="fill:#562f2f;fill-opacity:1;stroke:none;stroke-width:0.185469px;stroke-linecap:butt;stroke-linejoin:miter;stroke-opacity:1"
       d="m 470.39044,19.589115 c 0,0 8.77912,-1.671255 9.70324,-1.215458 0.92412,0.455797 3.9275,3.950232 3.9275,3.950232 l -2.31029,5.317616 -8.5481,1.215457 -2.77235,-4.102164 0.23103,-3.798299 z"
       id="path915" />
    <path
       style="fill:#562f2f;fill-opacity:1;stroke:none;stroke-width:0.211044px;stroke-linecap:butt;stroke-linejoin:miter;stroke-opacity:1"
       d="m 184.9972,326.05364 c 0,0 9.02685,-2.10456 9.97705,-1.53059 0.95019,0.57397 4.03833,4.9744 4.03833,4.9744 l -2.37548,6.69632 -8.78932,1.53059 -2.85058,-5.16573 0.23755,-4.78309 z"
       id="path917" />
    <path
       style="fill:#df7adf;fill-opacity:1;stroke:none;stroke-width:0.704223px;stroke-linecap:butt;stroke-linejoin:miter;stroke-opacity:1"
       d="m 382.46648,223.31761 22.67858,-8.56858 -15.11903,-1.60661 z"
       id="path925" />
    <path
       style="fill:#4a3b3b;fill-opacity:1;stroke:none;stroke-width:0.332674px;stroke-linecap:butt;stroke-linejoin:miter;stroke-opacity:1"
       d="m 271.25407,250.88313 32.96557,-10.85264 -12.48695,-9.72216 -21.47759,4.29584 z"
       id="path927" />
    <path
       style="fill:#5b535d;fill-opacity:1;stroke:none;stroke-width:0.332674px;stroke-linecap:butt;stroke-linejoin:miter;stroke-opacity:1"
       d="m 286.42596,211.62322 32.46607,1.13049 2.99686,-7.6873 -11.98748,-4.52194 -19.97912,3.61755 z"
       id="path929" />
    <path
       style="fill:#e899f3;fill-opacity:1;stroke:none;stroke-width:0.35243px;stroke-linecap:butt;stroke-linejoin:miter;stroke-opacity:1"
       d="m 337.18353,255.0621 26.38025,-10.46398 3.59729,8.56143 -7.99401,6.34184 z"
       id="path931" />
    <path
       style="fill:#676262;fill-opacity:1;stroke:none;stroke-width:0.573967px;stroke-linecap:butt;stroke-linejoin:miter;stroke-opacity:1"
       d="m 402.53022,244.81869 29.43668,4.45371 9.05748,7.12592 -9.81227,5.78985 -21.88881,-6.23523 -18.86967,-2.67218 z"
       id="path933" />
    <path
       style="fill:#594e59;fill-opacity:1;stroke:none;stroke-width:1.02977px;stroke-linecap:butt;stroke-linejoin:miter;stroke-opacity:1"
       d="m 418.03252,232.52513 26.2314,-20.79034 c 0,0 3.27887,12.87023 2.18591,21.78033 -1.09298,8.9101 -28.41731,-0.98999 -28.41731,-0.98999 z"
       id="path935" />
    <path
       style="fill:#a59aa5;fill-opacity:1;stroke:none;stroke-width:0.332674px;stroke-linecap:butt;stroke-linejoin:miter;stroke-opacity:1"
       d="m 461.88457,180.16062 8.49113,-0.90438 4.99477,1.80877 -9.98954,2.03487 z"
       id="path937" />
    <path
       style="fill:#aea7ae;fill-opacity:1;stroke:none;stroke-width:0.332674px;stroke-linecap:butt;stroke-linejoin:miter;stroke-opacity:1"
       d="m 368.92583,185.98809 2.99686,2.71316 8.49113,-1.58268 -7.49216,-2.93925 -6.99269,1.80877 z"
       id="path939" />
    <path
       style="fill:#e3dfe3;fill-opacity:1;stroke:none;stroke-width:0.332674px;stroke-linecap:butt;stroke-linejoin:miter;stroke-opacity:1"
       d="m 231.64195,230.86837 7.99162,-4.74803 h -15.98331 l 6.99272,2.26097 z"
       id="path941" />
    <path
       style="fill:#514b4a;fill-opacity:1;stroke:none;stroke-width:0.332674px;stroke-linecap:butt;stroke-linejoin:miter;stroke-opacity:1"
       d="m 480.19608,188.14465 2.49737,3.39145 4.49529,-3.61755 z"
       id="path943" />
    <path
       style="fill:#562f2f;fill-opacity:1;stroke:none;stroke-width:0.229549px;stroke-linecap:butt;stroke-linejoin:miter;stroke-opacity:1"
       d="m 341.78871,218.46878 c 0,0 11.49456,-1.95529 12.70452,-1.42204 1.20994,0.53327 5.1423,4.62158 5.1423,4.62158 l -3.02488,6.22136 -11.19209,1.42203 -3.62985,-4.79933 0.30249,-4.44384 z"
       id="path945" />
  </g>
</svg>
