<?xml version="1.0" encoding="UTF-8" standalone="no"?>
<svg
   xmlns:dc="http://purl.org/dc/elements/1.1/"
   xmlns:cc="http://creativecommons.org/ns#"
   xmlns:rdf="http://www.w3.org/1999/02/22-rdf-syntax-ns#"
   xmlns:svg="http://www.w3.org/2000/svg"
   xmlns="http://www.w3.org/2000/svg"
   xmlns:sodipodi="http://sodipodi.sourceforge.net/DTD/sodipodi-0.dtd"
   xmlns:inkscape="http://www.inkscape.org/namespaces/inkscape"
   width="600"
   height="400"
   viewBox="0 0 158.75 105.83334"
   version="1.1"
   id="svg8"
   inkscape:version="1.0.1 (3bc2e813f5, 2020-09-07)"
   sodipodi:docname="Platform_stone_4.svg">
  <defs
     id="defs2" />
  <sodipodi:namedview
     id="base"
     pagecolor="#ffffff"
     bordercolor="#666666"
     borderopacity="1.0"
     inkscape:pageopacity="0.0"
     inkscape:pageshadow="2"
     inkscape:zoom="1.4"
     inkscape:cx="296.19598"
     inkscape:cy="188.39455"
     inkscape:document-units="mm"
     inkscape:current-layer="layer2"
     inkscape:document-rotation="0"
     showgrid="false"
     units="px"
     inkscape:window-width="1677"
     inkscape:window-height="1030"
     inkscape:window-x="128"
     inkscape:window-y="0"
     inkscape:window-maximized="0" />
  <metadata
     id="metadata5">
    <rdf:RDF>
      <cc:Work
         rdf:about="">
        <dc:format>image/svg+xml</dc:format>
        <dc:type
           rdf:resource="http://purl.org/dc/dcmitype/StillImage" />
        <dc:title></dc:title>
      </cc:Work>
    </rdf:RDF>
  </metadata>
  <g
     inkscape:groupmode="layer"
     id="layer3"
     inkscape:label="Warstwa 3" />
  <g
     inkscape:groupmode="layer"
     id="layer2"
     inkscape:label="Warstwa 2">
    <path
       style="fill:#a0a0a0;fill-opacity:1;stroke:#bdbdbd;stroke-width:1.52229px;stroke-linecap:butt;stroke-linejoin:miter;stroke-opacity:1"
       d="m 11.946721,30.251258 19.638834,31.380069 17.905885,3.718347 35.273885,7.99359 v 0 l 14.533451,0.987869 22.571054,-14.060328 c 0,0 10.0336,14.407389 9.37923,9.841719 -3.2508,-22.681547 12.07161,-19.471329 12.07161,-19.471329 l 2.56196,-21.308523 z"
       id="path841"
       sodipodi:nodetypes="cccccccsccc" />
    <path
       style="fill:#606060;fill-opacity:1;stroke:none;stroke-width:0.594912px;stroke-linecap:butt;stroke-linejoin:miter;stroke-opacity:1"
       d="m 11.946721,30.251258 11.139156,7.309366 c 0,0 5.184511,16.091036 5.554833,12.677785 0.370324,-3.413248 6.29548,-12.190178 6.29548,-12.190178 l 8.887734,9.264537 16.29418,-10.239751 c 0,0 23.330301,18.529073 24.811596,18.529073 1.481286,0 15.92385,-7.314109 15.92385,-7.314109 0,0 17.40515,-0.975213 18.88644,-1.950427 1.48129,-0.975214 26.14264,-17.004882 26.14264,-17.004882 z"
       id="path844" />
  </g>
  <g
     inkscape:label="Warstwa 1"
     inkscape:groupmode="layer"
     id="layer1">
    <rect
       style="fill:#b0b0b0;fill-opacity:1;stroke:none;stroke-width:0.165;stroke-linecap:round;stroke-opacity:1"
       id="rect848"
       width="0.13363476"
       height="1.3363476"
       x="133.188"
       y="163.33955"
       ry="0.06681738" />
    <rect
       style="fill:#b0b0b0;fill-opacity:1;stroke:none;stroke-width:0.143194;stroke-linecap:round;stroke-opacity:1"
       id="rect846"
       width="2.6311867"
       height="2.6711566"
       x="54.491741"
       y="84.134567"
       ry="0"
       transform="matrix(0.80078572,-0.59895094,0.44725898,0.8944045,0,0)" />
    <rect
       style="fill:#d5d5d5;fill-opacity:1;stroke:none;stroke-width:0.249493;stroke-linecap:round;stroke-opacity:1"
       id="rect849"
       width="5.3165383"
       height="4.0132122"
       x="48.583542"
       y="77.772408"
       ry="0"
       transform="matrix(0.93508376,-0.35442682,0.70238913,0.71179317,0,0)" />
  </g>
</svg>
