<?xml version="1.0" encoding="UTF-8" standalone="no"?>
<svg
   xmlns:osb="http://www.openswatchbook.org/uri/2009/osb"
   xmlns:dc="http://purl.org/dc/elements/1.1/"
   xmlns:cc="http://creativecommons.org/ns#"
   xmlns:rdf="http://www.w3.org/1999/02/22-rdf-syntax-ns#"
   xmlns:svg="http://www.w3.org/2000/svg"
   xmlns="http://www.w3.org/2000/svg"
   xmlns:xlink="http://www.w3.org/1999/xlink"
   xmlns:sodipodi="http://sodipodi.sourceforge.net/DTD/sodipodi-0.dtd"
   xmlns:inkscape="http://www.inkscape.org/namespaces/inkscape"
   width="1280"
   height="720"
   viewBox="0 0 338.66666 190.50001"
   version="1.1"
   id="svg8"
   inkscape:version="1.0.1 (3bc2e813f5, 2020-09-07)"
   sodipodi:docname="lampa.svg">
  <defs
     id="defs2">
    <linearGradient
       inkscape:collect="always"
       id="2-4">
      <stop
         style="stop-color:#ed6e40;stop-opacity:0.79677419"
         offset="0"
         id="stop3297" />
      <stop
         style="stop-color:#a7c412;stop-opacity:0.20564516"
         offset="1"
         id="stop3299" />
    </linearGradient>
    <linearGradient
       id="linearGradient1361"
       osb:paint="solid">
      <stop
         style="stop-color:#ed6e40;stop-opacity:1;"
         offset="0"
         id="stop1359" />
    </linearGradient>
    <inkscape:perspective
       sodipodi:type="inkscape:persp3d"
       inkscape:vp_x="0 : 95.250005 : 1"
       inkscape:vp_y="0 : 1000 : 0"
       inkscape:vp_z="338.66666 : 95.250005 : 1"
       inkscape:persp3d-origin="169.33333 : 63.500003 : 1"
       id="perspective835" />
    <linearGradient
       inkscape:collect="always"
       xlink:href="#2-4"
       id="linearGradient3305"
       x1="174.94714"
       y1="121.76206"
       x2="174.8866"
       y2="119.74222"
       gradientUnits="userSpaceOnUse"
       gradientTransform="matrix(0.7514591,0,0,0.82609066,40.167541,21.592655)" />
  </defs>
  <sodipodi:namedview
     id="base"
     pagecolor="#ffffff"
     bordercolor="#666666"
     borderopacity="1.0"
     inkscape:pageopacity="0.0"
     inkscape:pageshadow="2"
     inkscape:zoom="0.7"
     inkscape:cx="402.66466"
     inkscape:cy="301.30749"
     inkscape:document-units="mm"
     inkscape:current-layer="layer1"
     inkscape:document-rotation="0"
     showgrid="false"
     units="px"
     inkscape:window-width="1920"
     inkscape:window-height="1017"
     inkscape:window-x="-8"
     inkscape:window-y="-8"
     inkscape:window-maximized="1" />
  <metadata
     id="metadata5">
    <rdf:RDF>
      <cc:Work
         rdf:about="">
        <dc:format>image/svg+xml</dc:format>
        <dc:type
           rdf:resource="http://purl.org/dc/dcmitype/StillImage" />
        <dc:title></dc:title>
      </cc:Work>
    </rdf:RDF>
  </metadata>
  <g
     inkscape:groupmode="layer"
     id="layer2"
     inkscape:label="Warstwa 2">
    <g
       id="g1278"
       transform="matrix(-1.3122001,1.6634515,-2.1456955,0,928.95916,-314.11667)">
      <g
         id="g1295"
         transform="matrix(1.1691656,-0.21852014,0,0.81184378,-70.186612,137.83043)">
        <rect
           style="fill:#ad673a;fill-opacity:1;stroke:#7f4a2a;stroke-width:0.187315;stroke-linecap:round;stroke-linejoin:round;stroke-miterlimit:4;stroke-dasharray:none;stroke-opacity:1"
           id="rect1264"
           width="27.043697"
           height="5.7475619"
           x="246.42615"
           y="152.96326"
           ry="0" />
        <path
           style="fill:none;stroke:#c37a4b;stroke-width:0.164425;stroke-linecap:round;stroke-linejoin:miter;stroke-miterlimit:4;stroke-dasharray:none;stroke-opacity:1"
           d="m 246.98451,153.31752 v 0 c 0.0663,0.0334 0.37298,0.35123 0.5308,0.50112 0.11085,0.0837 0.24965,0.12305 0.36494,0.20045 0.33537,0.22515 0.69023,0.47448 1.06164,0.63477 0.27683,0.11948 0.57769,0.17164 0.86257,0.26727 0.25999,0.0873 0.55601,0.19944 0.8294,0.23386 0.0549,0.007 0.11166,-0.0109 0.16588,0 0.0584,0.0118 0.10748,0.055 0.16588,0.0668 0.10843,0.0218 0.22117,0 0.33176,0 h 0.89576 c 0.38978,0 0.77366,-7.9e-4 1.16116,-0.0334 0.1102,-0.009 0.22185,0.0123 0.33176,0 0.18452,-0.0206 0.381,-0.0385 0.56399,-0.0668 0.0902,-0.014 0.17492,-0.0554 0.2654,-0.0668 0.0878,-0.0111 0.17773,0.0118 0.26541,0 0.24071,-0.0323 0.49539,-0.12769 0.72987,-0.16704 0.17239,-0.0289 0.35775,0.0249 0.53082,0 0.0347,-0.005 0.0663,-0.0223 0.0995,-0.0334 0.0442,-0.0111 0.0875,-0.0277 0.1327,-0.0334 0.21714,-0.0273 0.0498,0.039 0.26541,-0.0334 0.15309,-0.0514 -0.0423,-0.0321 0.19907,-0.0668 0.2115,-0.0304 0.45051,0 0.66351,0 0.6045,0 1.22165,0.0357 1.82469,0 0.2558,-0.0152 0.50755,-0.0804 0.76305,-0.10023 0.26608,-0.0206 0.56309,-0.0179 0.82939,0 0.65153,0.0437 1.34384,0.0869 1.9574,0.33409 0.24044,0.0968 0.025,0.0399 0.29858,0.16704 0.11902,0.12718 0.29163,0.0774 0.43129,0.13363 0.0599,0.0241 0.1082,0.0712 0.16588,0.10023 0.17143,0.0863 0.17913,0.0557 0.36495,0.13363 0.43425,0.18221 0.82494,0.29474 1.29386,0.33409 0.19935,0.0167 0.3944,0.0561 0.59716,0.0334 0.15457,-0.0173 0.35115,-0.037 0.49763,-0.10023 0.0366,-0.0158 0.0623,-0.0527 0.0995,-0.0668 0.15142,-0.0572 0.14262,-0.005 0.2654,-0.0668 0.0911,-0.0458 0.15152,-0.11286 0.23223,-0.16704 0.11165,-0.075 0.2516,-0.10183 0.36492,-0.16705 0.60297,-0.34695 -0.30194,0.11863 0.26543,-0.16704 0.35525,-0.17887 0.76961,-0.32205 1.16116,-0.4009 0.0946,-0.0191 0.20301,0.012 0.29857,0 0.27055,-0.0341 0.58699,-0.0731 0.86257,-0.0334 0.14588,0.021 0.28351,0.0853 0.4313,0.10022 0.24293,0.0245 0.48836,0.0398 0.72989,0.0668 0.0695,0.008 0.13006,0.0552 0.19906,0.0668 0.16139,0.0271 0.33623,-0.0271 0.49763,0 0.14364,0.0241 0.62637,0.0917 0.76305,0 0.0493,-0.033 0.11074,-0.0817 0.16586,-0.10023 0.007,-0.002 0.12168,0.0111 0.13272,0 0.008,-0.008 -0.008,-0.0255 0,-0.0334 0.0348,-0.035 0.1407,-0.0415 0.16589,-0.0668 0.008,-0.008 -0.008,-0.0255 0,-0.0334 0.0155,-0.0158 0.0507,0.0157 0.0663,0 0.0686,-0.0691 -0.10488,0.003 0.0332,-0.0668 0.0443,-0.0223 0.10781,0.008 0.13268,-0.0668 0.007,-0.0211 -0.01,-0.0469 0,-0.0668 0.0443,-0.0891 0.0332,0.10023 0.0332,-0.0334"
           id="path1266"
           sodipodi:nodetypes="cccssscccsscssscssccssssscccsscsssssscsscsscssscscscscccc" />
        <path
           style="fill:none;stroke:#c37a4b;stroke-width:0.164425;stroke-linecap:round;stroke-linejoin:miter;stroke-miterlimit:4;stroke-dasharray:none;stroke-opacity:1"
           d="m 246.68593,154.78751 c 0.50833,0.4477 1.30124,0.54027 1.92421,0.76839 0.28027,0.10263 0.54933,0.21086 0.8294,0.26727 0.34079,0.0686 0.63298,0.30148 0.96211,0.4009 0.27649,0.0835 0.64501,0.0716 0.92893,0.10023 0.11221,0.0113 0.21937,0.0574 0.33176,0.0668 0.20577,0.0173 0.4236,0 0.63034,0 0.37673,0 0.75743,0.0199 1.12799,-0.0334 0.24886,-0.0358 0.51521,0.0416 0.76305,0 0.262,-0.044 -0.0597,-0.0334 0.19905,-0.0334 0.23474,0 0.49946,-0.0387 0.72988,0 0.20966,0.0352 0.41996,0.07 0.63035,0.10023 0.30671,0.0441 0.65149,0 0.9621,0 0.0971,0 0.23426,0.0196 0.33176,0 0.19,-0.0383 0.36848,-0.11176 0.56399,-0.13364 0.077,-0.009 0.15587,0.0128 0.23223,0 0.15961,-0.0268 0.33121,-0.0544 0.49764,-0.0334 0.16252,0.0205 0.3103,0.0871 0.46447,0.13364 0.054,0.0163 0.11059,0.0223 0.16588,0.0334 0.0663,0.0111 0.13463,0.0139 0.19905,0.0334 0.0474,0.0143 0.0853,0.0525 0.13271,0.0668 0.0271,0.008 0.32386,0.0491 0.36493,0.0668 0.0287,0.0124 0.0367,0.0569 0.0663,0.0668 0.19829,0.0666 0.0665,-0.0667 0.23223,0.0334 0.0268,0.0162 0.0392,0.0512 0.0663,0.0668 0.24905,0.14331 0.53867,0.2044 0.79621,0.33408 0.16691,0.084 0.32796,0.1896 0.49765,0.26727 0.10221,0.0468 0.3312,0.10004 0.43129,0.13364 0.67856,0.22777 1.40943,0.33408 2.12326,0.33408 0.23368,0 0.36203,-0.13285 0.564,-0.18375 0.051,-0.0128 0.61376,-0.21715 0.61376,-0.21715 0.0211,-0.0282 0,0 0,0 0.0171,-0.0344 0.40655,-0.11284 0.44785,-0.13364 0.0697,-0.0351 0.13221,-0.0329 0.19905,-0.10022 0.0176,-0.0176 0.0126,-0.053 0.0332,-0.0668 0.15768,-0.10586 -0.0279,0.12831 0.13271,-0.0334 0.0176,-0.0176 0.0158,-0.0492 0.0332,-0.0668 0.0828,-0.0833 0.23163,-0.13343 0.33176,-0.16704 0.0381,-0.0128 0.0461,-0.0798 0.0663,-0.10022 0.0152,-0.0155 0.0794,0.0101 0.0995,0 0.10673,-0.0538 0.12557,-0.19327 0.19905,-0.26727 0.12949,-0.13039 0.0179,0.008 0.0995,-0.0334 0.0322,-0.0162 0.12517,-0.11998 0.16587,-0.13364 0.0211,-0.007 0.0454,0.007 0.0663,0 0.0445,-0.0149 0.062,-0.0719 0.0995,-0.10023 0.0584,-0.0441 0.14067,-0.0561 0.19905,-0.10022 0.0991,-0.0748 0.21269,-0.18078 0.29858,-0.26727 0.0686,-0.0691 -0.10488,0.003 0.0332,-0.0668 0.0765,-0.0385 0.137,-0.0356 0.19905,-0.0668 0.0716,-0.036 0.11188,-0.11169 0.19906,-0.13364 0.067,-0.0169 0.13141,-0.0498 0.19905,-0.0668 0.13533,-0.0341 0.29435,0.0276 0.43129,0 0.13052,-0.0263 0.21963,-0.0334 0.36495,-0.0334 0.18226,0 0.38384,0.0259 0.56399,0 0.2011,-0.0289 0.36224,-0.0406 0.56398,0 0.0434,0.009 0.0908,-0.0141 0.13271,0 0.1017,0.0341 0.22866,0.12255 0.33176,0.16705 0.16726,0.0722 0.35439,0.0647 0.53082,0.10022 0.059,0.0119 0.11641,0.0502 0.16589,0.0668 0.14104,0.0473 0.53255,0.0999 0.69668,0.0668 0.0904,-0.0182 0.32859,-0.0938 0.36495,-0.16704 0.01,-0.0199 -0.007,-0.0457 0,-0.0668 0.005,-0.0148 0.0938,-0.12786 0.0995,-0.13364 0.0166,-0.0167 0.0498,-0.0167 0.0663,-0.0334 0.008,-0.008 -0.008,-0.0255 0,-0.0334 0.074,-0.0744 0.68008,-0.16705 0.82939,-0.16705"
           id="path1268"
           sodipodi:nodetypes="csssscsssssssccssscscscsssssssscscsccsccsccsscscsscsssccsssscccscc" />
        <path
           style="fill:none;stroke:#c37a4b;stroke-width:0.164425;stroke-linecap:round;stroke-linejoin:miter;stroke-miterlimit:4;stroke-dasharray:none;stroke-opacity:1"
           d="m 257.13638,155.28863 c 0.19807,-0.0637 0.39658,-0.0714 0.59718,-0.10022 0.12199,-0.0175 0.24386,-0.0758 0.36493,-0.10023 0.065,-0.0131 0.13337,0.009 0.19906,0 0.4536,-0.0653 0.89319,-0.0668 1.36021,-0.0668 h 1.06164 c 0.10392,0 0.33598,-0.048 0.43129,0 0.0451,0.0227 0.0876,0.0775 0.13271,0.10023 0.0341,0.0171 0.0987,0.0163 0.13269,0.0334 0.0423,0.0213 0.0889,0.0855 0.13271,0.10022 0.0788,0.0265 0.0603,-0.0395 0.1327,0.0334 0.008,0.008 -0.01,0.0284 0,0.0334 0.0579,0.0291 0.24853,0.0498 0.29859,0.10023 0.008,0.008 -0.008,0.0255 0,0.0334 0.0215,0.0216 0.48811,0.21952 0.53082,0.23386 0.042,0.0141 0.0908,-0.0141 0.1327,0 0.24697,0.0829 0.44876,0.10022 0.72987,0.10022 0.0944,0 0.31212,-0.0433 0.39811,0 0.22951,0.11555 0.50344,0.19611 0.76306,0.30068 0.0912,0.0367 0.20811,0.0365 0.29857,0.0668 0.0297,0.01 0.0367,0.0569 0.0663,0.0668 0.0315,0.0106 0.0761,-0.0236 0.0995,0 0.008,0.008 -0.01,0.0284 0,0.0334 0.0313,0.0157 0.0663,0.0223 0.0995,0.0334 0.007,0.002 0.12165,-0.0111 0.13271,0 0.0166,0.0167 0.0166,0.0501 0.0332,0.0668 0.022,0.0222 0.43224,-0.0139 0.46447,-0.0334 0.0285,-0.0172 0.1825,-0.13363 0.19906,-0.13363 0.011,0 0.01,0.0284 0,0.0334 -0.0197,0.01 -0.0466,-0.01 -0.0663,0 -0.01,0.005 0.008,0.0255 0,0.0334 -0.032,0.0322 -0.043,0.0199 -0.0663,0.0668 -0.026,0.0522 -0.10158,0.0375 -0.13268,0.10023 -0.01,0.0199 0.0158,0.0511 0,0.0668 -0.0158,0.0157 -0.0466,-0.01 -0.0663,0 -0.0827,0.0416 -0.11644,0.0948 -0.23223,0.13363 -0.039,0.0131 -0.31096,0.0459 -0.33176,0.0668 -0.0155,0.0157 0.01,0.0469 0,0.0668 -0.0147,0.0299 -0.068,-0.0106 -0.0995,0 -0.0632,0.0212 -0.10427,0.11296 -0.16586,0.13363 -0.0813,0.0273 -0.15762,0.006 -0.26542,0.0334 -0.0612,0.0154 -0.0845,0.0426 -0.13268,0.0668 -0.11947,0.0601 -0.28243,0.0754 -0.39814,0.13364 -0.0695,0.035 -0.84799,0 -0.99527,0 -0.15701,0 -0.56395,0.0446 -0.69669,0 -0.13218,-0.0444 -0.24028,-0.10428 -0.36495,-0.16704 -0.0204,-0.0103 -0.1204,-0.021 -0.13269,-0.0334 -0.0166,-0.0167 -0.0166,-0.0501 -0.0332,-0.0668 -0.0252,-0.0254 -0.13108,-0.0159 -0.16588,-0.0334 -0.0221,-0.0111 -0.011,-0.0557 -0.0332,-0.0668 -0.0198,-0.01 -0.0454,0.007 -0.0663,0 -0.0344,-0.0115 -0.0666,-0.0503 -0.0995,-0.0668 -0.0962,-0.0484 -0.20336,-0.0683 -0.29858,-0.10023 -0.0319,-0.0107 -0.0603,-0.0638 -0.0663,-0.0668 -0.0365,-0.0184 -0.0938,0.0131 -0.13271,0 -0.24031,-0.0807 0.0523,0.01 -0.0995,-0.0668 -0.0201,-0.0101 -0.0842,0.0154 -0.0995,0 -0.008,-0.008 0.01,-0.0284 0,-0.0334 -0.25286,-0.12732 0.19423,0.20834 -0.16588,-0.0334 -0.009,-0.006 0.008,-0.0255 0,-0.0334 -0.0678,-0.0683 -0.18896,-0.0746 -0.2654,-0.10023 -0.0297,-0.01 -0.0367,-0.0569 -0.0663,-0.0668 -0.0555,-0.0187 -0.29511,-0.0484 -0.33176,-0.0668 -0.028,-0.0141 -0.0383,-0.0527 -0.0663,-0.0668 -0.0198,-0.01 -0.0449,0.005 -0.0663,0 -0.0601,0.0201 -0.0617,-0.0541 -0.0995,-0.0668 -0.0315,-0.0105 -0.0698,0.0149 -0.0995,0 -0.0701,0.009 -0.0126,-0.053 -0.0332,-0.0668 -0.0803,-0.054 -0.39378,-0.10023 -0.49764,-0.10023 -0.0633,0 -0.13121,-0.0532 -0.19906,-0.0668 -0.049,-0.01 -0.14839,0.017 -0.19906,0 -0.0148,-0.005 -0.0179,-0.0303 -0.0332,-0.0334 -0.12553,-0.0253 -0.27374,0.0313 -0.39812,0 -0.21852,-0.055 -0.43358,-0.12846 -0.66352,-0.16705 -0.0545,-0.009 -0.11642,0.0249 -0.16588,0 -0.0222,-0.0111 -0.011,-0.0557 -0.0332,-0.0668 -0.0201,-0.0101 -0.0842,0.0155 -0.0995,0 -0.0166,-0.0167 -0.0166,-0.0501 -0.0332,-0.0668 -0.008,-0.008 -0.0305,0.0108 -0.0332,0 -0.0107,-0.0432 0,-0.0891 0,-0.13364 z"
           id="path1270"
           sodipodi:nodetypes="csscssssssssscscsssscsccsssscscscscscccsccssssssscscsccsssscscsscscsscscscsscsscc" />
        <path
           style="fill:none;stroke:#c37a4b;stroke-width:0.164425;stroke-linecap:round;stroke-linejoin:miter;stroke-miterlimit:4;stroke-dasharray:none;stroke-opacity:1"
           d="m 259.52523,155.99022 c 0.0552,-0.16705 0.0758,-0.35014 0.16571,-0.50114 0.0182,-0.0305 0.43064,0.0583 0.46446,0.0668 0.0304,0.008 0.0367,0.0569 0.0663,0.0668 0.0718,0.0241 0.11928,0.0266 0.19905,0.0668 0.0198,0.01 0.0466,-0.01 0.0663,0 0.0529,0.0266 0.32773,0.23251 0.33175,0.23386 0.062,0.0208 0.11026,0.0108 0.16589,0.0668 0.008,0.008 -0.008,0.0255 0,0.0334 0.0369,0.0373 0.15212,0.01 0.19905,0.0334 0.0162,0.008 0.26448,0.19951 0.26541,0.20045 0.008,0.008 -0.008,0.0255 0,0.0334 0.069,0.0695 0.24688,0.0575 0.33177,0.10023 0.0356,0.018 0.0625,0.0519 0.0995,0.0668 0.20276,0.0817 0.46823,0.0619 0.6967,0.10022 0.0235,0.004 0.10674,-0.0131 0.1327,0 0.0288,0.0145 0.23029,0.0649 0.23223,0.0668 0.008,0.008 -0.01,0.0284 0,0.0334 0.032,0.0161 0.7202,0.0766 0.72988,0.0668 0.008,-0.008 -0.008,-0.0255 0,-0.0334 0.0156,-0.0157 0.0507,0.0157 0.0663,0 0.008,-0.008 -0.008,-0.0255 0,-0.0334 0.011,-0.0111 0.0885,-0.0223 0.0995,-0.0334 0.005,-0.005 0.005,-0.12843 0,-0.13363 -0.0166,-0.0167 -0.0829,0.0167 -0.0995,0 -0.0443,-0.0446 0.0553,-0.0334 -0.0332,-0.0334 -0.0603,0 -0.51311,-0.0245 -0.53081,-0.0334 -0.014,-0.007 -0.018,-0.0296 -0.0332,-0.0334 -0.12207,-0.0307 -0.27899,0.04 -0.39811,0 -0.0697,-0.0234 -0.13815,-0.0464 -0.19905,-0.0668 -0.042,-0.0141 -0.0894,0.009 -0.13271,0 -0.12292,-0.0248 -0.24628,-0.0703 -0.36494,-0.10023 -0.17902,-0.0451 -0.33043,-0.17773 -0.49764,-0.23386 -0.0398,-0.0134 -0.0928,0.0134 -0.13271,0 -0.0647,-0.0217 -0.2296,-0.0976 -0.2654,-0.13363 -0.008,-0.008 0.0105,-0.0299 0,-0.0334 -0.14064,-0.0472 -0.0549,0.003 -0.19906,-0.0334 -0.0229,-0.006 -0.11997,-0.0848 -0.16588,-0.10022 -0.0907,-0.0304 -0.17328,-0.0148 -0.2654,-0.0334 -0.20474,-0.0412 -0.23997,-0.10023 -0.46447,-0.10023 -0.0664,0 -0.63854,-0.0399 -0.63035,0.0668 0.01,0.12661 0.0664,0.245 0.0997,0.3675"
           id="path1272"
           sodipodi:nodetypes="csccscssccscscsscsscscsccsscsscsscsccscscc" />
        <path
           style="fill:none;stroke:#c37a4b;stroke-width:0.164425;stroke-linecap:round;stroke-linejoin:miter;stroke-miterlimit:4;stroke-dasharray:none;stroke-opacity:1"
           d="m 248.87555,153.41775 c 0.19382,0.40121 0.84512,0.47036 1.22751,0.53454 0.33917,0.0569 0.65267,0.11063 0.99528,0.13363 0.49769,0.0334 0.99304,0.0334 1.49293,0.0334 0.37701,0 0.75717,0.02 1.12799,-0.0334 0.16613,-0.0239 0.36385,0 0.53081,0 0.52515,0 1.06942,0.0439 1.59245,0 0.22136,-0.0186 0.44151,-0.0496 0.66352,-0.0668 0.49464,-0.0383 0.99763,0.0293 1.49293,0 0.25517,-0.0151 0.50937,-0.0413 0.76305,-0.0668 0.088,-0.009 0.17747,0.01 0.2654,0 0.412,-0.0461 -0.12491,-0.0292 0.39811,-0.0668 0.23374,-0.0168 0.46279,-0.012 0.6967,-0.0334 0.41168,-0.0377 0.84702,0 1.26069,0 0.29872,0 0.63284,-0.0426 0.92893,0 0.0864,-0.0387 0.13007,0.0552 0.19906,0.0668 0.39811,0.0668 -0.0332,-0.0334 0.19905,0 0.23117,0.0333 0.43658,0.16236 0.66352,0.20045 0.0328,0.006 0.068,-0.0106 0.0995,0 0.0378,0.0127 0.0626,0.0519 0.0995,0.0668 0.26067,0.10499 0.55948,0.0215 0.8294,0.0668 0.0345,0.006 0.0647,0.0299 0.0995,0.0334 0.47067,0.0474 1.15795,0.0137 1.62563,-0.0334 0.29035,-0.0292 0.57298,-0.13464 0.86258,-0.16704 0.0879,-0.01 0.17764,0.0111 0.26542,0 0.25373,-0.0319 0.50911,-0.0718 0.76305,-0.10023 0.2124,-0.0238 0.42312,0.008 0.63034,-0.0334 0.0686,-0.0138 0.13048,-0.053 0.19905,-0.0668 0.0542,-0.0109 0.11114,0.008 0.16587,0 0.22402,-0.0322 0.44525,-0.10424 0.66353,-0.16705 0.0752,-0.0216 0.15807,-0.009 0.23224,-0.0334 0.0378,-0.0127 0.0639,-0.0489 0.0995,-0.0668 0.14499,-0.073 0.31285,-0.0697 0.46447,-0.10023 0.0485,-0.01 0.0847,-0.0547 0.13269,-0.0668 0.11261,-0.0283 0.24943,-0.014 0.36495,-0.0334 0.11789,-0.0198 0.21535,-0.0768 0.33176,-0.10023 0.0851,-0.0171 0.18034,0.0171 0.26542,0 0.38005,-0.0765 0.7363,-0.10023 1.12798,-0.10023 0.0845,0 0.41573,0.003 0.43128,-0.0334 0.0822,-0.19052 -0.0729,0.19436 0,0"
           id="path1274"
           sodipodi:nodetypes="cssssssssccsssccscsscssccscscsccccsscscc" />
        <path
           style="fill:none;stroke:#c37a4b;stroke-width:0.164425;stroke-linecap:round;stroke-linejoin:miter;stroke-miterlimit:4;stroke-dasharray:none;stroke-opacity:1"
           d="m 246.63616,157.30986 c 0.37272,-0.0289 0.74525,-0.64075 1.8081,-0.75168 0.83689,-0.0873 0.32252,0.0112 1.2607,0.0668 0.32397,0.0192 0.64064,0.001 0.9621,0.0334 0.35036,0.0353 0.71069,-0.0294 1.06162,0 0.28635,0.024 0.57852,0.0311 0.86259,0.0668 0.1851,0.0233 0.37888,-0.0233 0.56399,0 0.11227,0.0141 0.22156,0.051 0.33176,0.0668 0.11921,0.0171 0.24572,-0.0171 0.36494,0 0.0692,0.01 0.12965,0.0581 0.19905,0.0668 0.3311,0.0417 0.66674,0.053 0.99528,0.10023 0.20592,0.0296 0.42443,-0.0296 0.63035,0 0.27776,0.04 0.55604,0.0452 0.8294,0.10022 0.2535,0.0511 0.54588,-0.063 0.79622,0 0.32848,0.0827 0.65627,0.12437 0.99529,0.16705 0.0694,0.009 0.12981,0.0568 0.19906,0.0668 0.14471,0.0208 0.29133,0.0433 0.43128,0.0668 0.0764,0.0128 0.15633,-0.0153 0.23223,0 0.0666,0.0134 0.55684,0.13658 0.59718,0.16705 0.0726,0.0549 0.17217,0.1848 0.26541,0.20045 0.0922,0.0155 0.20935,0.003 0.29858,0.0334 0.1327,0.0445 -0.007,0.032 0.16588,0.0668 0.12987,0.0262 0.29734,0 0.43128,0 0.21492,0 0.40145,10e-4 0.59718,0.0668 0.0432,0.0145 0.12827,-0.008 0.16587,0 0.0594,0.012 0.0865,0.0435 0.13271,0.0668 0.0933,0.0469 0.26461,-0.0171 0.36493,0.0334 0.0793,0.0399 0.39981,0.15473 0.49764,0.16704 0.0549,0.007 0.11134,-0.009 0.16589,0 0.0659,0.0111 0.13868,0.0698 0.19906,0.10023 0.0262,0.0132 0.0716,-0.009 0.0995,0 0.1594,0.0535 0.30549,0.0348 0.46447,0.0668 0.39442,0.0794 -0.2625,-0.0162 0.23224,0.0668 0.40625,0.0682 0.72183,-0.10445 1.09479,-0.16704 0.18463,-0.031 0.37924,-0.002 0.564,-0.0334 0.18218,-0.0306 0.34216,-0.13364 0.53082,-0.13364 0.15777,0 0.28257,-0.10368 0.43128,-0.13363 0.12207,-0.0246 0.24341,-0.0464 0.36495,-0.0668 0.12678,-0.0213 0.24306,-0.10295 0.36493,-0.13363 0.0215,-0.005 0.0458,0.008 0.0663,0 0.2568,-0.10345 0.47937,-0.31989 0.76305,-0.3675 0.0953,-0.016 0.20536,-0.01 0.29858,-0.0334 0.20927,-0.0527 0.10727,-0.0761 0.29858,-0.10022 0.17593,-0.0221 0.35415,-0.0172 0.53081,-0.0334 0.10156,-0.009 0.19714,-0.0566 0.29859,-0.0668 0.099,-0.01 0.19968,0.0111 0.2986,0 0.39939,-0.0447 0.78935,-0.0668 1.19432,-0.0668 0.48777,0 0.0113,0.0153 0.39813,-0.0334 0.43832,-0.0552 0.85851,0.0428 1.29386,-0.0668 0.10407,-0.0262 0.22767,0.0262 0.33177,0 0.0781,-0.0196 0.11647,-0.0334 0.19905,-0.0334 h 0.16587"
           id="path1276"
           sodipodi:nodetypes="csssssssccsccsccsssscsssccsccscssscsssccscccscsssssc" />
      </g>
    </g>
  </g>
  <g
     inkscape:label="Warstwa 1"
     inkscape:groupmode="layer"
     id="layer1">
    <g
       sodipodi:type="inkscape:box3d"
       id="g837"
       style="fill:#000000;fill-opacity:0;stroke:#606c68;stroke-width:1.00157;stroke-linecap:round;stroke-linejoin:round"
       inkscape:perspectiveID="#perspective835"
       inkscape:corner0="3.3997756 : -0.019705726 : 0 : 1"
       inkscape:corner7="-0.35743643 : -0.21944917 : 0.25 : 1">
      <path
         sodipodi:type="inkscape:box3dside"
         id="path849"
         style="fill:#e9e9ff;fill-rule:evenodd;stroke:none;stroke-linejoin:round"
         inkscape:box3dsidetype="11"
         d="M 54.626292,106.31628 284.57357,152.89937 V 376.68559 L 54.626292,149.27393 Z"
         points="284.57357,152.89937 284.57357,376.68559 54.626292,149.27393 54.626292,106.31628 " />
      <path
         sodipodi:type="inkscape:box3dside"
         id="path839"
         style="fill:#353564;fill-rule:evenodd;stroke:none;stroke-linejoin:round"
         inkscape:box3dsidetype="6"
         d="m 38.486811,106.94508 v 45.39855 l 16.139481,-3.0697 v -42.95765 z"
         points="38.486811,152.34363 54.626292,149.27393 54.626292,106.31628 38.486811,106.94508 " />
      <path
         sodipodi:type="inkscape:box3dside"
         id="path847"
         style="fill:#afafde;fill-rule:evenodd;stroke:none;stroke-linejoin:round"
         inkscape:box3dsidetype="13"
         d="M 38.486811,152.34363 263.52775,486.18277 284.57357,376.68559 54.626292,149.27393 Z"
         points="263.52775,486.18277 284.57357,376.68559 54.626292,149.27393 38.486811,152.34363 " />
      <path
         sodipodi:type="inkscape:box3dside"
         id="path841"
         style="fill:#4d4d9f;fill-rule:evenodd;stroke:none;stroke-linejoin:round"
         inkscape:box3dsidetype="5"
         d="M 38.486811,106.94508 263.52775,175.32881 284.57357,152.89937 54.626292,106.31628 Z"
         points="263.52775,175.32881 284.57357,152.89937 54.626292,106.31628 38.486811,106.94508 " />
      <path
         sodipodi:type="inkscape:box3dside"
         id="path845"
         style="fill:#d7d7ff;fill-rule:evenodd;stroke:none;stroke-linejoin:round"
         inkscape:box3dsidetype="14"
         d="M 263.52775,175.32881 V 486.18277 L 284.57357,376.68559 V 152.89937 Z"
         points="263.52775,486.18277 284.57357,376.68559 284.57357,152.89937 263.52775,175.32881 " />
      <path
         sodipodi:type="inkscape:box3dside"
         id="path843"
         style="fill:#8686bf;fill-rule:evenodd;stroke:none;stroke-linejoin:round"
         inkscape:box3dsidetype="3"
         d="M 38.486811,106.94508 263.52775,175.32881 V 486.18277 L 38.486811,152.34363 Z"
         points="263.52775,175.32881 263.52775,486.18277 38.486811,152.34363 38.486811,106.94508 " />
    </g>
    <g
       id="g1244"
       transform="matrix(0,3.1721389,1.9729497,0,-45.853061,-752.06988)">
      <rect
         style="fill:#ad673a;fill-opacity:1;stroke:#7f4a2a;stroke-width:0.187315;stroke-linecap:round;stroke-linejoin:round;stroke-miterlimit:4;stroke-dasharray:none;stroke-opacity:1"
         id="rect1175"
         width="27.043697"
         height="5.7475619"
         x="246.42615"
         y="152.96326"
         ry="0" />
      <path
         style="fill:none;stroke:#c37a4b;stroke-width:0.164425;stroke-linecap:round;stroke-linejoin:miter;stroke-miterlimit:4;stroke-dasharray:none;stroke-opacity:1"
         d="m 246.98451,153.31752 v 0 c 0.0663,0.0334 0.37298,0.35123 0.5308,0.50112 0.11085,0.0837 0.24965,0.12305 0.36494,0.20045 0.33537,0.22515 0.69023,0.47448 1.06164,0.63477 0.27683,0.11948 0.57769,0.17164 0.86257,0.26727 0.25999,0.0873 0.55601,0.19944 0.8294,0.23386 0.0549,0.007 0.11166,-0.0109 0.16588,0 0.0584,0.0118 0.10748,0.055 0.16588,0.0668 0.10843,0.0218 0.22117,0 0.33176,0 h 0.89576 c 0.38978,0 0.77366,-7.9e-4 1.16116,-0.0334 0.1102,-0.009 0.22185,0.0123 0.33176,0 0.18452,-0.0206 0.381,-0.0385 0.56399,-0.0668 0.0902,-0.014 0.17492,-0.0554 0.2654,-0.0668 0.0878,-0.0111 0.17773,0.0118 0.26541,0 0.24071,-0.0323 0.49539,-0.12769 0.72987,-0.16704 0.17239,-0.0289 0.35775,0.0249 0.53082,0 0.0347,-0.005 0.0663,-0.0223 0.0995,-0.0334 0.0442,-0.0111 0.0875,-0.0277 0.1327,-0.0334 0.21714,-0.0273 0.0498,0.039 0.26541,-0.0334 0.15309,-0.0514 -0.0423,-0.0321 0.19907,-0.0668 0.2115,-0.0304 0.45051,0 0.66351,0 0.6045,0 1.22165,0.0357 1.82469,0 0.2558,-0.0152 0.50755,-0.0804 0.76305,-0.10023 0.26608,-0.0206 0.56309,-0.0179 0.82939,0 0.65153,0.0437 1.34384,0.0869 1.9574,0.33409 0.24044,0.0968 0.025,0.0399 0.29858,0.16704 0.11902,0.12718 0.29163,0.0774 0.43129,0.13363 0.0599,0.0241 0.1082,0.0712 0.16588,0.10023 0.17143,0.0863 0.17913,0.0557 0.36495,0.13363 0.43425,0.18221 0.82494,0.29474 1.29386,0.33409 0.19935,0.0167 0.3944,0.0561 0.59716,0.0334 0.15457,-0.0173 0.35115,-0.037 0.49763,-0.10023 0.0366,-0.0158 0.0623,-0.0527 0.0995,-0.0668 0.15142,-0.0572 0.14262,-0.005 0.2654,-0.0668 0.0911,-0.0458 0.15152,-0.11286 0.23223,-0.16704 0.11165,-0.075 0.2516,-0.10183 0.36492,-0.16705 0.60297,-0.34695 -0.30194,0.11863 0.26543,-0.16704 0.35525,-0.17887 0.76961,-0.32205 1.16116,-0.4009 0.0946,-0.0191 0.20301,0.012 0.29857,0 0.27055,-0.0341 0.58699,-0.0731 0.86257,-0.0334 0.14588,0.021 0.28351,0.0853 0.4313,0.10022 0.24293,0.0245 0.48836,0.0398 0.72989,0.0668 0.0695,0.008 0.13006,0.0552 0.19906,0.0668 0.16139,0.0271 0.33623,-0.0271 0.49763,0 0.14364,0.0241 0.62637,0.0917 0.76305,0 0.0493,-0.033 0.11074,-0.0817 0.16586,-0.10023 0.007,-0.002 0.12168,0.0111 0.13272,0 0.008,-0.008 -0.008,-0.0255 0,-0.0334 0.0348,-0.035 0.1407,-0.0415 0.16589,-0.0668 0.008,-0.008 -0.008,-0.0255 0,-0.0334 0.0155,-0.0158 0.0507,0.0157 0.0663,0 0.0686,-0.0691 -0.10488,0.003 0.0332,-0.0668 0.0443,-0.0223 0.10781,0.008 0.13268,-0.0668 0.007,-0.0211 -0.01,-0.0469 0,-0.0668 0.0443,-0.0891 0.0332,0.10023 0.0332,-0.0334"
         id="path1225"
         sodipodi:nodetypes="cccssscccsscssscssccssssscccsscsssssscsscsscssscscscscccc" />
      <path
         style="fill:none;stroke:#c37a4b;stroke-width:0.164425;stroke-linecap:round;stroke-linejoin:miter;stroke-miterlimit:4;stroke-dasharray:none;stroke-opacity:1"
         d="m 246.68593,154.78751 c 0.50833,0.4477 1.30124,0.54027 1.92421,0.76839 0.28027,0.10263 0.54933,0.21086 0.8294,0.26727 0.34079,0.0686 0.63298,0.30148 0.96211,0.4009 0.27649,0.0835 0.64501,0.0716 0.92893,0.10023 0.11221,0.0113 0.21937,0.0574 0.33176,0.0668 0.20577,0.0173 0.4236,0 0.63034,0 0.37673,0 0.75743,0.0199 1.12799,-0.0334 0.24886,-0.0358 0.51521,0.0416 0.76305,0 0.262,-0.044 -0.0597,-0.0334 0.19905,-0.0334 0.23474,0 0.49946,-0.0387 0.72988,0 0.20966,0.0352 0.41996,0.07 0.63035,0.10023 0.30671,0.0441 0.65149,0 0.9621,0 0.0971,0 0.23426,0.0196 0.33176,0 0.19,-0.0383 0.36848,-0.11176 0.56399,-0.13364 0.077,-0.009 0.15587,0.0128 0.23223,0 0.15961,-0.0268 0.33121,-0.0544 0.49764,-0.0334 0.16252,0.0205 0.3103,0.0871 0.46447,0.13364 0.054,0.0163 0.11059,0.0223 0.16588,0.0334 0.0663,0.0111 0.13463,0.0139 0.19905,0.0334 0.0474,0.0143 0.0853,0.0525 0.13271,0.0668 0.0271,0.008 0.32386,0.0491 0.36493,0.0668 0.0287,0.0124 0.0367,0.0569 0.0663,0.0668 0.19829,0.0666 0.0665,-0.0667 0.23223,0.0334 0.0268,0.0162 0.0392,0.0512 0.0663,0.0668 0.24905,0.14331 0.53867,0.2044 0.79621,0.33408 0.16691,0.084 0.32796,0.1896 0.49765,0.26727 0.10221,0.0468 0.3312,0.10004 0.43129,0.13364 0.67856,0.22777 1.40943,0.33408 2.12326,0.33408 0.23368,0 0.36203,-0.13285 0.564,-0.18375 0.051,-0.0128 0.61376,-0.21715 0.61376,-0.21715 0.0211,-0.0282 0,0 0,0 0.0171,-0.0344 0.40655,-0.11284 0.44785,-0.13364 0.0697,-0.0351 0.13221,-0.0329 0.19905,-0.10022 0.0176,-0.0176 0.0126,-0.053 0.0332,-0.0668 0.15768,-0.10586 -0.0279,0.12831 0.13271,-0.0334 0.0176,-0.0176 0.0158,-0.0492 0.0332,-0.0668 0.0828,-0.0833 0.23163,-0.13343 0.33176,-0.16704 0.0381,-0.0128 0.0461,-0.0798 0.0663,-0.10022 0.0152,-0.0155 0.0794,0.0101 0.0995,0 0.10673,-0.0538 0.12557,-0.19327 0.19905,-0.26727 0.12949,-0.13039 0.0179,0.008 0.0995,-0.0334 0.0322,-0.0162 0.12517,-0.11998 0.16587,-0.13364 0.0211,-0.007 0.0454,0.007 0.0663,0 0.0445,-0.0149 0.062,-0.0719 0.0995,-0.10023 0.0584,-0.0441 0.14067,-0.0561 0.19905,-0.10022 0.0991,-0.0748 0.21269,-0.18078 0.29858,-0.26727 0.0686,-0.0691 -0.10488,0.003 0.0332,-0.0668 0.0765,-0.0385 0.137,-0.0356 0.19905,-0.0668 0.0716,-0.036 0.11188,-0.11169 0.19906,-0.13364 0.067,-0.0169 0.13141,-0.0498 0.19905,-0.0668 0.13533,-0.0341 0.29435,0.0276 0.43129,0 0.13052,-0.0263 0.21963,-0.0334 0.36495,-0.0334 0.18226,0 0.38384,0.0259 0.56399,0 0.2011,-0.0289 0.36224,-0.0406 0.56398,0 0.0434,0.009 0.0908,-0.0141 0.13271,0 0.1017,0.0341 0.22866,0.12255 0.33176,0.16705 0.16726,0.0722 0.35439,0.0647 0.53082,0.10022 0.059,0.0119 0.11641,0.0502 0.16589,0.0668 0.14104,0.0473 0.53255,0.0999 0.69668,0.0668 0.0904,-0.0182 0.32859,-0.0938 0.36495,-0.16704 0.01,-0.0199 -0.007,-0.0457 0,-0.0668 0.005,-0.0148 0.0938,-0.12786 0.0995,-0.13364 0.0166,-0.0167 0.0498,-0.0167 0.0663,-0.0334 0.008,-0.008 -0.008,-0.0255 0,-0.0334 0.074,-0.0744 0.68008,-0.16705 0.82939,-0.16705"
         id="path1227"
         sodipodi:nodetypes="csssscsssssssccssscscscsssssssscscsccsccsccsscscsscsssccsssscccscc" />
      <path
         style="fill:none;stroke:#c37a4b;stroke-width:0.164425;stroke-linecap:round;stroke-linejoin:miter;stroke-miterlimit:4;stroke-dasharray:none;stroke-opacity:1"
         d="m 257.13638,155.28863 c 0.19807,-0.0637 0.39658,-0.0714 0.59718,-0.10022 0.12199,-0.0175 0.24386,-0.0758 0.36493,-0.10023 0.065,-0.0131 0.13337,0.009 0.19906,0 0.4536,-0.0653 0.89319,-0.0668 1.36021,-0.0668 h 1.06164 c 0.10392,0 0.33598,-0.048 0.43129,0 0.0451,0.0227 0.0876,0.0775 0.13271,0.10023 0.0341,0.0171 0.0987,0.0163 0.13269,0.0334 0.0423,0.0213 0.0889,0.0855 0.13271,0.10022 0.0788,0.0265 0.0603,-0.0395 0.1327,0.0334 0.008,0.008 -0.01,0.0284 0,0.0334 0.0579,0.0291 0.24853,0.0498 0.29859,0.10023 0.008,0.008 -0.008,0.0255 0,0.0334 0.0215,0.0216 0.48811,0.21952 0.53082,0.23386 0.042,0.0141 0.0908,-0.0141 0.1327,0 0.24697,0.0829 0.44876,0.10022 0.72987,0.10022 0.0944,0 0.31212,-0.0433 0.39811,0 0.22951,0.11555 0.50344,0.19611 0.76306,0.30068 0.0912,0.0367 0.20811,0.0365 0.29857,0.0668 0.0297,0.01 0.0367,0.0569 0.0663,0.0668 0.0315,0.0106 0.0761,-0.0236 0.0995,0 0.008,0.008 -0.01,0.0284 0,0.0334 0.0313,0.0157 0.0663,0.0223 0.0995,0.0334 0.007,0.002 0.12165,-0.0111 0.13271,0 0.0166,0.0167 0.0166,0.0501 0.0332,0.0668 0.022,0.0222 0.43224,-0.0139 0.46447,-0.0334 0.0285,-0.0172 0.1825,-0.13363 0.19906,-0.13363 0.011,0 0.01,0.0284 0,0.0334 -0.0197,0.01 -0.0466,-0.01 -0.0663,0 -0.01,0.005 0.008,0.0255 0,0.0334 -0.032,0.0322 -0.043,0.0199 -0.0663,0.0668 -0.026,0.0522 -0.10158,0.0375 -0.13268,0.10023 -0.01,0.0199 0.0158,0.0511 0,0.0668 -0.0158,0.0157 -0.0466,-0.01 -0.0663,0 -0.0827,0.0416 -0.11644,0.0948 -0.23223,0.13363 -0.039,0.0131 -0.31096,0.0459 -0.33176,0.0668 -0.0155,0.0157 0.01,0.0469 0,0.0668 -0.0147,0.0299 -0.068,-0.0106 -0.0995,0 -0.0632,0.0212 -0.10427,0.11296 -0.16586,0.13363 -0.0813,0.0273 -0.15762,0.006 -0.26542,0.0334 -0.0612,0.0154 -0.0845,0.0426 -0.13268,0.0668 -0.11947,0.0601 -0.28243,0.0754 -0.39814,0.13364 -0.0695,0.035 -0.84799,0 -0.99527,0 -0.15701,0 -0.56395,0.0446 -0.69669,0 -0.13218,-0.0444 -0.24028,-0.10428 -0.36495,-0.16704 -0.0204,-0.0103 -0.1204,-0.021 -0.13269,-0.0334 -0.0166,-0.0167 -0.0166,-0.0501 -0.0332,-0.0668 -0.0252,-0.0254 -0.13108,-0.0159 -0.16588,-0.0334 -0.0221,-0.0111 -0.011,-0.0557 -0.0332,-0.0668 -0.0198,-0.01 -0.0454,0.007 -0.0663,0 -0.0344,-0.0115 -0.0666,-0.0503 -0.0995,-0.0668 -0.0962,-0.0484 -0.20336,-0.0683 -0.29858,-0.10023 -0.0319,-0.0107 -0.0603,-0.0638 -0.0663,-0.0668 -0.0365,-0.0184 -0.0938,0.0131 -0.13271,0 -0.24031,-0.0807 0.0523,0.01 -0.0995,-0.0668 -0.0201,-0.0101 -0.0842,0.0154 -0.0995,0 -0.008,-0.008 0.01,-0.0284 0,-0.0334 -0.25286,-0.12732 0.19423,0.20834 -0.16588,-0.0334 -0.009,-0.006 0.008,-0.0255 0,-0.0334 -0.0678,-0.0683 -0.18896,-0.0746 -0.2654,-0.10023 -0.0297,-0.01 -0.0367,-0.0569 -0.0663,-0.0668 -0.0555,-0.0187 -0.29511,-0.0484 -0.33176,-0.0668 -0.028,-0.0141 -0.0383,-0.0527 -0.0663,-0.0668 -0.0198,-0.01 -0.0449,0.005 -0.0663,0 -0.0601,0.0201 -0.0617,-0.0541 -0.0995,-0.0668 -0.0315,-0.0105 -0.0698,0.0149 -0.0995,0 -0.0701,0.009 -0.0126,-0.053 -0.0332,-0.0668 -0.0803,-0.054 -0.39378,-0.10023 -0.49764,-0.10023 -0.0633,0 -0.13121,-0.0532 -0.19906,-0.0668 -0.049,-0.01 -0.14839,0.017 -0.19906,0 -0.0148,-0.005 -0.0179,-0.0303 -0.0332,-0.0334 -0.12553,-0.0253 -0.27374,0.0313 -0.39812,0 -0.21852,-0.055 -0.43358,-0.12846 -0.66352,-0.16705 -0.0545,-0.009 -0.11642,0.0249 -0.16588,0 -0.0222,-0.0111 -0.011,-0.0557 -0.0332,-0.0668 -0.0201,-0.0101 -0.0842,0.0155 -0.0995,0 -0.0166,-0.0167 -0.0166,-0.0501 -0.0332,-0.0668 -0.008,-0.008 -0.0305,0.0108 -0.0332,0 -0.0107,-0.0432 0,-0.0891 0,-0.13364 z"
         id="path1229"
         sodipodi:nodetypes="csscssssssssscscsssscsccsssscscscscscccsccssssssscscsccsssscscsscscsscscscsscsscc" />
      <path
         style="fill:none;stroke:#c37a4b;stroke-width:0.164425;stroke-linecap:round;stroke-linejoin:miter;stroke-miterlimit:4;stroke-dasharray:none;stroke-opacity:1"
         d="m 259.52523,155.99022 c 0.0552,-0.16705 0.0758,-0.35014 0.16571,-0.50114 0.0182,-0.0305 0.43064,0.0583 0.46446,0.0668 0.0304,0.008 0.0367,0.0569 0.0663,0.0668 0.0718,0.0241 0.11928,0.0266 0.19905,0.0668 0.0198,0.01 0.0466,-0.01 0.0663,0 0.0529,0.0266 0.32773,0.23251 0.33175,0.23386 0.062,0.0208 0.11026,0.0108 0.16589,0.0668 0.008,0.008 -0.008,0.0255 0,0.0334 0.0369,0.0373 0.15212,0.01 0.19905,0.0334 0.0162,0.008 0.26448,0.19951 0.26541,0.20045 0.008,0.008 -0.008,0.0255 0,0.0334 0.069,0.0695 0.24688,0.0575 0.33177,0.10023 0.0356,0.018 0.0625,0.0519 0.0995,0.0668 0.20276,0.0817 0.46823,0.0619 0.6967,0.10022 0.0235,0.004 0.10674,-0.0131 0.1327,0 0.0288,0.0145 0.23029,0.0649 0.23223,0.0668 0.008,0.008 -0.01,0.0284 0,0.0334 0.032,0.0161 0.7202,0.0766 0.72988,0.0668 0.008,-0.008 -0.008,-0.0255 0,-0.0334 0.0156,-0.0157 0.0507,0.0157 0.0663,0 0.008,-0.008 -0.008,-0.0255 0,-0.0334 0.011,-0.0111 0.0885,-0.0223 0.0995,-0.0334 0.005,-0.005 0.005,-0.12843 0,-0.13363 -0.0166,-0.0167 -0.0829,0.0167 -0.0995,0 -0.0443,-0.0446 0.0553,-0.0334 -0.0332,-0.0334 -0.0603,0 -0.51311,-0.0245 -0.53081,-0.0334 -0.014,-0.007 -0.018,-0.0296 -0.0332,-0.0334 -0.12207,-0.0307 -0.27899,0.04 -0.39811,0 -0.0697,-0.0234 -0.13815,-0.0464 -0.19905,-0.0668 -0.042,-0.0141 -0.0894,0.009 -0.13271,0 -0.12292,-0.0248 -0.24628,-0.0703 -0.36494,-0.10023 -0.17902,-0.0451 -0.33043,-0.17773 -0.49764,-0.23386 -0.0398,-0.0134 -0.0928,0.0134 -0.13271,0 -0.0647,-0.0217 -0.2296,-0.0976 -0.2654,-0.13363 -0.008,-0.008 0.0105,-0.0299 0,-0.0334 -0.14064,-0.0472 -0.0549,0.003 -0.19906,-0.0334 -0.0229,-0.006 -0.11997,-0.0848 -0.16588,-0.10022 -0.0907,-0.0304 -0.17328,-0.0148 -0.2654,-0.0334 -0.20474,-0.0412 -0.23997,-0.10023 -0.46447,-0.10023 -0.0664,0 -0.63854,-0.0399 -0.63035,0.0668 0.01,0.12661 0.0664,0.245 0.0997,0.3675"
         id="path1231"
         sodipodi:nodetypes="csccscssccscscsscsscscsccsscsscsscsccscscc" />
      <path
         style="fill:none;stroke:#c37a4b;stroke-width:0.164425;stroke-linecap:round;stroke-linejoin:miter;stroke-miterlimit:4;stroke-dasharray:none;stroke-opacity:1"
         d="m 248.87555,153.41775 c 0.19382,0.40121 0.84512,0.47036 1.22751,0.53454 0.33917,0.0569 0.65267,0.11063 0.99528,0.13363 0.49769,0.0334 0.99304,0.0334 1.49293,0.0334 0.37701,0 0.75717,0.02 1.12799,-0.0334 0.16613,-0.0239 0.36385,0 0.53081,0 0.52515,0 1.06942,0.0439 1.59245,0 0.22136,-0.0186 0.44151,-0.0496 0.66352,-0.0668 0.49464,-0.0383 0.99763,0.0293 1.49293,0 0.25517,-0.0151 0.50937,-0.0413 0.76305,-0.0668 0.088,-0.009 0.17747,0.01 0.2654,0 0.412,-0.0461 -0.12491,-0.0292 0.39811,-0.0668 0.23374,-0.0168 0.46279,-0.012 0.6967,-0.0334 0.41168,-0.0377 0.84702,0 1.26069,0 0.29872,0 0.63284,-0.0426 0.92893,0 0.0864,-0.0387 0.13007,0.0552 0.19906,0.0668 0.39811,0.0668 -0.0332,-0.0334 0.19905,0 0.23117,0.0333 0.43658,0.16236 0.66352,0.20045 0.0328,0.006 0.068,-0.0106 0.0995,0 0.0378,0.0127 0.0626,0.0519 0.0995,0.0668 0.26067,0.10499 0.55948,0.0215 0.8294,0.0668 0.0345,0.006 0.0647,0.0299 0.0995,0.0334 0.47067,0.0474 1.15795,0.0137 1.62563,-0.0334 0.29035,-0.0292 0.57298,-0.13464 0.86258,-0.16704 0.0879,-0.01 0.17764,0.0111 0.26542,0 0.25373,-0.0319 0.50911,-0.0718 0.76305,-0.10023 0.2124,-0.0238 0.42312,0.008 0.63034,-0.0334 0.0686,-0.0138 0.13048,-0.053 0.19905,-0.0668 0.0542,-0.0109 0.11114,0.008 0.16587,0 0.22402,-0.0322 0.44525,-0.10424 0.66353,-0.16705 0.0752,-0.0216 0.15807,-0.009 0.23224,-0.0334 0.0378,-0.0127 0.0639,-0.0489 0.0995,-0.0668 0.14499,-0.073 0.31285,-0.0697 0.46447,-0.10023 0.0485,-0.01 0.0847,-0.0547 0.13269,-0.0668 0.11261,-0.0283 0.24943,-0.014 0.36495,-0.0334 0.11789,-0.0198 0.21535,-0.0768 0.33176,-0.10023 0.0851,-0.0171 0.18034,0.0171 0.26542,0 0.38005,-0.0765 0.7363,-0.10023 1.12798,-0.10023 0.0845,0 0.41573,0.003 0.43128,-0.0334 0.0822,-0.19052 -0.0729,0.19436 0,0"
         id="path1233"
         sodipodi:nodetypes="cssssssssccsssccscsscssccscscsccccsscscc" />
      <path
         style="fill:none;stroke:#c37a4b;stroke-width:0.164425;stroke-linecap:round;stroke-linejoin:miter;stroke-miterlimit:4;stroke-dasharray:none;stroke-opacity:1"
         d="m 246.63616,157.30986 c 0.37272,-0.0289 0.74525,-0.64075 1.8081,-0.75168 0.83689,-0.0873 0.32252,0.0112 1.2607,0.0668 0.32397,0.0192 0.64064,0.001 0.9621,0.0334 0.35036,0.0353 0.71069,-0.0294 1.06162,0 0.28635,0.024 0.57852,0.0311 0.86259,0.0668 0.1851,0.0233 0.37888,-0.0233 0.56399,0 0.11227,0.0141 0.22156,0.051 0.33176,0.0668 0.11921,0.0171 0.24572,-0.0171 0.36494,0 0.0692,0.01 0.12965,0.0581 0.19905,0.0668 0.3311,0.0417 0.66674,0.053 0.99528,0.10023 0.20592,0.0296 0.42443,-0.0296 0.63035,0 0.27776,0.04 0.55604,0.0452 0.8294,0.10022 0.2535,0.0511 0.54588,-0.063 0.79622,0 0.32848,0.0827 0.65627,0.12437 0.99529,0.16705 0.0694,0.009 0.12981,0.0568 0.19906,0.0668 0.14471,0.0208 0.29133,0.0433 0.43128,0.0668 0.0764,0.0128 0.15633,-0.0153 0.23223,0 0.0666,0.0134 0.55684,0.13658 0.59718,0.16705 0.0726,0.0549 0.17217,0.1848 0.26541,0.20045 0.0922,0.0155 0.20935,0.003 0.29858,0.0334 0.1327,0.0445 -0.007,0.032 0.16588,0.0668 0.12987,0.0262 0.29734,0 0.43128,0 0.21492,0 0.40145,10e-4 0.59718,0.0668 0.0432,0.0145 0.12827,-0.008 0.16587,0 0.0594,0.012 0.0865,0.0435 0.13271,0.0668 0.0933,0.0469 0.26461,-0.0171 0.36493,0.0334 0.0793,0.0399 0.39981,0.15473 0.49764,0.16704 0.0549,0.007 0.11134,-0.009 0.16589,0 0.0659,0.0111 0.13868,0.0698 0.19906,0.10023 0.0262,0.0132 0.0716,-0.009 0.0995,0 0.1594,0.0535 0.30549,0.0348 0.46447,0.0668 0.39442,0.0794 -0.2625,-0.0162 0.23224,0.0668 0.40625,0.0682 0.72183,-0.10445 1.09479,-0.16704 0.18463,-0.031 0.37924,-0.002 0.564,-0.0334 0.18218,-0.0306 0.34216,-0.13364 0.53082,-0.13364 0.15777,0 0.28257,-0.10368 0.43128,-0.13363 0.12207,-0.0246 0.24341,-0.0464 0.36495,-0.0668 0.12678,-0.0213 0.24306,-0.10295 0.36493,-0.13363 0.0215,-0.005 0.0458,0.008 0.0663,0 0.2568,-0.10345 0.47937,-0.31989 0.76305,-0.3675 0.0953,-0.016 0.20536,-0.01 0.29858,-0.0334 0.20927,-0.0527 0.10727,-0.0761 0.29858,-0.10022 0.17593,-0.0221 0.35415,-0.0172 0.53081,-0.0334 0.10156,-0.009 0.19714,-0.0566 0.29859,-0.0668 0.099,-0.01 0.19968,0.0111 0.2986,0 0.39939,-0.0447 0.78935,-0.0668 1.19432,-0.0668 0.48777,0 0.0113,0.0153 0.39813,-0.0334 0.43832,-0.0552 0.85851,0.0428 1.29386,-0.0668 0.10407,-0.0262 0.22767,0.0262 0.33177,0 0.0781,-0.0196 0.11647,-0.0334 0.19905,-0.0334 h 0.16587"
         id="path1235"
         sodipodi:nodetypes="csssssssccsccsccsssscsssccsccscssscsssccscccscsssssc" />
    </g>
    <g
       id="g1173"
       transform="matrix(1.8527685,0,0,1.679405,-159.59984,-46.953391)"
       style="stroke-width:0.251237;stroke-miterlimit:4;stroke-dasharray:none">
      <rect
         style="fill:#ad673a;fill-opacity:1;stroke:#7f4a2a;stroke-width:0.251237;stroke-linecap:round;stroke-linejoin:round;stroke-miterlimit:4;stroke-dasharray:none;stroke-opacity:1"
         id="rect1085"
         width="168.29729"
         height="6.0646801"
         x="92.850601"
         y="113.02944"
         ry="0" />
      <path
         style="fill:none;stroke:#c37a4b;stroke-width:0.251237;stroke-linecap:butt;stroke-linejoin:miter;stroke-miterlimit:4;stroke-dasharray:none;stroke-opacity:1"
         d="m 93.544333,113.72318 c 0.342606,0.29807 -0.355706,-0.2823 0,0 0.568568,0.45124 2.377974,0.37345 2.405427,0.4009 0.276492,0.2765 -0.422521,-0.0108 0.133634,0.26727 0.439688,0.21985 1.284678,-0.0926 1.737248,0.13364 0.0399,0.0199 -0.0423,0.11955 0,0.13363 0.12678,0.0423 0.26987,-0.0262 0.40091,0 0.35903,0.0718 0.71191,0.31161 1.06908,0.40091 0.28708,0.0718 2.217938,0.075 2.405418,0 0.11698,-0.0468 0.15458,-0.21093 0.26727,-0.26727 0.17883,-0.0894 0.79539,0.14005 0.93544,0 0.0315,-0.0315 -0.0315,-0.10214 0,-0.13364 0.0277,-0.0277 3.73955,0 3.87541,0 0.67315,0 1.37774,-0.0753 2.00453,0.13364 0.30856,0.10285 0.74985,-0.0532 1.06907,0 0.32425,0.054 0.6268,0.20554 0.93545,0.26727 1.17646,0.23529 2.7278,-0.2869 3.8754,0 0.0611,0.0153 0.0725,0.11835 0.13364,0.13363 0.6237,0.15593 2.31697,0.0779 2.93996,0 1.62135,-0.20267 -0.25702,0.0226 0.80181,-0.4009 0.12408,-0.0496 0.26909,0.022 0.40091,0 0.77381,-0.12897 1.49522,-0.53875 2.27179,-0.66818 0.52884,-0.0881 2.10418,-0.14496 2.53906,0 0.20556,0.0685 0.46262,0.33239 0.66817,0.40091 0.14914,0.0497 0.55123,0.0167 0.66817,0.13363 0.2765,0.2765 -0.42252,-0.0108 0.13364,0.26727 0.24267,0.12134 0.71767,0.0495 0.93544,0.26727 0.0704,0.0704 0.0508,0.21202 0.13364,0.26727 0.18899,0.12599 0.45728,0.0493 0.66817,0.13364 0.1998,0.0799 0.48828,0.35593 0.66818,0.4009 0.44545,0.11136 0.29696,-0.0742 0.66817,0 0.3887,0.0777 0.82651,0.17322 1.20271,0.26727 0.19326,0.0483 0.3392,0.2282 0.53454,0.26727 1.05821,0.21164 2.23383,0.39027 3.34087,0.26727 1.85989,-0.20665 3.47157,-1.44747 5.34539,-1.60362 1.36676,-0.1139 3.14246,0.0474 4.40995,-0.13363 0.0986,-0.0141 0.1696,-0.11411 0.26727,-0.13364 0.67929,-0.13586 1.43063,0.008 2.13815,-0.13363 0.64053,-0.12811 1.35783,0.0924 2.00453,0 0.33837,0.0126 0.61556,-0.21396 0.93544,-0.26727 0.4331,-0.0722 0.90167,0.0621 1.33635,0 0.57563,-0.0822 1.16847,-0.28715 1.73725,-0.40091 0.96007,-0.19201 2.23939,0 3.20723,0 0.72118,0 1.57182,0.14 2.27179,0 0.73518,-0.14703 1.64318,-0.26067 2.40543,-0.13363 1.2246,0.2041 2.61863,0.23031 3.87541,0.13363 0.97804,-0.0752 1.89406,-0.17283 2.80633,-0.4009 0.57439,-0.1436 1.2855,0.065 1.87088,0 0.98903,-0.10989 1.93677,-0.13364 2.93997,-0.13364 0.64051,0 1.36984,-0.0907 2.00452,0 0.4911,0.0702 0.9718,0.32974 1.46998,0.40091 0.46171,0.066 1.02416,0.0222 1.46999,0.13363 0.62988,0.15747 1.25919,0.57242 1.87088,0.80181 0.73417,0.27532 1.65115,0.51732 2.40543,0.66818 0.87274,0.17454 1.7888,0.43632 2.67269,0.53453 0.52708,0.0586 1.07808,-0.0701 1.60362,0 0.84932,0.11325 1.69388,0.26004 2.53906,0.40091 1.93082,0.3218 0.49735,0.12124 2.13816,0.66817 0.85996,0.28666 3.66177,0.23738 4.54358,0.13364 1.83412,-0.21578 3.66549,-0.73394 5.47902,-0.93545 0.36508,-0.0406 0.70358,-0.23072 1.06908,-0.26727 1.28685,-0.12868 2.58418,-0.18656 3.87541,-0.26726 0.62873,-0.0393 1.24351,-0.21024 1.87089,-0.26727 0.52926,-0.0481 1.07554,0.0587 1.60361,0 0.96187,-0.10688 0.41074,-0.19161 1.46999,-0.26727 1.27664,-0.0912 2.60433,0.008 3.8754,-0.13364 0.35694,-0.0397 0.71484,-0.0746 1.06908,-0.13363 0.37128,0.25994 0.34128,-0.21896 0.53454,-0.26727 0.53498,-0.13375 1.34568,0.035 1.87089,0 0.98505,-0.0657 1.97891,-0.29412 2.93996,-0.40091 0.61982,-0.0689 1.24726,0 1.87089,0 h 4.40995 c 4.77294,0 9.53754,-0.3425 14.29892,0.13364 1.79158,0.17916 3.67807,0 5.47902,0 0.60543,0 1.27216,-0.0855 1.87089,0 0.63677,0.091 1.24255,0.31114 1.87088,0.4009 0.74249,0.10607 1.52581,0.0404 2.2718,0.13364 1.09333,0.13666 2.2552,-0.18095 3.34087,0 0.35689,0.0595 1.21555,0.32766 1.60361,0.13363 0.0398,-0.0199 -0.0398,-0.11371 0,-0.13363 0.11953,-0.0598 0.28138,0.0598 0.40091,0 0.0891,-0.0446 0.0445,-0.22273 0.13363,-0.26727 0.0684,-0.0342 1.19841,-0.26297 1.20271,-0.26727 0.0315,-0.0315 -0.0315,-0.10214 0,-0.13364 0.10667,-0.10666 0.52798,0.0701 0.66818,0 0.11269,-0.0563 0.15458,-0.21092 0.26727,-0.26727 0.1123,-0.0562 0.45687,-0.056 0.53454,-0.13363 0.0315,-0.0315 -0.0315,-0.10214 0,-0.13364 0.0618,-0.0618 0.32022,0.0403 0.4009,0 0.55616,-0.27807 -0.14286,0.009 0.13364,-0.26727 0.0891,-0.0891 0.44545,0.0891 0.53453,0 0.15573,-0.15571 -0.36666,-0.51844 -0.13363,0.93545"
         id="path1121"
         sodipodi:nodetypes="csssccsssssssscssccsccssssscsssssssssccsssssssscsssssssssssssssssccscssssscssssssssssssscssc" />
      <path
         style="fill:none;stroke:#c37a4b;stroke-width:0.251237;stroke-linecap:butt;stroke-linejoin:miter;stroke-miterlimit:4;stroke-dasharray:none;stroke-opacity:1"
         d="m 93.38514,118.35912 c 2.225312,-1.62729 2.251182,-1.69598 4.836412,-1.69598 0.631,0 1.03984,-0.071 1.60362,0.26727 1.091258,0.65477 2.967568,1.7451 4.343118,1.46998 0.60047,-0.12009 2.70934,-1.08309 3.00679,-1.60361 0.20427,-0.35748 0.6464,-0.31232 0.93544,-0.60136 0.37224,-0.37224 0.73757,0.46944 0.93544,0.60136 0.41642,0.27761 1.07786,0.59306 1.60362,0.66817 0.90891,0.12985 2.14512,0.31933 3.0736,0.13364 0.3153,-0.0631 1.64883,-0.0894 1.73725,-0.13364 0.0142,-0.007 0.12847,-0.26899 0.53454,-0.13363 0.21382,0.0713 0.32073,0.46327 0.53454,0.53454 0.55105,0.18368 1.42003,0.13363 2.00452,0.13363 0.71002,0 1.58183,0.13799 2.27179,0 0.3504,-0.0701 0.60405,-0.31805 0.93545,-0.4009 1.00288,-0.25072 3.34389,0.13406 4.27631,0.26727 0.18076,0.0258 1.71511,0.15577 1.87089,0 0.0315,-0.0315 -0.0315,-0.10214 0,-0.13364 0.0646,-0.0646 0.90651,-0.24405 1.06907,-0.26727 0.66458,-0.0949 1.47238,0 2.13816,0 1.97114,0 4.21443,0.48319 6.1472,0 0.25182,-0.063 0.70514,0.11515 0.93544,0 0.0261,-0.013 0.10464,-0.23827 0.13364,-0.26727 0.16202,-0.16202 0.79873,0.003 0.93544,-0.13363 0.0315,-0.0315 -0.0315,-0.10214 0,-0.13364 0.002,-0.002 1.03163,-0.35813 1.20271,-0.4009 0.24048,-0.0601 0.55081,0 0.80181,0 0.026,0 2.1364,-0.002 2.13816,0 0.0315,0.0315 -0.0315,0.10214 0,0.13363 0.1791,0.17911 1.06113,-0.0982 1.20271,-0.13363 0.37732,-0.0943 0.82539,0.0943 1.20271,0 0.99325,-0.24831 2.00234,-0.35563 2.93997,-0.66817 0.32042,-0.10681 0.74061,0.0821 1.06908,0 0.63894,-0.15974 1.44946,-0.25702 2.00452,-0.53454 0.37556,-0.18778 1.25141,0.0632 1.60361,0.13363 0.31157,0.0623 3.70418,0.10162 4.00905,0 0.0598,-0.0199 0.0773,-0.10546 0.13363,-0.13363 0.29219,-0.1461 1.73899,0 2.13816,0 0.0815,0 0.48247,-0.0521 0.53454,0 0.0315,0.0315 -0.0315,0.10213 0,0.13363 0.17152,0.17152 0.67333,0.005 0.80181,0.13364 0.0315,0.0315 -0.0398,0.11371 0,0.13363 0.11952,0.0598 0.28971,-0.0741 0.4009,0 0.49347,0.32898 0.92369,0.48607 1.46998,0.66817 0.30369,0.10124 0.78523,-0.14192 1.06908,0 0.21822,0.10911 0.40957,0.18107 0.66818,0.26727 0.65601,0.21868 1.36059,-0.0972 1.87088,-0.26727 0.55989,-0.18663 1.7885,0.24165 2.27179,0 0.56384,-0.28192 0.84254,-0.5549 1.33635,-0.8018 0.0797,-0.0399 0.20427,0.063 0.26727,0 0.0315,-0.0315 -0.0423,-0.11955 0,-0.13364 0.56403,-0.18801 0.17258,0.0474 0.80181,-0.26727 0.23322,-0.11661 1.82542,-0.0882 1.87089,-0.13363 0.029,-0.029 0.10758,-0.25425 0.13363,-0.26727 0.19801,-0.099 0.45563,-0.0274 0.66817,-0.13364 0.31189,-0.15594 1.81672,0.34674 2.00453,0.53454 0.2652,0.26521 -0.63286,0.0422 0.26726,0.26727 0.16306,0.0408 1.15159,0.0825 1.20272,0.13364 0.0315,0.0315 -0.0315,0.10213 0,0.13363 0.0342,0.0342 0.85875,0.2481 0.93544,0.26727 0.28976,0.0724 0.37842,0.32847 0.66817,0.4009 0.0864,0.0216 0.18759,-0.0398 0.26727,0 0.0399,0.0199 0,0.0891 0,0.13364 0.0891,0.0445 0.17278,0.10214 0.26727,0.13363 0.55746,0.18582 1.93028,0.0119 2.53907,0.13364 0.54959,0.10992 1.05946,0.3985 1.60361,0.53454 0.24391,0.061 0.56322,-0.0795 0.80181,0 0.33481,0.1116 0.92517,-0.005 1.20271,0.13363 0.20165,0.10082 0.28523,0.18417 0.53454,0.26727 0.3043,0.10144 0.78489,-0.14209 1.06908,0 0.0398,0.0199 -0.0315,0.10214 0,0.13364 0.20045,0.20045 1.00226,-0.20045 1.20271,0 0.0315,0.0315 -0.0315,0.10213 0,0.13363 0.0563,0.0563 0.58357,0.0245 0.80181,0.13363 0.31304,0.15652 4.09505,0.0119 4.67722,-0.13363 0.82505,-0.20626 1.86878,0.26797 2.67269,0 0.3403,-0.11343 0.90451,0.0155 1.20272,-0.13363 0.11269,-0.0564 0.14774,-0.22743 0.26727,-0.26727 0.4009,-0.13364 0.93544,0.13363 1.33634,0 0.16812,-0.056 0.33737,-0.20155 0.53454,-0.26727 0.36097,-0.12033 0.83243,0.0926 1.20271,0 0.33872,-0.0847 0.72927,-0.28764 1.06908,-0.40091 0.28431,-0.0948 0.53061,0.002 0.80181,-0.13363 0.29269,-0.14634 1.13649,0 1.46998,0 0.78509,0 4.70834,0.1678 5.21176,0 0.28099,-0.0937 0.61522,-0.18721 0.93544,-0.26727 0.37733,-0.0943 0.8254,0.0943 1.20271,0 1.32952,-0.33238 4.81314,-0.46715 6.1472,-0.13364 1.08815,0.27204 2.60168,-0.16287 3.74178,0 0.27387,-0.0572 0.43156,0.22784 0.66817,0.26727 0.35151,0.0586 0.71547,-0.0442 1.06908,0 2.35588,0.29449 4.82923,0.13364 7.21628,0.13364 h 4.67721 c 0.62797,0 1.39697,0.12151 2.00453,0 0.23522,-0.047 0.43295,-0.22023 0.66817,-0.26727 0.4257,-0.0851 0.91581,0.10513 1.33635,0 0.61238,-0.1531 1.24736,-0.009 1.87088,-0.13364 0.69616,-0.13923 1.40414,-0.13363 2.13816,-0.13363 1.94998,0 3.81462,0.13363 5.74629,0.13363 0.41763,0 1.96842,0.15169 2.2718,0 0.55615,-0.27807 -0.14286,0.009 0.13363,-0.26727 0.0146,-0.0146 0.40188,-0.0673 0.53454,-0.13363 0.17955,-0.0898 1.70607,0.13363 2.00452,0.13363 0.85698,0 1.83422,-0.13974 2.6727,0 0.34397,0.0573 0.58607,0.13364 0.93544,0.13364 0.0728,0 0.36432,0.30386 0.53454,0.13363 0.063,-0.063 -0.063,-0.20427 0,-0.26727 0.0668,-0.0668 0.20045,-0.0668 0.26727,-0.13363 0.0315,-0.0315 -0.0315,-0.10214 0,-0.13363 0.20045,-0.20046 0.86862,0.0668 1.06908,-0.13364 0.0821,-0.0821 0.0883,-0.31141 0.26727,-0.4009 0.0797,-0.0399 0.20427,0.063 0.26727,0 0.09,-0.09 0.0705,-0.16888 0.26726,-0.26727 0.0807,-0.0404 -0.32903,0.32907 -0.26726,0.26727 0.25892,-0.25892 0.39154,-0.72604 0.4009,-0.80181 0.0709,-0.57355 -0.1199,0.56534 0,0"
         id="path1127"
         sodipodi:nodetypes="csssssssccssssssssssccsssssccccssssssssssscssssscscssssssssssscsssscsssssssssssssssssscscssssssscsssssssssssssssscsc" />
      <path
         style="fill:none;stroke:#c37a4b;stroke-width:0.251237;stroke-linecap:butt;stroke-linejoin:miter;stroke-miterlimit:4;stroke-dasharray:none;stroke-opacity:1"
         d="m 161.36397,115.25998 c 0.74009,0.10087 1.76808,-0.14083 2.47225,0 0.15037,0.0301 0.31398,0.0361 0.46772,0.0668 0.0977,0.0195 0.17064,0.10948 0.26727,0.13363 0.12581,0.0315 0.27359,-0.0255 0.4009,0 0.30832,0.0617 0.62312,0.1484 0.93545,0.20046 0.23733,0.0395 0.49924,-0.0472 0.73499,0 0.34128,0.0683 1.24446,0.1566 1.60362,0.0668 0.19144,-0.0479 0.66847,-0.13378 0.8018,-0.20045 0.0845,-0.0423 0.11081,-0.17057 0.20046,-0.20045 0.11978,-0.0399 0.35796,-0.0119 0.46772,-0.0668 0.0563,-0.0282 0.0751,-0.11024 0.13363,-0.13363 0.062,-0.0248 0.13707,0.0211 0.20045,0 0.26727,-0.0891 -0.28954,-0.0668 0.0668,-0.0668"
         id="path1129" />
      <path
         style="fill:none;stroke:#c37a4b;stroke-width:0.251237;stroke-linecap:butt;stroke-linejoin:miter;stroke-miterlimit:4;stroke-dasharray:none;stroke-opacity:1"
         d="m 161.36397,115.25998 c -0.0891,-0.20045 -0.26727,-0.382 -0.26727,-0.60136 0,-0.0891 0.17818,0 0.26727,0 0.1437,0 0.38402,-0.0301 0.53454,0 0.15603,0.0312 0.27753,0.072 0.40091,0.13364 0.14549,0.0727 1.30279,0 1.60361,0 0.56974,0 2.00104,-0.26553 2.40543,-0.46772 0.14379,-0.0719 2.04185,-0.0482 2.13815,0 0.13001,0.065 0.31203,0.16152 0.46773,0.20045 0.0432,0.0108 0.0938,-0.0199 0.13363,0 0.0199,0.01 -0.0199,0.0569 0,0.0668 0.20729,0.10365 0.7021,0 0.93545,0 0.0665,0 0.42918,0.0385 0.46772,0 0.0223,-0.0223 0.0835,-0.0935 0.0668,-0.0668 -0.11806,0.18887 -0.26729,0.35636 -0.40093,0.53455"
         id="path1131" />
      <path
         style="fill:none;stroke:#c37a4b;stroke-width:0.251237;stroke-linecap:butt;stroke-linejoin:miter;stroke-miterlimit:4;stroke-dasharray:none;stroke-opacity:1"
         d="m 165.90756,115.05953 c 0.86448,0.0304 1.61941,-0.0668 2.47224,-0.0668 0.093,0 0.49563,-0.0389 0.33409,-0.20045 -0.0424,-0.0424 -0.21164,0.0278 -0.26728,0 -0.0282,-0.0141 -0.0386,-0.0527 -0.0668,-0.0668 -0.0214,-0.0107 -1.65655,0.0599 -1.67044,0.0668 -0.0984,0.0492 -0.0887,0.0887 -0.13363,0.13363 -0.0334,0.0334 -0.16704,-0.0334 -0.20045,0 -0.0157,0.0157 0.0157,0.0511 0,0.0668 -0.0535,0.0535 -0.44167,0.0668 -0.46772,0.0668 z"
         id="path1133" />
      <path
         style="fill:none;stroke:#c37a4b;stroke-width:0.251237;stroke-linecap:butt;stroke-linejoin:miter;stroke-miterlimit:4;stroke-dasharray:none;stroke-opacity:1"
         d="m 176.33107,113.45591 c 0.49423,0.0836 1.08384,0.0495 1.5368,0.20045 0.0642,0.0214 0.20314,-0.0321 0.26727,0 0.16975,0.0849 -0.0684,0.0799 0.20045,0.13364 0.0655,0.0131 0.13841,-0.0248 0.20045,0 0.0585,0.0234 0.0773,0.10546 0.13364,0.13363 0.0398,0.0199 0.0914,-0.0141 0.13363,0 0.10565,0.0352 0.16387,0.15909 0.26727,0.20045 0.09,0.036 0.24223,0.0209 0.33409,0.0668 0.14766,0.0738 0.30433,0.21281 0.46772,0.26727 0.28189,0.094 0.58756,0.12674 0.86862,0.26727 0.1099,0.0549 0.28307,0.22799 0.40091,0.26727 0.0845,0.0282 0.18275,-0.0282 0.26727,0 0.22561,0.0752 0.42537,0.18634 0.66817,0.26727 0.0881,0.0294 0.25873,0.0291 0.33409,0.0668 0.61353,0.30676 -0.45815,-0.0496 0.33409,0.26727 0.14382,0.0575 0.30677,0.08 0.46772,0.13363 0.51966,0.17322 1.42313,-0.18484 1.87088,-0.33409 0.29828,-0.0994 1.06712,0 1.40317,0 0.16214,0 0.67182,-0.0867 0.80181,0 0.64014,0.42677 0.75026,0.42143 1.46998,0.60136 0.29195,0.073 0.96286,-0.11993 1.20271,0 0.20145,0.10073 1.21447,0.0943 1.40317,0 0.0282,-0.0141 0.0363,-0.0592 0.0668,-0.0668 0.60791,-0.15197 1.3298,0.15198 1.93771,0 0.33864,-0.0847 0.70673,-0.34051 1.06908,-0.4009 0.17247,-0.0288 0.36318,0.0343 0.53454,0 0.43876,-0.0878 0.90543,-0.21097 1.33634,-0.33409 0.24301,-0.0694 0.48776,-0.22606 0.735,-0.26727 0.81546,-0.13591 1.66698,-0.0372 2.47224,-0.26727 0.20221,-0.0578 0.39593,-0.0925 0.60135,-0.13363 0.0874,-0.0175 0.18276,0.0282 0.26727,0 0.15258,-0.0509 0.35322,-0.10773 0.53454,-0.13364 0.56751,-0.0811 1.16975,0.0811 1.73726,0 0.51979,-0.0743 1.02163,-0.16423 1.5368,-0.26727 0.0874,-0.0175 0.18275,0.0282 0.26726,0 0.0299,-0.01 0.0445,-0.0445 0.0668,-0.0668 0.0668,-0.0223 0.13139,-0.053 0.20045,-0.0668 0.0874,-0.0175 0.18276,0.0282 0.26727,0 0.0598,-0.0199 0.0739,-0.11371 0.13364,-0.13364 0.0423,-0.0141 0.0938,0.0199 0.13363,0 0.1705,-0.0853 0.15475,-0.15474 0.26727,-0.26727 0.009,-0.009 0.29816,-0.0977 0.33409,-0.13363 0.0315,-0.0315 0,-0.0891 0,-0.13364"
         id="path1135" />
      <path
         style="fill:none;stroke:#c37a4b;stroke-width:0.251237;stroke-linecap:butt;stroke-linejoin:miter;stroke-miterlimit:4;stroke-dasharray:none;stroke-opacity:1"
         d="m 182.27781,113.72318 c 1.30783,-0.0868 2.57869,0.13363 3.87541,0.13363 0.40406,0 0.94869,-0.0969 1.33635,0 0.23081,0.0577 0.42304,0.16544 0.66817,0.20046 0.29155,0.0417 0.58199,-0.005 0.86863,0.0668 0.1415,0.0354 0.25941,0.16508 0.4009,0.20046 0.46395,0.11598 1.26326,0.31895 1.73726,0.20045 0.0306,-0.008 0.0359,-0.0606 0.0668,-0.0668 0.0874,-0.0175 0.17908,0.0126 0.26727,0 0.44999,-0.0643 1.20868,-0.33707 1.60362,-0.53454 0.14254,-0.0713 0.39199,0.0713 0.53454,0 0.0282,-0.0141 0.0369,-0.0569 0.0668,-0.0668 0.34535,-0.11511 1.32338,0.14012 1.60361,0 0.35461,-0.1773 0.6906,0.2598 1.06908,0.13364 0.0534,-0.0178 0.63476,-0.40091 0.63476,-0.40091 0.0891,-0.0891 0.8909,0.20047 1.06906,0.20047"
         id="path1137"
         sodipodi:nodetypes="csscsscsssscsssc" />
      <path
         style="fill:none;stroke:#c37a4b;stroke-width:0.251237;stroke-linecap:butt;stroke-linejoin:miter;stroke-miterlimit:4;stroke-dasharray:none;stroke-opacity:1"
         d="m 137.86566,118.38971 c 0.52561,0.007 2.50481,-0.15796 2.83482,-0.37797 0.13945,-0.093 0.29865,-0.29865 0.37798,-0.37798 0.0749,-0.0749 0.56086,-0.0442 0.66145,-0.0945 0.0282,-0.0141 -0.0223,-0.0722 0,-0.0945 0.0928,-0.0928 1.53105,0.0661 1.79539,0 0.9208,-0.2302 2.50525,0.16479 3.2128,-0.18898 0.35278,-0.17639 0.97014,0.17638 1.32292,0 0.34698,-0.1735 0.74713,0.002 1.13393,-0.0945 0.76363,-0.19091 1.65833,-0.0945 2.45684,-0.0945 0.19732,0 0.47332,0.047 0.66146,0 0.54527,-0.13632 3.49399,-0.20835 4.06324,-0.0945 0.22764,0.0455 0.44334,0.14537 0.66146,0.18899 0.25262,0.0505 0.60359,-0.0823 0.85045,0 0.0423,0.0141 0.0513,0.0837 0.0945,0.0945 0.23009,0.0575 0.53087,-0.075 0.75595,0 0.45352,0.15116 1.0154,0.17696 1.41741,0.37797 0.44606,0.22303 2.86356,-0.22187 3.3073,0 0.58696,0.29348 1.93868,0.0163 2.45684,0.18899 0.48818,0.16272 1.15729,0.37797 1.7009,0.37797 0.4403,0 1.2259,0.0958 1.60639,-0.0945 0.0173,-0.009 0.0983,-0.15875 0.18899,-0.18899 0.0897,-0.0299 0.21667,0.0668 0.28348,0 0.19551,-0.19551 -0.29876,0.008 0.0945,-0.18899 0.0584,-0.0292 0.34295,-0.0595 0.37797,-0.0945 0.0735,-0.0735 0.2727,-0.31138 0.47247,-0.37797 0.25911,-0.0864 1.06761,-0.12267 1.22843,-0.28349 0.0223,-0.0223 -0.0223,-0.0722 0,-0.0945 0.0668,-0.0668 0.18898,0 0.28348,0 0.3395,0 0.94285,0.14278 1.22842,0 0.19556,-0.0978 0.32811,-0.0945 0.56697,-0.0945 0.10017,0 2.42986,-0.027 2.45684,0 0.0223,0.0223 -0.0223,0.0722 0,0.0945 0.006,0.006 0.62291,0.14464 0.75595,0.18899 0.0616,0.0205 0.41956,-0.0529 0.47247,0 0.0223,0.0223 -0.0223,0.0722 0,0.0945 0.0446,0.0445 0.14445,-0.0445 0.18899,0 0.19551,0.19551 -0.29876,-0.008 0.0945,0.18899 0.15119,0.0756 0.41577,-0.0756 0.56696,0 0.0398,0.0199 0.0522,0.0804 0.0945,0.0945 0.18636,0.0621 0.47027,-0.0319 0.66146,0 0.22176,0.037 1.95996,0.25907 1.98438,0.28348 0.0223,0.0223 -0.0223,0.0722 0,0.0945 0.0629,0.0629 0.64782,0 0.75595,0 0.34236,0 1.88425,0.006 1.98437,-0.0945 0.0223,-0.0223 -0.0299,-0.0845 0,-0.0945 0.14941,-0.0498 0.36111,0.11136 0.47248,0 0.0223,-0.0223 -0.0223,-0.0722 0,-0.0945 0.0445,-0.0445 0.13264,0.0282 0.18898,0 0.21178,-0.10588 0.21255,-0.28347 0.47247,-0.28347"
         id="path1139" />
      <path
         style="fill:none;stroke:#c37a4b;stroke-width:0.251237;stroke-linecap:butt;stroke-linejoin:miter;stroke-miterlimit:4;stroke-dasharray:none;stroke-opacity:1"
         d="m 125.48694,113.66501 c 2.11497,0.22146 4.19439,0.28348 6.3311,0.28348 0.47326,0 1.583,0.1338 1.98437,0 0.38785,-0.12928 0.7713,-0.1626 1.13393,-0.28348 0.43226,-0.14408 1.37784,0 1.88989,0 0.0577,0 0.34115,-0.0368 0.37797,0 0.0223,0.0223 -0.0223,0.0722 0,0.0945 0.063,0.063 0.31498,-0.063 0.37798,0 0.0223,0.0223 -0.0223,0.0722 0,0.0945 0.0445,0.0445 0.13264,-0.0282 0.18898,0 0.0399,0.0199 0.0522,0.0804 0.0945,0.0945 0.0896,0.0299 0.21667,-0.0668 0.28348,0 0.0498,0.0498 0.0447,0.13919 0.0945,0.18899 0.29004,0.29004 0.0786,-0.0552 0.37797,0.0945 0.0807,0.0404 0.0472,0.18885 0.0945,0.28349 0.0214,0.0428 0.2337,0.13921 0.28348,0.18899 0.19551,0.19551 -0.29877,-0.008 0.0945,0.18898 0.0794,0.0397 0.32306,0.0396 0.37798,0.0945 0.0223,0.0223 -0.0223,0.0722 0,0.0945 0.15749,0.15749 0.78745,-0.15749 0.94494,0 0.12599,0.12599 -0.15749,0.0945 0.0945,0.0945"
         id="path1143" />
      <path
         style="fill:none;stroke:#c37a4b;stroke-width:0.251237;stroke-linecap:butt;stroke-linejoin:miter;stroke-miterlimit:4;stroke-dasharray:none;stroke-opacity:1"
         d="m 128.60524,114.89343 c 0.27777,-0.18394 2.09083,-0.20095 2.17337,-0.28348 0.0223,-0.0223 -0.0223,-0.0722 0,-0.0945 0.0794,-0.0794 0.46272,0.0347 0.56696,0 0.0423,-0.0141 0.0513,-0.0837 0.0945,-0.0945 0.5622,-0.14054 1.97809,0 2.64584,0 0.3043,0 1.22407,0.14392 1.5119,0 0.14865,-0.0743 0.10714,-0.0945 0.28349,-0.0945 0.46956,0 0.85044,-0.1221 0.85044,0.37798 0,0.0389 0.025,0.25846 0,0.28348 -0.0445,0.0445 -0.13264,-0.0282 -0.18899,0 -0.0797,0.0398 -0.10447,0.16081 -0.18899,0.18898 -0.39981,0.13328 -0.89224,0.0659 -1.32291,0.18899 -0.13544,0.0387 -0.24253,0.15029 -0.37798,0.18899 -0.16321,0.0466 -2.2486,0.0569 -2.36235,0 -0.17444,-0.0872 -0.36254,-0.12085 -0.56696,-0.18899 -0.10852,-0.0362 -0.67564,-0.0142 -0.75595,-0.0945 -0.0498,-0.0498 -0.0315,-0.15749 -0.0945,-0.18899 -0.11269,-0.0563 -0.28889,0.0891 -0.37798,0 -0.0223,-0.0223 0.0223,-0.0722 0,-0.0945 -0.025,-0.025 -0.24457,0 -0.28348,0 -0.5557,0 -1.0375,-0.0945 -1.6064,-0.0945 z"
         id="path1145" />
      <path
         style="fill:none;stroke:#c37a4b;stroke-width:0.251237;stroke-linecap:butt;stroke-linejoin:miter;stroke-miterlimit:4;stroke-dasharray:none;stroke-opacity:1"
         d="m 132.10152,114.89343 c 0.33437,0.21293 2.37838,-0.17296 2.45685,-0.0945 0.0223,0.0223 -0.0223,0.0722 0,0.0945 0.0151,0.0151 0.28256,0.0945 0.28348,0.0945"
         id="path1147" />
      <path
         style="fill:none;stroke:#c37a4b;stroke-width:0.251237;stroke-linecap:butt;stroke-linejoin:miter;stroke-miterlimit:4;stroke-dasharray:none;stroke-opacity:1"
         d="m 96.462684,115.41454 c 0.0945,0.12599 3.345946,-6.6e-4 5.495236,1.17979 0.0446,0.0445 0.12923,-0.0199 0.18899,0 0.86236,0.28745 1.51847,0.28348 2.45685,0.28348 0.10923,0 1.03227,-0.18183 1.03943,-0.18899 0.0498,-0.0498 0.0341,-0.15275 0.0945,-0.18899 0.0461,-0.0276 0.4886,-0.11062 0.56697,-0.18899 0.0619,-0.0619 0.0472,-0.33063 0.0945,-0.37797 0.0205,-0.0205 0.17978,-0.0761 0.18899,-0.0945 0.0832,-0.16643 -0.007,-0.18168 0.0945,-0.28348 0.0714,-0.0714 0.72377,-0.12565 0.85045,-0.18899 0.11306,-0.0565 0.31445,-0.1735 0.47247,-0.0945 0.20532,0.10266 0.43532,0.11361 0.66146,0.18899 0.26048,0.0868 0.49008,0.31151 0.75595,0.37797 0.0917,0.0229 0.21667,-0.0668 0.28348,0 0.0223,0.0223 -0.0223,0.0722 0,0.0945 0.0668,0.0668 0.20486,-0.0524 0.28349,0 0.0586,0.0391 0.0359,0.14992 0.0945,0.18898 0.0467,0.0312 0.30413,0.0699 0.37798,0.0945 0.56634,0.18878 -0.23734,-0.0242 0.37797,0.28348 0.16076,0.0804 0.47843,0.12798 0.66146,0.18899 0.40293,0.13431 0.871,-0.0685 1.23989,0.11595 0.23643,0.11821 1.43952,0.64721 2.88313,0.0386 1.52483,-0.97487 6.10561,-0.46772 6.10561,-0.46772"
         id="path1149"
         sodipodi:nodetypes="cccsscssccsssssscccssscc" />
      <path
         style="fill:none;stroke:#c37a4b;stroke-width:0.251237;stroke-linecap:butt;stroke-linejoin:miter;stroke-miterlimit:4;stroke-dasharray:none;stroke-opacity:1"
         d="m 196.45197,116.21635 c 0.56758,-0.22378 1.20682,-0.31993 1.70089,-0.56696 0.29193,-0.14597 0.98806,0.0514 1.22843,-0.18899 0.0223,-0.0223 -0.0282,-0.0804 0,-0.0945 0.13746,-0.0687 0.77655,-0.0575 1.03943,-0.18899 0.27718,-0.13859 0.76225,0.1386 1.03943,0 0.33165,-0.16582 0.5793,-0.11585 0.94494,-0.18898 0.21985,-0.044 0.44349,-0.1345 0.66146,-0.18899 0.41778,-0.10445 0.98443,0 1.41741,0 0.39394,0 2.62394,0.10544 2.83482,0 0.0797,-0.0398 0.10256,-0.16738 0.18899,-0.18899 0.12223,-0.0306 0.26529,0.0563 0.37798,0 0.44622,-0.22311 -0.57676,0.0497 0.37798,-0.18899 0.14822,-0.037 0.32424,0.0371 0.47246,0 0.39535,0.17112 0.10931,-0.14914 0.18899,-0.18899 0.0891,-0.0445 0.1944,-0.0499 0.28348,-0.0945 0.23174,-0.11587 1.21349,-0.0199 1.51191,-0.0945 0.26039,-0.0651 0.49116,-0.23935 0.75595,-0.28349 0.59011,-0.0983 1.20513,-0.0414 1.79539,-0.18899 0.33262,-0.0831 0.64311,0.0564 0.94494,-0.0945 0.13983,-0.0699 1.5456,0.0337 1.6064,0.0945 0.0223,0.0223 -0.0223,0.0722 0,0.0945 0.1363,0.1363 0.67112,-0.0897 0.85044,0 0.15701,0.0785 0.28559,0.12669 0.47247,0.18899 0.0534,0.0178 0.24553,-0.0379 0.28349,0 0.0223,0.0223 -0.0223,0.0722 0,0.0945 0.0105,0.0105 2.34218,-0.0945 2.64583,-0.0945"
         id="path1151" />
      <path
         style="fill:none;stroke:#c37a4b;stroke-width:0.251237;stroke-linecap:butt;stroke-linejoin:miter;stroke-miterlimit:4;stroke-dasharray:none;stroke-opacity:1"
         d="m 224.04423,115.83837 c 0.15749,-0.063 0.30791,-0.14785 0.47247,-0.18898 0.25053,-0.0626 2.11332,-0.1632 2.45685,-0.0945 0.25691,0.0514 0.49712,0.23172 0.75595,0.28348 0.51487,0.10298 1.09152,-0.10297 1.6064,0 1.12897,0.2258 2.22696,0.28349 3.40178,0.28349 0.29778,0 2.24968,0.10358 2.45685,0 0.60615,-0.30308 1.47322,-0.18899 2.17336,-0.18899 0.16271,0 1.02488,-0.0799 1.03944,-0.0945 0.0133,-0.0133 0.01,-0.2641 0,-0.28348 -0.059,-0.11809 -0.20278,-0.39177 -0.28349,-0.47247 -0.17255,-0.17256 -1.7311,0.18899 -1.98437,0.18899 -0.42459,0 -0.85894,-0.0287 -1.22842,0.0945 -0.47833,0.15944 -1.10905,-0.0995 -1.6064,0 -0.87217,0.17444 -1.95668,0.17563 -2.83482,0 -0.46801,-0.0936 -0.85219,0.0624 -1.32292,-0.0945 -0.56327,-0.18776 -1.486,0.14821 -2.07887,0 -0.0432,-0.0108 -0.0547,-0.0746 -0.0945,-0.0945 -0.20159,-0.10079 -0.55437,0.1008 -0.75596,0 -0.60349,-0.30174 -1.58175,-0.41769 -2.26785,-0.18898 -0.0598,0.0199 -0.14445,-0.0445 -0.18899,0 -0.0223,0.0223 0.0282,0.0804 0,0.0945 -0.11269,0.0564 -0.26529,-0.0563 -0.37798,0 -0.0101,0.005 -0.0173,0.45523 0,0.47247 0.0461,0.0461 0.22617,-0.0344 0.28348,0 0.13505,0.081 0.25199,0.18899 0.37798,0.28348 z"
         id="path1153" />
      <path
         style="fill:none;stroke:#c37a4b;stroke-width:0.251237;stroke-linecap:butt;stroke-linejoin:miter;stroke-miterlimit:4;stroke-dasharray:none;stroke-opacity:1"
         d="m 211.38203,117.91724 c 0.49959,-0.0437 1.01293,0.0499 1.5119,0 0.5991,-0.0599 1.20819,-0.21008 1.79539,-0.28348 0.54296,-0.0679 1.15526,0 1.70089,0 h 3.87426 c 0.88734,0 1.9805,-0.14239 2.83482,0 0.25621,0.0427 0.4978,0.1603 0.75595,0.18899 0.6634,0.0737 1.15517,0.0289 1.79539,0.18899 0.23716,0.0593 0.51879,-0.0593 0.75595,0 0.1341,0.0335 0.31238,0.15697 0.47247,0.18898 0.57333,0.11467 1.2144,-0.0726 1.79539,0 0.68887,0.0861 1.6403,0.3695 2.36235,0.18899 0.2549,-0.0637 0.41657,-0.20185 0.66146,-0.28348 0.16779,-0.0559 0.57825,0 0.75595,0 0.83235,0 2.38624,0.14641 3.1183,0 0.62015,-0.12403 1.18493,-0.36348 1.79539,-0.56697 0.38166,-0.12721 2.22182,0 2.74033,0 0.79362,0 1.58964,-0.0343 2.36235,0.0945 0.41827,0.0697 0.89712,0 1.32292,0 h 2.83482 c 0.55771,0 1.64695,0.1316 2.17336,0 0.36715,-0.0918 0.64311,-0.0945 1.03943,-0.0945 0.59409,0 1.54562,0.13332 2.07888,0 0.61691,-0.15422 -0.35702,-0.0507 0.47246,-0.18898 0.47557,-0.0793 1.02961,0 1.51191,0 1.05076,0 2.02218,0.0331 3.02381,0.28348 0.11119,0.0278 0.27761,-0.0502 0.37798,0 0.45142,0.22571 1.22657,0.37798 1.70089,0.37798 0.24693,0 0.54725,-0.0748 0.66146,-0.18899 0.0223,-0.0223 -0.0223,-0.0722 0,-0.0945 0.0445,-0.0445 0.14444,0.0446 0.18899,0 0.0223,-0.0223 -0.0223,-0.0722 0,-0.0945 0.0472,-0.0473 0.23623,0.0472 0.28347,0 0.0223,-0.0223 -0.0223,-0.0722 0,-0.0945 0.063,-0.063 0.31499,0.063 0.37798,0 0.0809,-0.0809 0.0725,-0.34784 0.0945,-0.18898 0.0711,0.51389 -0.0668,-0.51446 0,0"
         id="path1155"
         sodipodi:nodetypes="cssssssssssssssssssssssssscsssscssscc" />
    </g>
    <g
       id="g3379">
      <g
         id="g3361"
         transform="matrix(1.4047194,0,0,1.5329881,-147.07395,-115.07836)">
        <rect
           style="opacity:1;fill:#8c8682;fill-opacity:1;stroke:none;stroke-width:0.0649999;stroke-linecap:round;stroke-linejoin:bevel;stroke-miterlimit:4;stroke-dasharray:none;stroke-opacity:0.403226"
           id="rect3338"
           width="2.9766965"
           height="4.5748301"
           x="170.16158"
           y="107.25198" />
        <rect
           style="fill:#95928d;fill-opacity:1;stroke:#8c8682;stroke-width:0.170095;stroke-linecap:round;stroke-linejoin:round;stroke-miterlimit:4;stroke-dasharray:none;stroke-opacity:1"
           id="rect1303"
           width="16.055622"
           height="0.82877362"
           x="-131.98891"
           y="164.8273"
           transform="rotate(-90)" />
        <rect
           style="fill:#95928d;fill-opacity:1;stroke:#8c8682;stroke-width:0.170095;stroke-linecap:round;stroke-linejoin:round;stroke-miterlimit:4;stroke-dasharray:none;stroke-opacity:1"
           id="rect1305"
           width="16.055622"
           height="0.82877362"
           x="-131.97147"
           y="177.01878"
           transform="rotate(-90)" />
        <path
           style="opacity:1;fill:#95928d;fill-opacity:1;stroke:none;stroke-width:0.0379742;stroke-linecap:round;stroke-linejoin:round;stroke-miterlimit:4;stroke-dasharray:none;stroke-opacity:1"
           d="m 164.06583,116.01388 -0.43898,-0.0101 -1.7e-4,-0.22581 c -2.3e-4,-0.3204 0.0793,-0.92979 0.18157,-1.39114 0.47746,-2.15405 1.88351,-3.77923 4.08785,-4.72493 1.0127,-0.43447 2.23702,-0.73843 3.40999,-0.84659 1.25713,-0.11593 2.99051,0.40099 4.27554,1.05061 1.62789,0.82295 2.68101,1.9848 3.20133,3.71127 0.19358,0.64234 0.34788,1.63447 0.34865,2.24178 l 2.6e-4,0.2088 -7.31353,-0.002 c -4.02244,-10e-4 -7.51107,-0.006 -7.75251,-0.012 z"
           id="path1314"
           sodipodi:nodetypes="ccscssssscccc" />
        <path
           style="fill:url(#linearGradient3305);fill-opacity:1;stroke:none;stroke-width:0.051213;stroke-linecap:round;stroke-linejoin:bevel;stroke-miterlimit:4;stroke-dasharray:none;stroke-opacity:1"
           d="m 171.36767,122.4166 c -0.25105,0.12043 -0.52943,-0.13349 -0.57201,-0.15446 -0.21472,-0.0959 -5.6e-4,-0.38206 0.0905,-0.51199 0,0 -0.005,-0.17197 0.083,-0.26075 0.006,-0.003 0.0118,-1e-5 0.0178,-1e-5 0.29723,-0.29622 0.0919,-0.80535 0.2833,-1.07354 0.0109,-0.11085 0.0217,0.0596 0.0356,0.0976 0.10806,0.1724 0.15916,0.34784 0.31981,0.44862 0.0348,0.0286 0.0686,0.0767 0.10659,0.0975 0.15815,0.0636 0.0102,0.19368 0.0844,0.32025 0.0479,0.0164 0.0894,0.19594 0.11417,0.29383 0.009,0.27598 0.12874,0.29125 0.10597,0.52183 0.0299,0.19229 -0.1085,0.223 -0.1085,0.223 -0.15493,0.0266 -0.56062,-0.002 -0.56062,-0.002"
           id="path1333"
           sodipodi:nodetypes="cccccccccccccc" />
        <path
           style="fill:none;stroke:#726a58;stroke-width:0.173649px;stroke-linecap:butt;stroke-linejoin:miter;stroke-opacity:1"
           d="m 171.29785,122.75879 c 0.042,-0.13778 -0.046,-0.29987 -4e-4,-0.43698 0.0252,-0.0759 0.0255,-3e-4 0.0758,-0.076 0.008,-0.0113 -0.004,-0.0257 -4e-5,-0.038 0.0141,-0.0424 0.17119,-0.18576 0.20224,-0.2091 0.007,-0.005 0.0655,-3e-5 0.0759,-4e-5"
           id="path1325" />
        <rect
           style="fill:#cecba6;fill-opacity:1;stroke:#cac6aa;stroke-width:0.302001;stroke-linecap:round;stroke-linejoin:round;stroke-miterlimit:4;stroke-dasharray:none;stroke-opacity:1"
           id="rect1322"
           width="3.6811173"
           height="8.4831362"
           x="169.47128"
           y="122.78752" />
        <rect
           style="fill:#95928d;fill-opacity:1;stroke:#8c8682;stroke-width:0.267035;stroke-linecap:round;stroke-linejoin:round;stroke-miterlimit:4;stroke-dasharray:none;stroke-opacity:1"
           id="rect1301"
           width="15.958683"
           height="2.0550249"
           x="163.40985"
           y="129.88766" />
        <rect
           style="fill:#95928d;fill-opacity:1;stroke:#8c8682;stroke-width:0.267035;stroke-linecap:round;stroke-linejoin:round;stroke-miterlimit:4;stroke-dasharray:none;stroke-opacity:1"
           id="rect1307"
           width="15.958679"
           height="2.0550232"
           x="163.40985"
           y="115.88707" />
        <rect
           style="fill:#a5967e;fill-opacity:0.459677;stroke:#8c8682;stroke-width:0.302001;stroke-linecap:round;stroke-linejoin:round;stroke-miterlimit:4;stroke-dasharray:none;stroke-opacity:1"
           id="rect1318"
           width="11.233857"
           height="11.751704"
           x="165.69267"
           y="118.07964" />
      </g>
      <ellipse
         style="opacity:1;fill:none;fill-opacity:1;stroke:#8c8682;stroke-width:0.467;stroke-linecap:round;stroke-linejoin:bevel;stroke-miterlimit:4;stroke-dasharray:none;stroke-opacity:1"
         id="path3363"
         cx="94.056236"
         cy="47.698448"
         rx="1.8122413"
         ry="2.3197091" />
    </g>
    <ellipse
       style="opacity:1;fill:none;fill-opacity:1;stroke:#8c8682;stroke-width:0.485831;stroke-linecap:round;stroke-linejoin:bevel;stroke-miterlimit:4;stroke-dasharray:none;stroke-opacity:1"
       id="ellipse3365"
       cx="44.32769"
       cy="68.952286"
       rx="1.2427511"
       ry="1.7946705" />
  </g>
</svg>
