<?xml version="1.0" encoding="UTF-8" standalone="no"?>
<svg
   xmlns:dc="http://purl.org/dc/elements/1.1/"
   xmlns:cc="http://creativecommons.org/ns#"
   xmlns:rdf="http://www.w3.org/1999/02/22-rdf-syntax-ns#"
   xmlns:svg="http://www.w3.org/2000/svg"
   xmlns="http://www.w3.org/2000/svg"
   xmlns:sodipodi="http://sodipodi.sourceforge.net/DTD/sodipodi-0.dtd"
   xmlns:inkscape="http://www.inkscape.org/namespaces/inkscape"
   width="1200"
   height="720"
   viewBox="0 0 317.49999 190.50001"
   version="1.1"
   id="svg8"
   inkscape:version="1.0.1 (3bc2e813f5, 2020-09-07)"
   sodipodi:docname="crystal_floor.svg">
  <defs
     id="defs2" />
  <sodipodi:namedview
     id="base"
     pagecolor="#ffffff"
     bordercolor="#666666"
     borderopacity="1.0"
     inkscape:pageopacity="0.0"
     inkscape:pageshadow="2"
     inkscape:zoom="0.98994949"
     inkscape:cx="557.04127"
     inkscape:cy="313.89714"
     inkscape:document-units="mm"
     inkscape:current-layer="g959"
     inkscape:document-rotation="0"
     showgrid="false"
     units="px"
     inkscape:window-width="1677"
     inkscape:window-height="1030"
     inkscape:window-x="32"
     inkscape:window-y="0"
     inkscape:window-maximized="0" />
  <metadata
     id="metadata5">
    <rdf:RDF>
      <cc:Work
         rdf:about="">
        <dc:format>image/svg+xml</dc:format>
        <dc:type
           rdf:resource="http://purl.org/dc/dcmitype/StillImage" />
        <dc:title></dc:title>
      </cc:Work>
    </rdf:RDF>
  </metadata>
  <g
     inkscape:label="Warstwa 1"
     inkscape:groupmode="layer"
     id="layer1">
    <g
       id="g959"
       transform="matrix(1.3390503,0,0,1.6112652,-96.441093,-26.178802)">
      <g
         id="g90"
         transform="matrix(1.5372396,0,0,1.3388394,-137.69138,-11.025835)">
        <path
           style="fill:#c11050;fill-opacity:1;stroke:#f6c0c8;stroke-width:1.22312;stroke-linecap:butt;stroke-linejoin:miter;stroke-miterlimit:4;stroke-dasharray:none;stroke-opacity:1"
           d="m 155.01464,66.465496 -11.86013,-11.981029 -0.51566,-9.390541 c 0,0 10.82882,3.561929 12.37579,5.504797 1.54696,1.942871 6.70355,11.657223 6.70355,11.657223 l 2.06263,-13.276281 7.73487,-5.828608 9.28183,7.447666 -3.09393,12.304846 10.82882,-8.095292 -1.03132,-11.65722 8.25052,6.15242 2.5783,11.981033 6.18789,-7.77148 -3.09396,-5.5048 8.7662,-5.180986 9.7975,7.447668 2.57827,11.009598 3.60962,-9.066726 12.89145,-7.77148 4.64091,8.419102 -9.28184,9.066725 7.73486,1.619062 5.67225,-2.266683 v -7.77148 l 8.25053,-9.066726 7.73487,10.361973 -2.57829,6.476233 v 0 l 8.76618,-7.77148 14.43843,6.800045 -3.09395,11.981034 -18.56369,8.09529 -14.43842,-5.504798 -17.53237,6.152418 -28.36119,-7.123854 -6.70355,3.56193 -17.53236,4.857171 -11.86013,-2.266679 -13.40711,-3.561928 -1.03132,-5.828612 z"
           id="path888"
           sodipodi:nodetypes="cccscccccccccccccccccccccccccccccccccccccc" />
        <path
           style="fill:#f684ad;fill-opacity:1;stroke:#f7cdce;stroke-width:0.8;stroke-linecap:butt;stroke-linejoin:miter;stroke-miterlimit:4;stroke-dasharray:none;stroke-opacity:1"
           d="m 142.63885,45.093926 11.84293,4.618205 -3.20723,4.543583 -8.12004,0.228751 -0.51566,-9.390539"
           id="path892" />
        <path
           style="fill:#f684ad;fill-opacity:1;stroke:#f7cdce;stroke-width:0.8;stroke-linecap:butt;stroke-linejoin:miter;stroke-miterlimit:4;stroke-dasharray:none;stroke-opacity:1"
           d="m 151.27455,54.255714 10.44364,8.000232 v 0 l -6.70355,4.20955 -11.86013,-11.981029"
           id="path894"
           sodipodi:nodetypes="ccccc" />
        <path
           style="fill:#f684ad;fill-opacity:1;stroke:#f7cdce;stroke-width:0.8;stroke-linecap:butt;stroke-linejoin:miter;stroke-miterlimit:4;stroke-dasharray:none;stroke-opacity:1"
           d="m 171.51569,43.151057 10.44364,8.000232 -1.16181,-0.552566 -5.54174,4.762116 -11.47496,-6.381174"
           id="path896"
           sodipodi:nodetypes="ccccc" />
        <path
           style="fill:#f684ad;fill-opacity:1;stroke:#f7cdce;stroke-width:0.8;stroke-linecap:butt;stroke-linejoin:miter;stroke-miterlimit:4;stroke-dasharray:none;stroke-opacity:1"
           d="m 167.25532,28.93445 11.47496,6.381174 -8.89666,24.704748 v 0 l -4.64093,-17.809641"
           id="path898"
           sodipodi:nodetypes="ccccc"
           transform="translate(-3.4745039,20.045215)" />
        <path
           style="fill:#f684ad;fill-opacity:1;stroke:#f7cdce;stroke-width:0.8;stroke-linecap:butt;stroke-linejoin:miter;stroke-miterlimit:4;stroke-dasharray:none;stroke-opacity:1"
           d="M 163.58907,32.321759 168.23,50.1314 c -4.38081,-1.558774 -8.87454,-2.586429 -13.4071,-3.561928 l -1.03132,-5.828612"
           id="path900"
           sodipodi:nodetypes="cccc"
           transform="translate(-1.8708867,29.934187)" />
        <path
           style="fill:#f684ad;fill-opacity:1;stroke:#f7cdce;stroke-width:0.8;stroke-linecap:butt;stroke-linejoin:miter;stroke-miterlimit:4;stroke-dasharray:none;stroke-opacity:1"
           d="m 210.19004,42.827244 9.7975,7.447668 -15.46974,3.238118 -3.09396,-5.5048 8.7662,-5.180986"
           id="path902"
           sodipodi:nodetypes="ccccc" />
        <path
           style="fill:#f684ad;fill-opacity:1;stroke:#f7cdce;stroke-width:0.8;stroke-linecap:butt;stroke-linejoin:miter;stroke-miterlimit:4;stroke-dasharray:none;stroke-opacity:1"
           d="m 219.98754,50.274912 -12.38882,11.544137 -9.26881,-0.534539 6.18789,-7.77148 15.46974,-3.238118"
           id="path904"
           sodipodi:nodetypes="ccccc" />
        <path
           style="fill:#f684ad;fill-opacity:1;stroke:#f7cdce;stroke-width:0.8;stroke-linecap:butt;stroke-linejoin:miter;stroke-miterlimit:4;stroke-dasharray:none;stroke-opacity:1"
           d="m 207.59872,61.819049 12.38882,-11.544137 10.82881,30.762107 -28.36119,-7.123854 5.14356,-12.094116"
           id="path906"
           sodipodi:nodetypes="ccccc" />
        <path
           style="fill:#f684ad;fill-opacity:1;stroke:#f7cdce;stroke-width:0.8;stroke-linecap:butt;stroke-linejoin:miter;stroke-miterlimit:4;stroke-dasharray:none;stroke-opacity:1"
           d="m 198.32991,61.28451 3.09393,-13.27628 3.09396,5.5048 v 0 0"
           id="path908"
           sodipodi:nodetypes="ccccc" />
        <path
           style="fill:#f684ad;fill-opacity:1;stroke:#f7cdce;stroke-width:0.8;stroke-linecap:butt;stroke-linejoin:miter;stroke-miterlimit:4;stroke-dasharray:none;stroke-opacity:1"
           d="m 207.59872,61.819049 10.51793,2.888417 12.6997,16.329553 -28.36119,-7.123854 5.14356,-12.094116"
           id="path910"
           sodipodi:nodetypes="ccccc" />
        <path
           style="fill:#f684ad;fill-opacity:1;stroke:#f7cdce;stroke-width:0.8;stroke-linecap:butt;stroke-linejoin:miter;stroke-miterlimit:4;stroke-dasharray:none;stroke-opacity:1"
           d="m 183.36281,70.23815 10.51793,2.888417 1.87087,4.348528 -17.53236,4.857171 5.14356,-12.094116"
           id="path912"
           sodipodi:nodetypes="ccccc" />
        <path
           style="fill:#f684ad;fill-opacity:1;stroke:#f7cdce;stroke-width:0.8;stroke-linecap:butt;stroke-linejoin:miter;stroke-miterlimit:4;stroke-dasharray:none;stroke-opacity:1"
           d="m 166.35911,80.065587 11.34448,-17.162018 5.65922,7.334581 -5.14356,12.094116 -11.86013,-2.266679"
           id="path914"
           sodipodi:nodetypes="ccccc" />
        <path
           style="fill:#f684ad;fill-opacity:1;stroke:#f7cdce;stroke-width:0.8;stroke-linecap:butt;stroke-linejoin:miter;stroke-miterlimit:4;stroke-dasharray:none;stroke-opacity:1"
           d="m 195.75161,49.303477 2.5783,11.981033 -2.5783,-11.981033 -7.2192,5.5048 -1.03132,-11.65722"
           id="path916"
           sodipodi:nodetypes="ccccc" />
        <path
           style="fill:#f684ad;fill-opacity:1;stroke:#f7cdce;stroke-width:0.8;stroke-linecap:butt;stroke-linejoin:miter;stroke-miterlimit:4;stroke-dasharray:none;stroke-opacity:1"
           d="m 195.75161,49.303477 6.70355,24.609688 v 0 l -6.70355,3.56193 -7.2192,-22.666818"
           id="path918"
           sodipodi:nodetypes="ccccc" />
        <path
           style="fill:#f684ad;fill-opacity:1;stroke:#f7cdce;stroke-width:0.8;stroke-linecap:butt;stroke-linejoin:miter;stroke-miterlimit:4;stroke-dasharray:none;stroke-opacity:1"
           d="m 239.06688,44.446304 4.64091,8.419102 v 0 l -10.80572,2.693592 -6.72664,-3.341214"
           id="path920"
           sodipodi:nodetypes="ccccc" />
        <path
           style="fill:#f684ad;fill-opacity:1;stroke:#f7cdce;stroke-width:0.8;stroke-linecap:butt;stroke-linejoin:miter;stroke-miterlimit:4;stroke-dasharray:none;stroke-opacity:1"
           d="m 226.17543,52.217784 6.72664,3.341214 v 0 l -7.06231,11.621342 -3.27395,-5.89583"
           id="path922"
           sodipodi:nodetypes="ccccc" />
        <path
           style="fill:#f684ad;fill-opacity:1;stroke:#f7cdce;stroke-width:0.8;stroke-linecap:butt;stroke-linejoin:miter;stroke-miterlimit:4;stroke-dasharray:none;stroke-opacity:1"
           d="m 232.90207,55.558998 10.80572,-2.693592 v 0 L 230.81635,81.037019 225.83976,67.18034"
           id="path924"
           sodipodi:nodetypes="ccccc" />
        <path
           style="fill:#f684ad;fill-opacity:1;stroke:#f7cdce;stroke-width:0.8;stroke-linecap:butt;stroke-linejoin:miter;stroke-miterlimit:4;stroke-dasharray:none;stroke-opacity:1"
           d="m 256.08359,44.446304 7.73487,10.361973 v 0 l -8.7792,4.584683 -7.2062,-5.87993"
           id="path926"
           sodipodi:nodetypes="ccccc" />
        <path
           style="fill:#f684ad;fill-opacity:1;stroke:#f7cdce;stroke-width:0.8;stroke-linecap:butt;stroke-linejoin:miter;stroke-miterlimit:4;stroke-dasharray:none;stroke-opacity:1"
           d="m 247.83306,53.51303 7.2062,5.87993 v 0 l -3.22157,20.971901 -3.46897,-5.48026"
           id="path928"
           sodipodi:nodetypes="ccccc" />
        <path
           style="fill:#f684ad;fill-opacity:1;stroke:#f7cdce;stroke-width:0.853946;stroke-linecap:butt;stroke-linejoin:miter;stroke-miterlimit:4;stroke-dasharray:none;stroke-opacity:1"
           d="m 263.81846,54.808277 -8.7792,4.584683 v 0 l -3.22157,20.971901 4.98516,-0.975063"
           id="path930"
           sodipodi:nodetypes="ccccc" />
        <path
           style="fill:#f684ad;fill-opacity:1;stroke:#f7cdce;stroke-width:0.8;stroke-linecap:butt;stroke-linejoin:miter;stroke-miterlimit:4;stroke-dasharray:none;stroke-opacity:1"
           d="m 270.00635,53.51303 14.43843,6.800045 v 0 l -3.09395,11.981034"
           id="path932"
           sodipodi:nodetypes="cccc" />
        <path
           style="fill:#f684ad;fill-opacity:1;stroke:#f7cdce;stroke-width:0.8;stroke-linecap:butt;stroke-linejoin:miter;stroke-miterlimit:4;stroke-dasharray:none;stroke-opacity:1"
           d="m 270.00635,53.51303 11.34448,18.781079 v 0 0 l -18.56369,8.09529"
           id="path934"
           sodipodi:nodetypes="ccccc" />
      </g>
    </g>
  </g>
</svg>
